<svg id="Ebene_1" data-name="Ebene 1" xmlns="http://www.w3.org/2000/svg" viewBox="0 0 159.01 296"><defs><style>.cls-1{fill:none;stroke:#717171;stroke-miterlimit:10;stroke-width:2px;}.cls-2{fill:#717171;}</style></defs><title>Architektur</title><path class="cls-1" d="M65.8-430.1" transform="translate(-20.5 -2)"/><path class="cls-2" d="M96.43,122.35v81.82H126v-1.25H97.69V124.48L178.19,171V276.54H74.48a14.26,14.26,0,0,1-14.26-14.26V101H59.9L21.5,78.75l-.94.56h0V298h1.25V257.22L59,235.76v26.52A15.51,15.51,0,0,0,74.54,277.8h105V170.27ZM59,144.81,22.43,123.73,59,102.65Zm0,44.41L22.37,168.08,59,146.93ZM21.75,124.79l36.59,21.14L21.75,167.08Zm0,44.35,36.59,21.14L21.75,211.43Zm0-88.7,36.59,21.14L21.75,122.73Zm0,175.34V213.55L58.34,234.7Zm.63-43.29L59,191.35v42.22Z" transform="translate(-20.5 -2)"/><path class="cls-2" d="M149.54,129l.63-1.13-9.88-5.44-6.51-3.75V102.58a17.33,17.33,0,1,0-1.25,0V118L81.23,88.39V72.18a17.33,17.33,0,1,0-1.25,0V87.7L21.75,54.11c.06-28,19.64-50.79,43.72-50.79h83.76V38.78h28.71V145.37h1.25V37.91L151.17,2H65.47c-24.77,0-45,23.39-45,52.17v.63L139.66,123.6ZM117,85.26a16.08,16.08,0,1,1,16.7,16.08h-1.25A16.11,16.11,0,0,1,117,85.26ZM64.53,54.86a16.08,16.08,0,1,1,16.7,16.08H80A16.11,16.11,0,0,1,64.53,54.86ZM177.32,37.47H150.48V3.25h.06Z" transform="translate(-20.5 -2)"/><path class="cls-2" d="M162.93,220.75a39.38,39.38,0,0,0-39.35,39.35v.63h40v-40Zm-.63,38.72H124.83A38.16,38.16,0,0,1,162.3,222Z" transform="translate(-20.5 -2)"/></svg>