<svg id="Ebene_1" data-name="Ebene 1" xmlns="http://www.w3.org/2000/svg" viewBox="0 0 272.54 291.13"><defs><style>.cls-1,.cls-2{fill:none;}.cls-1{stroke:#717171;stroke-miterlimit:10;stroke-width:2px;}.cls-3{fill:#717171;}</style></defs><title>AvaiationBusiness2</title><path class="cls-1" d="M62.8-434.6" transform="translate(-3.5 0)"/><path class="cls-2" d="M19.75,231.82a12.25,12.25,0,0,1,1.47,1l82.19-85.14-57,20.44Z" transform="translate(-3.5 0)"/><path class="cls-2" d="M81.35,208.3a6.85,6.85,0,0,0,0,13.7h0a7.08,7.08,0,0,0,4.4-1.58,11.26,11.26,0,0,0,.86-.85,6.61,6.61,0,0,0,1.65-4.43A6.91,6.91,0,0,0,81.35,208.3Z" transform="translate(-3.5 0)"/><path class="cls-2" d="M133.29,116.67a5.64,5.64,0,0,0,.86.85,4.34,4.34,0,0,0,.86.61c.12.06.18.12.31.18a1.92,1.92,0,0,0,.61.3l.61.18a8.83,8.83,0,0,0,1.34.24,2.09,2.09,0,0,0,.61.06c.18,0,.43-.06.61-.06a6.88,6.88,0,0,0,6.29-6.85,6.6,6.6,0,0,0-.73-3.09l-.73-1.09a6.79,6.79,0,0,0-5.44-2.67,6.91,6.91,0,0,0-6.91,6.85,4,4,0,0,0,.06.85,6.27,6.27,0,0,0,.86,2.61A2.75,2.75,0,0,0,133.29,116.67Z" transform="translate(-3.5 0)"/><path class="cls-2" d="M20.3,233.7l-2.51,2.55L19.2,233a6,6,0,0,0-1.1-.49,7.82,7.82,0,0,0-2.08-.3A6.85,6.85,0,1,0,22.93,239a6.4,6.4,0,0,0-1.77-4.49A5.64,5.64,0,0,0,20.3,233.7Z" transform="translate(-3.5 0)"/><path class="cls-2" d="M61.12,129.5l5.19-12.43L66.8,116,83.24,76.77a7.77,7.77,0,0,1-1.65-1.09,5.64,5.64,0,0,1-.86-.85,7.7,7.7,0,0,1-1.1-1.64,5.93,5.93,0,0,1-.49-1.09,9.92,9.92,0,0,1-.37-1.94,2,2,0,0,1-.06-.61c0-.18.06-.42.06-.61A9.92,9.92,0,0,1,79.14,67a8.55,8.55,0,0,1,.49-1.09,7.7,7.7,0,0,1,1.1-1.64,5.64,5.64,0,0,1,.86-.85,7.77,7.77,0,0,1,1.65-1.09,6,6,0,0,1,1.1-.49c.06,0,.18-.06.24-.06L75.67,20.25,75.43,19l-.24-1.27,1.21-.27.24,1.27L76.88,20,85.81,61.5a1.36,1.36,0,0,1,.49,0h.61c.18,0,.43.06.61.06a10.13,10.13,0,0,1,2,.36,8.68,8.68,0,0,1,1.1.49,7.77,7.77,0,0,1,1.61,1.09,5.64,5.64,0,0,1,.86.85A7.7,7.7,0,0,1,94.19,66a5.93,5.93,0,0,1,.49,1.09A9.31,9.31,0,0,1,95,68.95a2,2,0,0,1,.06.61c0,.18-.06.42-.06.61a9.92,9.92,0,0,1-.37,1.94,8.56,8.56,0,0,1-.49,1.09A7.7,7.7,0,0,1,93,74.84a5.64,5.64,0,0,1-.86.85,7.77,7.77,0,0,1-1.65,1.09,6,6,0,0,1-1.1.49,9.51,9.51,0,0,1-1.89.36,2.09,2.09,0,0,1-.61.06h-.61a10.13,10.13,0,0,1-2-.36L68,116.5l-.49,1.09-4.4,10.55,11.24-8.37,1.28-1,10.69-7.82,1.22-.91,11.92-8.85,1-.73,9.54-7,1-.73,10.82-8,.86-.61v-.36l.06-13.46V69.07l.06-13.4V54.33l.06-19.4V33.78l-.31-.3.31-.3V31.59c0-4.24,1.65-11.22,4.4-17.46A67.59,67.59,0,0,0,114,6.67l-6.42,15.4-.49,1.09c-.43-.18-.79-.36-1.16-.49l.49-1.09,6.42-15.4a68.52,68.52,0,0,0-25.24-5V19H86.36V1.15a69.19,69.19,0,0,0-25.18,5L67.6,21.5l.49,1.09c-.43.18-.79.3-1.16.49L66.44,22,60,6.61A67.75,67.75,0,0,0,38.64,20.8L50.49,32.62l.86.85-.86.85-.85-.82L37.78,21.65a69,69,0,0,0-14.3,21.16L39,49.12l1.1.49c-.18.42-.37.79-.49,1.15l-1.1-.49L23,43.9a66.85,66.85,0,0,0-5,25H36v1.21H18a67.75,67.75,0,0,0,5,25l15.52-6.37,1.1-.49c.18.42.31.79.49,1.15l-1.1.49L23.48,96.3a67.17,67.17,0,0,0,14.3,21.2l11.85-11.76.86-.85.86.85-.86.85L38.64,118.37a67.63,67.63,0,0,0,19.55,13.34Z" transform="translate(-3.5 0)"/><path class="cls-2" d="M86.3,76.65h.61c.18,0,.43-.06.61-.06a12.6,12.6,0,0,0,1.47-.3A7,7,0,0,0,91.31,75a5.64,5.64,0,0,0,.86-.85A8.33,8.33,0,0,0,93,72.89a5.93,5.93,0,0,0,.49-1.09,6.19,6.19,0,0,0,.31-1.46,2,2,0,0,0,.06-.61c0-.18-.06-.42-.06-.61a12.35,12.35,0,0,0-.31-1.46A8.55,8.55,0,0,0,93,66.58a8.67,8.67,0,0,0-.86-1.21,5.64,5.64,0,0,0-.86-.85A5.51,5.51,0,0,0,90,63.67a6,6,0,0,0-1.1-.49,6.31,6.31,0,0,0-1.47-.3,2.09,2.09,0,0,0-.61-.06H86a7.26,7.26,0,0,0-1.22.24l.06.18-.06-.18a7,7,0,0,0-2.32,1.33,5.64,5.64,0,0,0-.86.85,5.47,5.47,0,0,0-.86,1.26,5.93,5.93,0,0,0-.49,1.09A6.19,6.19,0,0,0,79.94,69a2,2,0,0,0-.06.61c0,.18.06.42.06.61a12.34,12.34,0,0,0,.31,1.46,8.56,8.56,0,0,0,.49,1.09A8.66,8.66,0,0,0,81.6,74c.31.36.55.61.92,1.09a8.4,8.4,0,0,0,1.22.79,8.69,8.69,0,0,0,1.1.49A6.32,6.32,0,0,0,86.3,76.65Z" transform="translate(-3.5 0)"/><path class="cls-2" d="M156.82,85.32V65.61c0-20.37-.18-33.78-.18-34,0-9.46-7.76-29.47-16.38-29.47-4.4,0-8.56,5.28-11.61,11.64a6.55,6.55,0,0,1-.49,1.15c-2.57,5.82-4.22,12.43-4.22,16.74v1.7l.18.18-.18.18v1.33l-.06,18.74v1.33L123.82,69v1.21l-.06,13.95v.49l-.73.55-11.24,8.31-1,.73-10,7.4-1,.73-12.34,9.16-1.22.91-9.11,6.79-1.28,1L62.1,130.43l-.79,1.88.79-1.88-1.89,1.39-.31.73-.43-.18-1.1.85L4.72,173.06v8.73l40.64-14.55,1.53-.55,58.3-20.86,13.75-14.25,2.87-3,10.57-11a7.79,7.79,0,0,1-2-3.94,11.69,11.69,0,0,1-.12-1.46v-.42a8.15,8.15,0,0,1,8.13-7.7,8.26,8.26,0,0,1,6.17,2.85,6.63,6.63,0,0,1,.79,1,7.63,7.63,0,0,1,1.22,4.18,8.1,8.1,0,0,1-7.52,8.07V255.11l-.37.18-11.79,4.91,28.9,29.11.49-150,38.81,13.76v-40c-19.55-14.51-35.54-26.36-37.77-28ZM113,133.59l-.24-.55a8.69,8.69,0,0,0,1.1-.49l.24.55Zm43.51-63.37h-.61V69h.61Z" transform="translate(-3.5 0)"/><polygon class="cls-2" points="78.22 268.45 78.22 277.67 121.3 259.66 99.42 237.65 78.22 268.45"/><path class="cls-2" d="M137.81,120.25a7.63,7.63,0,0,1-2.32-.55,5,5,0,0,1-1.16-.55,4.93,4.93,0,0,1-1.1-.73l-7,7.28-3.63,3.8-14.73,15.28,12.89-4.61-.43,72.22-.12.18-16.68,24.07L126,259.17l11.85-4.91Z" transform="translate(-3.5 0)"/><path class="cls-3" d="M156.33,139.35l-.49,150-28.9-29.11,11.79-4.91.37-.18V120.25a8.1,8.1,0,0,0,7.52-8.07A7.63,7.63,0,0,0,145.4,108a6.63,6.63,0,0,0-.79-1,8.26,8.26,0,0,0-6.17-2.85,8.15,8.15,0,0,0-8.13,7.7v.42a11.69,11.69,0,0,0,.12,1.46,7.79,7.79,0,0,0,2,3.94l-10.57,11-2.87,3-13.75,14.25L46.89,166.7l-1.53.55L4.72,181.8v-8.73l53.65-39.84,1.1-.85.43.18.31-.73,1.89-1.39,13.75-10.19,1.28-1,9.11-6.75,1.22-.91,12.34-9.16,1-.73,10-7.4,1-.73L123,85.26l.73-.55v-.49l.06-13.95v-1.2l.06-13.89V53.85l.06-18.74V33.78l.18-.18-.18-.18v-1.7c0-4.31,1.65-10.92,4.22-16.74a6.55,6.55,0,0,0,.49-1.15c3.08-6.33,7.24-11.65,11.64-11.65,8.62,0,16.38,20,16.38,29.47,0,.18.18,13.58.18,34V84.71l.55.37,1.53,1.13c4.89,3.61,19.21,14.23,36.24,26.87v-1.65l-18.58-13.8c-5.56-4.12-10.27-7.58-13.5-10-1.65-1.21-2.93-2.18-3.79-2.79l-1.1-.79c.12-30.38-.18-52.27-.18-52.45,0-4.91-2.08-12.67-5-18.8C150.85,8.37,146.33.91,140.46.91c-5.13,0-9.53,5.46-12.65,12.07A70.13,70.13,0,0,0,87,0C48.32,0,16.85,31.23,16.85,69.61a69.63,69.63,0,0,0,40.33,63L3.5,172.4v11.1l41.31-14.8L18.59,231.4A8.74,8.74,0,0,0,16,231a8.08,8.08,0,1,0,6,2.67l83.9-86.9,13.57-4.85-.43,70.1-16.38,23.77L87.46,220.42a8.15,8.15,0,1,0-6.11,2.73,8,8,0,0,0,5.26-1.94L102,236.74,80.5,268.09V279.5l45.22-18.86L156,291.13l.43-.42H157L157.53,141l37.59,13.33v-1.2Zm-117.69-21L50.49,106.6l.86-.85-.86-.85-.86.85L37.78,117.5a67.17,67.17,0,0,1-14.3-21.22l15.46-6.37,1.1-.49c-.18-.36-.31-.73-.49-1.15l-1.1.49L22.93,95.14a67.75,67.75,0,0,1-5-25h18V68.95H18a66.85,66.85,0,0,1,5-25l15.52,6.37,1.1.49c.12-.36.31-.73.49-1.15L39,49.12,23.48,42.81a69,69,0,0,1,14.3-21.16L49.64,33.5l.86.85.86-.85-.86-.85L38.64,20.8A67.75,67.75,0,0,1,60,6.61L66.42,22l.49,1.09c.37-.18.73-.3,1.16-.49L67.6,21.5,61.18,6.1a69.19,69.19,0,0,1,25.18-5V19h1.22V1.21a68.52,68.52,0,0,1,25.24,5l-6.42,15.4-.49,1.09c.37.12.73.3,1.16.49l.49-1.09L114,6.67a67.59,67.59,0,0,1,13.26,7.46c-2.75,6.25-4.4,13.22-4.4,17.46v1.58l-.31.3.31.3v1.15l-.06,19.4v1.33l-.06,13.4v1.21l-.06,13.46v.36l-.86.61-10.82,8-1,.73-9.52,7.08-1,.73-11.92,8.85-1.22.91-10.69,7.82-1.28,1-11.24,8.37,4.4-10.55L68,116.5,84.41,77.31a10.13,10.13,0,0,0,2,.36H87a2.09,2.09,0,0,0,.61-.06,9.51,9.51,0,0,0,1.89-.36,6,6,0,0,0,1.1-.49,7.77,7.77,0,0,0,1.65-1.09,5.64,5.64,0,0,0,.86-.85,7.7,7.7,0,0,0,1.1-1.64,8.56,8.56,0,0,0,.49-1.09,9.92,9.92,0,0,0,.3-1.93c0-.18.06-.42.06-.61a2,2,0,0,0-.06-.61,9.31,9.31,0,0,0-.37-1.88A5.93,5.93,0,0,0,94.14,66,7.7,7.7,0,0,0,93,64.33a5.64,5.64,0,0,0-.86-.85,7.77,7.77,0,0,0-1.65-1.09,8.68,8.68,0,0,0-1.1-.49,10.13,10.13,0,0,0-2-.36c-.18,0-.43-.06-.61-.06H86.3a1.36,1.36,0,0,0-.49.06L76.89,20l-.24-1.21-.25-1.3-1.22.24L75.42,19l.24,1.21,8.92,41.54c-.06,0-.18.06-.24.06a6,6,0,0,0-1.1.49,7.77,7.77,0,0,0-1.65,1.09,5.64,5.64,0,0,0-.86.85,7.7,7.7,0,0,0-1.1,1.64A8.55,8.55,0,0,0,79.14,67a9.92,9.92,0,0,0-.37,1.94c0,.18-.06.42-.06.61a2,2,0,0,0,.06.61,9.92,9.92,0,0,0,.37,1.94,5.93,5.93,0,0,0,.49,1.09,7.7,7.7,0,0,0,1.1,1.64,5.64,5.64,0,0,0,.86.85,7.77,7.77,0,0,0,1.65,1.09L66.81,116l-.49,1.09-5.2,12.41-2.93,2.18a67.63,67.63,0,0,1-19.55-13.31Zm45.1-42.51a8.4,8.4,0,0,1-1.22-.79c-.37-.49-.61-.73-.92-1.09a8.66,8.66,0,0,1-.86-1.21,8.56,8.56,0,0,1-.49-1.09,12.34,12.34,0,0,1-.31-1.46c0-.18-.06-.42-.06-.61a2,2,0,0,1,.06-.61,6.19,6.19,0,0,1,.31-1.46,5.93,5.93,0,0,1,.49-1,5.47,5.47,0,0,1,.86-1.21,5.64,5.64,0,0,1,.86-.85,7,7,0,0,1,2.32-1.33A7.26,7.26,0,0,1,86,62.82h.86a2.09,2.09,0,0,1,.61.06,6.31,6.31,0,0,1,1.47.3,6,6,0,0,1,1.1.49,5.51,5.51,0,0,1,1.22.85,5.64,5.64,0,0,1,.86.85A8.67,8.67,0,0,1,93,66.58a8.55,8.55,0,0,1,.49,1.09,12.35,12.35,0,0,1,.31,1.46c0,.18.06.42.06.61a2,2,0,0,1-.06.61,6.19,6.19,0,0,1-.31,1.46A5.93,5.93,0,0,1,93,72.89a8.33,8.33,0,0,1-.79,1.21,5.64,5.64,0,0,1-.86.85A7,7,0,0,1,89,76.28a12.6,12.6,0,0,1-1.47.3c-.18,0-.43.06-.61.06H86.3a6.32,6.32,0,0,1-1.47-.3,8.69,8.69,0,0,1-1.1-.48ZM22.93,239a6.91,6.91,0,1,1-7-6.85h0a7.82,7.82,0,0,1,2.08.3,6,6,0,0,1,1.1.49l1.1.72a5.64,5.64,0,0,1,.86.85A6.4,6.4,0,0,1,22.93,239Zm-1.71-6.25a12.25,12.25,0,0,0-1.47-1l26.65-63.7,57-20.44Zm64.53-12.37a7.08,7.08,0,0,1-4.4,1.58,6.85,6.85,0,1,1,6.91-6.85,6.61,6.61,0,0,1-1.65,4.43A11.26,11.26,0,0,1,85.75,220.42ZM131.64,113a4,4,0,0,1-.06-.85,6.91,6.91,0,0,1,6.91-6.85,6.79,6.79,0,0,1,5.44,2.67l.73,1.09a6.6,6.6,0,0,1,.73,3.09A6.88,6.88,0,0,1,139.1,119c-.18,0-.43.06-.61.06a2.09,2.09,0,0,1-.61-.06,8.83,8.83,0,0,1-1.34-.24l-.61-.18a1.92,1.92,0,0,1-.61-.3c-.12-.06-.18-.12-.31-.18a4.34,4.34,0,0,1-.86-.61,5.64,5.64,0,0,1-.86-.85,2.75,2.75,0,0,1-.79-1A6.27,6.27,0,0,1,131.64,113ZM81.72,277.67v-9.22l21.2-30.8,21.88,22Zm21.82-41.05,16.67-24.12.12-.18.43-72.22-12.89,4.61L122.6,129.5l3.61-3.76,7-7.28a4.93,4.93,0,0,0,1.1.73,5,5,0,0,0,1.16.55,7.63,7.63,0,0,0,2.32.55v134L126,259.17Z" transform="translate(-3.5 0)"/><polygon class="cls-3" points="272.54 181.8 272.48 181.78 272.48 181.8 272.54 181.8"/><rect class="cls-3" x="190.62" y="111.9" width="1.02" height="41.87"/></svg>