<svg id="Ebene_1" data-name="Ebene 1" xmlns="http://www.w3.org/2000/svg" viewBox="0 0 173.13 293.18"><defs><style>.cls-1{fill:none;stroke:#717171;stroke-miterlimit:10;stroke-width:2px;}.cls-2{fill:#717171;}</style></defs><title>BauIngenieur</title><path class="cls-1" d="M65.8-430.1" transform="translate(-13.43 -3.41)"/><path class="cls-2" d="M145.54,239.93c3.45-2.12,6.73-4.18,13.45-4.18s10,2,13.45,4.18,7,4.36,14.06,4.36v-1.21c-6.73,0-10-2-13.45-4.18s-7-4.36-14.06-4.36-10.6,2.18-14.06,4.36a32.7,32.7,0,0,1-5.21,2.79v-67.2A45.72,45.72,0,0,0,94,128.79a46.41,46.41,0,0,0-11.63,1.51l93.44-51.93-.61-1L84.4,127.76V61.1L183.54,6l-.61-1L83.79,60.07,49.19,40.5a.55.55,0,0,0-.61,0L14.65,59.71V3.41H13.43V296h1.21V96.07l33.69,19.09V296.59h1.21V265.92C55.85,266,59,268,62.34,270s7,4.36,14.06,4.36a24.07,24.07,0,0,0,6.79-.85v23H84.4V273.14A33.29,33.29,0,0,0,90.46,270c3.45-2.12,6.73-4.18,13.45-4.18s10,2,13.45,4.18,7,4.36,14.06,4.36a25.4,25.4,0,0,0,7-.91v23.09h1.21V273.08a31.36,31.36,0,0,0,5.88-3c3.45-2.12,6.73-4.18,13.45-4.18s10,2,13.45,4.18,7,4.36,14.06,4.36V273.2c-6.73,0-10-2-13.45-4.18s-7-4.36-14.06-4.36-10.6,2.18-14.06,4.36a32.7,32.7,0,0,1-5.21,2.79V258a31.36,31.36,0,0,0,5.88-3c3.45-2.12,6.73-4.18,13.45-4.18s10,2,13.45,4.18,7,4.36,14.06,4.36v-1.21c-6.73,0-10-2-13.45-4.18s-7-4.36-14.06-4.36-10.6,2.18-14.06,4.36a32.7,32.7,0,0,1-5.21,2.79V242.9A30.23,30.23,0,0,0,145.54,239.93Zm-7.09-65.45V242a22.57,22.57,0,0,1-7,1c-6.73,0-10-2-13.45-4.18s-7-4.36-14.06-4.36-10.6,2.18-14.06,4.36a34.9,34.9,0,0,1-5.39,2.85v-67.2a44.57,44.57,0,0,1,26.78-40.84l-.06-.18A44.56,44.56,0,0,1,138.45,174.48ZM94,130a44.49,44.49,0,0,1,15.88,2.91,45.66,45.66,0,0,0-26.66,41.51v67.69a23.88,23.88,0,0,1-6.79.91c-6.73,0-10-2-13.45-4.18s-6.79-4.18-13.45-4.3V174.48A44.55,44.55,0,0,1,94,130ZM83.24,257.2a23.88,23.88,0,0,1-6.79.91c-6.73,0-10-2-13.45-4.18s-6.79-4.18-13.45-4.3V235.75c6.3.12,9.45,2.06,12.79,4.12s7,4.36,14.06,4.36a24.07,24.07,0,0,0,6.79-.85V257.2ZM29.13,85.77,15.25,77.89,29.13,70,43,77.89l1.21.67,4.06,2.3V96.61L30.34,86.49Zm20.42-4.91,4.06-2.3,1.21-.67L68.7,70l13.88,7.88L68.7,85.77l-1.21.67L49.55,96.55V80.86Zm0,17.15L68.7,87.16l1.21-.67L83.18,79V94l-.61,1L49.49,113.76V98ZM83.24,76.86,70,69.34l13.27-7.51ZM48.34,42l.61-.36.61.36L82.64,60.74,68.76,68.62l-1.21.67L53.67,77.16l-1.21.67L49.67,79.4l-.61.36-.61-.36-2.79-1.58-1.21-.67L30.58,69.28l-1.21-.67L15.5,60.74ZM27.92,69.28,14.65,76.8v-15ZM15.25,95l-.61-1v-15l13.27,7.51,1.21.67L48.28,97.95V113.7Zm34.3,20.12L83.24,96v32.42l-7.45,4.12h0A45.89,45.89,0,0,0,49.49,164V115.1ZM76.4,273.2c-6.73,0-10-2-13.45-4.18s-6.79-4.18-13.45-4.3V250.84c6.3.12,9.45,2.06,12.79,4.12s7,4.36,14.06,4.36a24.07,24.07,0,0,0,6.79-.85v13.82A22.52,22.52,0,0,1,76.4,273.2Zm62.05-1a22.57,22.57,0,0,1-7,1c-6.73,0-10-2-13.45-4.18s-7-4.36-14.06-4.36S93.3,266.83,89.85,269a34.9,34.9,0,0,1-5.39,2.85V258A33.29,33.29,0,0,0,90.52,255c3.45-2.12,6.73-4.18,13.45-4.18s10,2,13.45,4.18,7,4.36,14.06,4.36a25.4,25.4,0,0,0,7-.91v13.82Zm0-15.09a22.57,22.57,0,0,1-7,1c-6.73,0-10-2-13.45-4.18s-7-4.36-14.06-4.36-10.6,2.18-14.06,4.36a34.9,34.9,0,0,1-5.39,2.85V243a33.29,33.29,0,0,0,6.06-3.09c3.45-2.12,6.73-4.18,13.45-4.18s10,2,13.45,4.18,7,4.36,14.06,4.36a25.4,25.4,0,0,0,7-.91v13.82Z" transform="translate(-13.43 -3.41)"/></svg>