<svg id="Ebene_1" data-name="Ebene 1" xmlns="http://www.w3.org/2000/svg" viewBox="0 0 151 292.37"><defs><style>.cls-1{fill:none;stroke:#717171;stroke-miterlimit:10;stroke-width:2px;}.cls-2{fill:#717171;}</style></defs><title>BioMedTechnik</title><path class="cls-1" d="M65.8-430.1" transform="translate(-24.5 -3.81)"/><path class="cls-2" d="M149.31,148.62V129.5a20.58,20.58,0,0,0-9.37-17.25v-14a11.18,11.18,0,0,0-11.19-11.19h-.13V72.88A161.08,161.08,0,0,0,147.5,57.69c12.81-12.06,19.31-22.81,19.31-31.94A22,22,0,0,0,128,11.69a21.7,21.7,0,0,0-16.75-7.81A22,22,0,0,0,89.31,25.19H81.44v-19H67.56V59.44a7,7,0,0,0,.06,13.87L60.94,129.5H59.19l-7.38-11.87L43.87,129.5H24.5V279.87h93.94V268a17.89,17.89,0,0,0,10.31,3.25,18.31,18.31,0,0,0,10.31-3.19v28.12h1.25V267.06a18.17,18.17,0,0,0,6.56-14V233.75a46.79,46.79,0,0,0,2.44-85.13ZM128.69,88.25a9.92,9.92,0,0,1,9.94,9.94v71.62l-10.06-5.75V88.25A.09.09,0,0,0,128.69,88.25ZM83.38,194.5c-.12-1.25-.19-2.56-.19-3.88A45.85,45.85,0,0,1,109,149.56l.38-.19V129.44a19.24,19.24,0,0,1,8.12-15.75v44.06l-6.44-3.69v17.12l15.38,8.75Zm42.81-13.12L94.88,221.12a45.55,45.55,0,0,1-11.44-25.38Zm-7.44-69.87V98.25a9.91,9.91,0,0,1,8.56-9.81v75l-8.56-4.87V111.5Zm.56,62.94-1.81-1-5.19-2.94V156.31l5.19,2.94,1.25.69,19.87,11.31,1.25.69,3.69,2.12v14.19ZM111.25,5.13a20.46,20.46,0,0,1,16.25,7.94l.5.62.5-.62a20.48,20.48,0,0,1,16.38-8,20.71,20.71,0,0,1,20.69,20.69c0,19.94-33.75,43.44-37.56,46.06-3.81-2.62-37.38-26.25-37.38-45.94A20.63,20.63,0,0,1,111.25,5.13ZM68.81,7.44H80.19v19h9.19c.31,8.87,6.75,19.37,19.19,31.19a166.26,166.26,0,0,0,18.81,15.25V87.19a11.22,11.22,0,0,0-9.81,11.13v14a20.57,20.57,0,0,0-9.37,16.31H99.81c-.62-1-2.62-3.56-7.19-3.56a8.22,8.22,0,0,0-7.31,3.75H77.63l-2.44,22.87L68.94,73.31a6.91,6.91,0,0,0,6.13-6.87,7,7,0,0,0-6.31-6.94V7.44ZM62.5,66.38a5.68,5.68,0,0,1,5.06-5.62c.19,0,.44-.06.62-.06a2.13,2.13,0,0,1,.62.06,5.67,5.67,0,1,1-6.31,5.62Zm54.62,212.25H25.69V130.69H44.5l7.25-10.81,6.75,10.81H62l6.19-51.87,6.37,79.56h1.25l3-28.44h7.25l.19-.38c.06-.12,1.63-3.44,6.37-3.44s6.19,3.06,6.25,3.19l.19.38h9.06v18.87a47,47,0,0,0-26.19,42c0,1.44.06,2.88.19,4.25l-25.94,8.75-2.81-6.38-9,12.38,15.19,1.63-2.81-6.44,25.56-8.62a46.86,46.86,0,0,0,11.81,25.94l-29.5,37.5-5.06-4.62-3.25,14.94,14.56-4.62-5.31-4.87L95,223.06a46.37,46.37,0,0,0,15.62,10.69v19.31A18,18,0,0,0,117.19,267v11.63ZM57.5,209.75l-10.87-1.19,6.44-8.81Zm10.94,55L58,268.06l2.38-10.69Zm60.25,5.19a16.5,16.5,0,0,1-10.31-3.56V243H139v23.44A16.83,16.83,0,0,1,128.69,269.94ZM146,232.75l-.38.19v20.13a16.88,16.88,0,0,1-5.31,12.31V241.75H117.19v23.56a16.84,16.84,0,0,1-5.31-12.25V232.88l-.38-.19A46,46,0,0,1,95.81,222l32.37-41.12,16.75,9.56V173.38L140,170.56V113.75a19.24,19.24,0,0,1,8.12,15.75v19.94l.38.19a45.48,45.48,0,0,1-2.5,83.12Z" transform="translate(-24.5 -3.81)"/><path class="cls-2" d="M128,213.19a4.37,4.37,0,1,0,4.37,4.37A4.35,4.35,0,0,0,128,213.19Zm0,7.5a3.12,3.12,0,1,1,3.12-3.12A3.13,3.13,0,0,1,128,220.69Z" transform="translate(-24.5 -3.81)"/><path class="cls-2" d="M142.5,203.75a4.37,4.37,0,1,0,4.37,4.37A4.35,4.35,0,0,0,142.5,203.75Zm0,7.5a3.12,3.12,0,1,1,3.12-3.12A3.09,3.09,0,0,1,142.5,211.25Z" transform="translate(-24.5 -3.81)"/></svg>