<svg id="Ebene_1" data-name="Ebene 1" xmlns="http://www.w3.org/2000/svg" viewBox="0 0 176.39 290"><defs><style>.cls-1{fill:none;stroke:#717171;stroke-miterlimit:10;stroke-width:2px;}.cls-2{fill:#717171;}</style></defs><title>BWL</title><path class="cls-1" d="M65.8-430.1" transform="translate(-11.8 -5)"/><path class="cls-2" d="M178,195.81H153.39v97.9h-16.2V229.08H112.54v64.63H96.33V162.48H71.69V293.71h-17v-97.9H30v97.9H13.28V110.85L88.69,51.39l42.08,69.43,28.4-26.55,4.74,5.11L168,85.89l.12-.12-.06-.06.62-2.09-16.08,3.7,5.61,6L131,118.92l-42-69.31-75.9,59.7V22.56L34.6,6.23H67.75l29.7,29.7H125l18.3-18.3h27.48l16.51,16.51.86-.86L171.31,16.4H142.79l-18.3,18.3H97.87L68.18,5H34.11L11.8,22V295H187.64v-1.23h-9.86v-98ZM155.11,88.05,167,85.34h.06l-.74,2.34L163.43,97l-3.33-3.57-.86-.92Zm-124,205.66V197H53.33v96.67Zm41.71,0v-130H95v130Zm40.85,0v-63.4h22.18v63.4Zm40.85,0V197h22.18v96.67Z" transform="translate(-11.8 -5)"/><path class="cls-2" d="M170.45,153.85A11.77,11.77,0,1,0,161,149L135,169.93a11.67,11.67,0,0,0-17.31-3.64L90.6,122.24a11.66,11.66,0,0,0,5.05-9.67,11.77,11.77,0,1,0-21.44,6.65L51.17,137A11.75,11.75,0,1,0,54,144.67,11.84,11.84,0,0,0,51.91,138L75,120.21A11.72,11.72,0,0,0,84,124.34a11.48,11.48,0,0,0,5.61-1.42l27.23,44.24a11.77,11.77,0,1,0,19.84,8.56,11.38,11.38,0,0,0-.92-4.56l26.12-21.07A11.7,11.7,0,0,0,170.45,153.85ZM52.78,144.67a10.56,10.56,0,1,1-2.59-6.9,5.88,5.88,0,0,1,.74,1A10.51,10.51,0,0,1,52.78,144.67Zm36.17-22.8a10.5,10.5,0,0,1-5,1.23A10.64,10.64,0,0,1,76,119.47a5.88,5.88,0,0,1-.74-1,10.21,10.21,0,0,1-1.85-5.91A10.54,10.54,0,1,1,90,121.2,10,10,0,0,1,88.94,121.87Zm46.39,53.79a10.54,10.54,0,1,1-21.07,0,10.33,10.33,0,0,1,3.14-7.45,10.71,10.71,0,0,1,.92-.8,10.28,10.28,0,0,1,6.47-2.22,10.59,10.59,0,0,1,9.3,5.61,6.68,6.68,0,0,1,.49,1.17A9.21,9.21,0,0,1,135.33,175.66Zm24.58-33.52a10.54,10.54,0,1,1,10.54,10.54,10.42,10.42,0,0,1-7.7-3.39,10.71,10.71,0,0,1-.8-.92A10.59,10.59,0,0,1,159.92,142.14Z" transform="translate(-11.8 -5)"/></svg>