<svg id="Ebene_1" data-name="Ebene 1" xmlns="http://www.w3.org/2000/svg" viewBox="0 0 179.91 288.53"><defs><style>.cls-1{fill:none;stroke:#717171;stroke-miterlimit:10;stroke-width:2px;}.cls-2{fill:#717171;}</style></defs><title>ElektroTechnik</title><path class="cls-1" d="M65.8-430.1" transform="translate(-10.05 -5.73)"/><rect class="cls-2" x="52.22" y="81.15" width="1.27" height="15.45"/><rect class="cls-2" x="79.57" y="115.91" width="15.45" height="1.27"/><rect class="cls-2" x="8.99" y="115.91" width="15.45" height="1.27"/><rect class="cls-2" x="39.11" y="95.51" width="1.27" height="15.45" transform="translate(-71.4 52.61) rotate(-45)"/><rect class="cls-2" x="76.96" y="102.58" width="15.45" height="1.27" transform="translate(-58.23 84.38) rotate(-45)"/><path class="cls-2" d="M44.48,128.73l1.2.32a17.27,17.27,0,0,1,16.65-12.79h.57L63,115h-.63A18.56,18.56,0,0,0,44.48,128.73Z" transform="translate(-10.05 -5.73)"/><path class="cls-2" d="M77,226.09v-50.2H93.8V163H86.71V132.34a24.43,24.43,0,1,0-48.87,0V163h-7v12.91H47.14v24.06h1.27V175.89H75.69v50.2H77ZM39.17,132.28a23.17,23.17,0,0,1,46.34,0v30.64H39.17V132.28Zm-7,42.35V164.24H92.59v10.38Z" transform="translate(-10.05 -5.73)"/><path class="cls-2" d="M167.61,178l-.19,1.27c12.72,2,21.33,6.52,21.33,11.2,0,6.71-16.78,12.34-36.59,12.34s-36.59-5.63-36.59-12.34c0-4.43,7.6-8.67,19.31-10.82l-.25-1.27c-12.53,2.34-20.38,7-20.38,12.09,0,7.6,16.65,13.61,37.86,13.61s37.86-6,37.86-13.61C190,185,181.41,180.2,167.61,178Z" transform="translate(-10.05 -5.73)"/><rect class="cls-2" x="141.42" y="172.94" width="1.27" height="12.41"/><path class="cls-2" d="M190,161.39c0-5.19-7.85-9.81-20.45-12.09l-.25,1.27c11.77,2.15,19.43,6.39,19.43,10.89,0,6.71-16.78,12.34-36.59,12.34s-36.59-5.63-36.59-12.34c0-4.43,7.6-8.67,19.31-10.82l-.25-1.27c-12.53,2.34-20.38,7-20.38,12.09,0,7.6,16.65,13.61,37.86,13.61S190,169.05,190,161.39Z" transform="translate(-10.05 -5.73)"/><rect class="cls-2" x="141.42" y="143.89" width="1.27" height="12.41"/><path class="cls-2" d="M167.61,207.42l-.19,1.27c12.72,2,21.33,6.52,21.33,11.2,0,6.71-16.78,12.34-36.59,12.34s-36.59-5.63-36.59-12.34c0-4.43,7.6-8.67,19.31-10.82l-.25-1.27c-12.53,2.34-20.38,7-20.38,12.09,0,7.6,16.65,13.61,37.86,13.61s37.86-6,37.86-13.61C190,214.32,181.41,209.57,167.61,207.42Z" transform="translate(-10.05 -5.73)"/><rect class="cls-2" x="141.42" y="202.25" width="1.27" height="12.41"/><path class="cls-2" d="M110.57,106.51a7,7,0,0,0,4.81-1.9,6.89,6.89,0,0,0,2.28-4.62h11V71.63H151.4V109a16.27,16.27,0,0,0-15.64,16.27v16.27h32.6V125.25A16.31,16.31,0,0,0,152.73,109V56.12h11.08V92.46h11.33l3.54,6.71a3.59,3.59,0,0,0-.95.76,7.18,7.18,0,0,0,4.81,12.47,7.12,7.12,0,0,0,.25-14.24,6.21,6.21,0,0,0-3,.57l-3.86-7.41H165.08V56.25h11.08V7H127V30.23H82.91V5.73H81.64V30.42L62.27,19.22v11H52A42,42,0,0,0,10,72.07V294.27h90.27a8,8,0,0,0,0-16.08H35.75a6.77,6.77,0,0,1,0-13.55h64.51a8,8,0,0,0,0-16.08H35.75a6.77,6.77,0,0,1,0-13.55H55a8.05,8.05,0,0,0,8-8V211.72H61.77V227A6.78,6.78,0,0,1,55,233.75H35.75a8,8,0,0,0,0,16.08h64.51a6.77,6.77,0,0,1,0,13.55H35.75a8,8,0,0,0,0,16.08h64.51a6.77,6.77,0,0,1,0,13.55h-89V72.07A40.69,40.69,0,0,1,51.89,31.43H62.21v11L81.64,31.24V56.88h1.27V31.5H127V56.12H151.4V70.37h-24V98.72h-9.69a7.15,7.15,0,0,0-1.84-4.18h0a7.19,7.19,0,0,0-10.13-.44,7.11,7.11,0,0,0-.38,10.07A6.76,6.76,0,0,0,110.57,106.51Zm69.82-6.84a6.16,6.16,0,0,1,2.15-.38h.25a6,6,0,0,1,4.11,1.9h0a5.76,5.76,0,0,1,1.52,4.24,6,6,0,0,1-1.9,4.11,5.87,5.87,0,0,1-7.91-8.67,6.73,6.73,0,0,1,.7-.57A6,6,0,0,1,180.39,99.67ZM63.54,40.23V21.43L79.81,30.8ZM128.3,54.86V8.26h46.59V54.86Zm38.8,70.46v15h-30v-15a15,15,0,0,1,30,0ZM106.58,95a5.93,5.93,0,0,1,4-1.52,6,6,0,0,1,4.37,1.9h0A5.75,5.75,0,0,1,116.46,99v.7a5.68,5.68,0,0,1-1.9,4,5.83,5.83,0,0,1-8.29-.38A5.76,5.76,0,0,1,104.75,99,5.63,5.63,0,0,1,106.58,95Z" transform="translate(-10.05 -5.73)"/><path class="cls-2" d="M152.73,278.31v-41h-1.27v41a6.82,6.82,0,0,0-4.18,1.84,7.18,7.18,0,0,0,4.81,12.47,7.12,7.12,0,0,0,5.19-12A6.69,6.69,0,0,0,152.73,278.31Zm3.36,11.46a5.52,5.52,0,0,1-4.24,1.52,6,6,0,0,1-4.11-1.9,5.83,5.83,0,0,1,.38-8.29,5.76,5.76,0,0,1,4-1.58h.25a6,6,0,0,1,4.11,1.9,5.76,5.76,0,0,1,1.52,4.24A5.86,5.86,0,0,1,156.09,289.77Z" transform="translate(-10.05 -5.73)"/><path class="cls-2" d="M138.11,45h27v-27h-27Zm1.27-25.7h24.43V43.78H139.37Z" transform="translate(-10.05 -5.73)"/></svg>