<svg id="Ebene_1" data-name="Ebene 1" xmlns="http://www.w3.org/2000/svg" viewBox="0 0 196 256.69"><defs><style>.cls-1{fill:none;stroke:#717171;stroke-miterlimit:10;stroke-width:2px;}.cls-2{fill:#717171;}</style></defs><title>EnergieSystemTechnik</title><path class="cls-1" d="M65.8-430.1" transform="translate(-2 -21.65)"/><polygon class="cls-2" points="40.57 112.85 35.95 112.85 35.95 108.22 35.4 108.22 34.86 108.22 34.86 112.85 30.24 112.85 30.24 113.94 34.86 113.94 34.86 118.56 35.4 118.56 35.95 118.56 35.95 113.94 40.57 113.94 40.57 112.85"/><rect class="cls-2" x="30.24" y="178.49" width="10.28" height="1.09"/><path class="cls-2" d="M178.53,176.32a47,47,0,0,0-19.8-3.86,47.17,47.17,0,0,0-19.8,3.86,46.48,46.48,0,0,1-19.42,3.75h-1.31V131.51a44.4,44.4,0,0,0,15.88-3.15l8.21,19.85.49-.22.49-.22-8.16-19.85.33-.16a43.21,43.21,0,0,0,13.11-8.86l15.17,15.17.76-.76-15.17-15.12a44.4,44.4,0,0,0,9-13.43L178.15,113l.44-1-19.85-8.21a43.73,43.73,0,0,0,3.15-15.88h21.48V86.81H161.89a44.4,44.4,0,0,0-3.15-15.88l19.85-8.21-.22-.49-.22-.49L158.3,69.95a.77.77,0,0,1-.11-.33,44.51,44.51,0,0,0-8.86-13.16L164.5,41.29l-.76-.76L148.62,55.64a44,44,0,0,0-13.49-9l8.21-19.85-.49-.22-.49-.22-8.21,19.85a.77.77,0,0,0-.33-.11,44.2,44.2,0,0,0-15.55-3V21.65h-1.09V43.08a43.79,43.79,0,0,0-15.88,3.21L93.09,26.44l-1,.44,8.21,19.8a.77.77,0,0,1-.33.11,44.51,44.51,0,0,0-13.16,8.86L71.67,40.47l-.38.38-.38.38L86.08,56.41a44,44,0,0,0-9,13.49L57.25,61.68l-.44,1,19.85,8.21a.77.77,0,0,0-.11.33,44.2,44.2,0,0,0-3,15.55H52.09v1.09H73.51a44.88,44.88,0,0,0,3.15,15.88l-19.85,8.21.44,1L77.1,104.7a.77.77,0,0,1,.11.33,43.21,43.21,0,0,0,8.86,13.11L70.9,133.3l.38.38.38.38,15.17-15.17a44.4,44.4,0,0,0,13.43,9l-8.21,19.85.49.22.49.22,8.21-19.85a43.73,43.73,0,0,0,15.88,3.15V180a45.29,45.29,0,0,1-17-3.7,47,47,0,0,0-19.8-3.86,47.17,47.17,0,0,0-19.8,3.86,52.83,52.83,0,0,1-9.46,2.94V129.39a6.48,6.48,0,0,0-4.79-6.25v-2.28A2.9,2.9,0,0,0,43.44,118H37.89V96.54a9.16,9.16,0,1,0-1,0V118H31.31a2.9,2.9,0,0,0-2.88,2.88v2.28a6.54,6.54,0,0,0-4.79,6.25V177c-.6-.22-1.25-.49-1.85-.71A47,47,0,0,0,2,172.46v1.09a46.68,46.68,0,0,1,19.42,3.75c.76.27,1.47.6,2.23.87v32.25H36.81v19.47a9.2,9.2,0,1,0,9.73,9.73h70.64V260a9.19,9.19,0,1,0,1.09,0V239.62h58.35v-1.09H118.27V181.16h1.31a47.17,47.17,0,0,0,19.8-3.86,46.48,46.48,0,0,1,19.42-3.75,46.48,46.48,0,0,1,19.42,3.75,47,47,0,0,0,19.8,3.86v-1.09A46.57,46.57,0,0,1,178.53,176.32Zm-77.82-49.44a43.09,43.09,0,0,1-13.11-8.7l-.38-.38-.38-.38a43.07,43.07,0,0,1-8.65-12.78c-.05-.11-.05-.22-.11-.33s-.16-.33-.22-.49-.16-.33-.22-.49a42.52,42.52,0,0,1-3.1-15.45V86.81a42.33,42.33,0,0,1,3-15.17.77.77,0,0,0,.11-.33c.05-.16.16-.33.22-.49s.16-.33.22-.49a43.1,43.1,0,0,1,8.7-13.11l.38-.38.38-.38a41.54,41.54,0,0,1,12.83-8.59c.11-.05.22-.05.33-.11s.33-.16.49-.22.33-.16.49-.22a42.52,42.52,0,0,1,15.45-3.1h1.09a42.33,42.33,0,0,1,15.17,3,.77.77,0,0,0,.33.11c.16.05.33.16.49.22s.33.16.49.22a43.1,43.1,0,0,1,13.11,8.7l.38.38.38.38a41.54,41.54,0,0,1,8.59,12.83c.05.11.05.22.11.33s.16.33.22.49.16.33.22.49a43,43,0,0,1,3.1,15.45v1.09a42.75,42.75,0,0,1-3.1,15.45c-.05.16-.16.33-.22.49s-.16.33-.22.49a43.09,43.09,0,0,1-8.7,13.11l-.38.38-.38.38A43.07,43.07,0,0,1,135,126.83c-.11.05-.22.05-.33.11a1.93,1.93,0,0,0-.49.22c-.16.05-.33.16-.49.22a43,43,0,0,1-15.45,3.1h-1.09a42.75,42.75,0,0,1-15.45-3.1c-.16-.05-.33-.16-.49-.22A2.54,2.54,0,0,0,100.71,126.89ZM29.3,87.3a8.1,8.1,0,1,1,8.59,8.1h-.54a1.85,1.85,0,0,1-.54-.05A8,8,0,0,1,29.3,87.3Zm80.27,181.86a8.14,8.14,0,0,1,7.56-8.1c.16,0,.38-.05.54-.05a1.85,1.85,0,0,1,.54.05,8.11,8.11,0,1,1-8.65,8.1Zm-84.78-90.6a46.24,46.24,0,0,0,16.48,2.61,50.72,50.72,0,0,0,8.81-.65v28.82H24.79Zm0-49.16A5.45,5.45,0,0,1,30.23,124H44.64a5.45,5.45,0,0,1,5.44,5.44v50.09a56.73,56.73,0,0,1-8.81.65,46,46,0,0,1-16.48-2.66Zm4.73-6.53V120.8A1.81,1.81,0,0,1,31.31,119H43.55a1.81,1.81,0,0,1,1.79,1.79v2.07H29.52Zm16,116.22a1.85,1.85,0,0,1-.05.54A8.11,8.11,0,1,1,36.81,231c.16,0,.38-.05.54-.05h.54a8.13,8.13,0,0,1,7.56,7.56A2.44,2.44,0,0,1,45.51,239.08Zm71.68-.54H46.59a9.26,9.26,0,0,0-8.65-8.65V210.42H51.16V180.29a56.69,56.69,0,0,0,9.9-3,46.48,46.48,0,0,1,19.42-3.75,46.68,46.68,0,0,1,19.42,3.75,46,46,0,0,0,17.4,3.81v57.43Z" transform="translate(-2 -21.65)"/></svg>