<svg id="Ebene_1" data-name="Ebene 1" xmlns="http://www.w3.org/2000/svg" viewBox="0 0 199 291"><defs><style>.cls-1,.cls-2{fill:none;}.cls-1{stroke:#717171;stroke-miterlimit:10;stroke-width:2px;}.cls-3{fill:#717171;}</style></defs><title>EngineeringMng</title><path class="cls-1" d="M65.8-430.1" transform="translate(-1 -5.6)"/><path class="cls-2" d="M106.29,156.37a7.7,7.7,0,0,1,1.56-1l-13.7-35.6a53.25,53.25,0,0,0-5.22,2.58l-.41.2L66.42,106.46l-9.7,8.88,14.44,24-.2.34a47.53,47.53,0,0,0-2.71,5.22L103,160.3A13,13,0,0,1,106.29,156.37Z" transform="translate(-1 -5.6)"/><path class="cls-2" d="M118,156.57a9.6,9.6,0,0,0-1.22-.54,7.84,7.84,0,0,0-2.17-.54,8.2,8.2,0,0,0-1.29-.07,9.5,9.5,0,0,0-3.66.68l-1.22.61a6.37,6.37,0,0,0-1.22.81,10.37,10.37,0,0,0-2.78,3.39,9.6,9.6,0,0,0-.54,1.22,11,11,0,0,0-.47,2,8.94,8.94,0,0,0,.2,3.8,4.73,4.73,0,0,0,.41,1.29,11.88,11.88,0,0,0,1.36,2.37,10.39,10.39,0,0,0,3.25,2.71,9.61,9.61,0,0,0,1.22.54,7.84,7.84,0,0,0,2.17.54,10.22,10.22,0,0,0,3.53-.2l1.29-.41a10.06,10.06,0,0,0,5.29-4.61,5.2,5.2,0,0,0,.47-1.15,12.8,12.8,0,0,0,.61-2.31,10.18,10.18,0,0,0-1.08-6A10.13,10.13,0,0,0,118,156.57Z" transform="translate(-1 -5.6)"/><path class="cls-2" d="M71.71,256.25a7.84,7.84,0,0,0-2.17-.54,8.21,8.21,0,0,0-1.29-.07,10.13,10.13,0,0,0-10,8.82,9.86,9.86,0,0,0,2,7.46,10.09,10.09,0,1,0,12.61-15.12A9.61,9.61,0,0,0,71.71,256.25Z" transform="translate(-1 -5.6)"/><path class="cls-2" d="M114.7,154.06a11.1,11.1,0,0,1,2.58.68l15.53-34.65a49.64,49.64,0,0,0-6.31-2.24l-.41-.14-4.27-27.06-13.15-.61L102,117.24l-.41.07a48.83,48.83,0,0,0-6.1,1.9l13.63,35.53A11.26,11.26,0,0,1,114.7,154.06Z" transform="translate(-1 -5.6)"/><path class="cls-2" d="M123.38,160.17l35.46-13.9a51.55,51.55,0,0,0-2.51-5.15l-.2-.41L172.2,118.6l-8.88-9.7-24,14.44-.34-.2a49.06,49.06,0,0,0-5-2.58L118.5,155.28A12.09,12.09,0,0,1,123.38,160.17Z" transform="translate(-1 -5.6)"/><path class="cls-2" d="M173.76,31.6a7.84,7.84,0,0,0,2.17.54,10.09,10.09,0,0,0,2.64-20,8.21,8.21,0,0,0-1.29-.07,10.1,10.1,0,0,0-4.75,19A9.61,9.61,0,0,0,173.76,31.6Z" transform="translate(-1 -5.6)"/><path class="cls-2" d="M16,111.89a8.21,8.21,0,0,0-1.29-.07,10.13,10.13,0,0,0-10,8.82,10.05,10.05,0,0,0,16.14,9.22,13.12,13.12,0,0,0,2.85-3.25,9.61,9.61,0,0,0,.54-1.22,7.84,7.84,0,0,0,.54-2.17,9.86,9.86,0,0,0-2-7.46A10.09,10.09,0,0,0,16,111.89Z" transform="translate(-1 -5.6)"/><path class="cls-2" d="M65.54,18.31A10.15,10.15,0,0,0,56.79,7a8.21,8.21,0,0,0-1.29-.07A10.13,10.13,0,0,0,49.33,9a9.94,9.94,0,0,0-3.87,6.71,10.15,10.15,0,0,0,8.75,11.32,9.14,9.14,0,0,0,4.27-.41l1.29-.47A10.17,10.17,0,0,0,65.54,18.31Z" transform="translate(-1 -5.6)"/><path class="cls-2" d="M162.57,153,190,159.83l-.68,15.39-27.26,4.27a57.81,57.81,0,0,1-2.17,6L200,203.28V131.69l-39.33,15.39A61,61,0,0,1,162.57,153Z" transform="translate(-1 -5.6)"/><path class="cls-2" d="M117.28,176.1l13.56,35.46a53.56,53.56,0,0,0,6.65-3.12l.41-.2L160,224.38l9.76-8.88-14.44-24,.2-.34a43.71,43.71,0,0,0,2.58-5l-34.79-15.39A11.12,11.12,0,0,1,117.28,176.1Z" transform="translate(-1 -5.6)"/><path class="cls-2" d="M102,164a12.85,12.85,0,0,1,.61-2.44L67.78,146.13a44.39,44.39,0,0,0-2.1,6l-.14.41-27.06,4.27-.61,13.15,27.19,6.78.07.41a38.55,38.55,0,0,0,1.63,5.22l35.46-13.9A12.38,12.38,0,0,1,102,164Z" transform="translate(-1 -5.6)"/><path class="cls-2" d="M161,178.27l.41-.07L188,174l.61-13.15-27.19-6.71-.07-.41c-.54-2.1-1.22-4.14-2-6.17l-35.46,13.83a10.74,10.74,0,0,1,.68,5.49,11.66,11.66,0,0,1-.68,2.64l34.79,15.39a61.46,61.46,0,0,0,2.17-6.24Z" transform="translate(-1 -5.6)"/><path class="cls-2" d="M113.28,176.78a10.5,10.5,0,0,1-1.49-.07,11.1,11.1,0,0,1-2.58-.68L93.68,210.75A49.64,49.64,0,0,0,100,213l.41.14,4.27,27.06,13.15.61,6.71-27.19.41-.07a47.53,47.53,0,0,0,4.75-1.49L116,176.44A11.88,11.88,0,0,1,113.28,176.78Z" transform="translate(-1 -5.6)"/><path class="cls-2" d="M104.19,172.37a10.84,10.84,0,0,1-1.56-2.71L67.17,183.49a57.26,57.26,0,0,0,3,6.17l.2.41L54.21,212.18l9,9.76,24-14.44.34.2a41.81,41.81,0,0,0,4.88,2.58L108,175.49A10.56,10.56,0,0,1,104.19,172.37Z" transform="translate(-1 -5.6)"/><path class="cls-3" d="M159.93,185.53a57.81,57.81,0,0,0,2.17-6l27.26-4.27.68-15.39L162.57,153a61,61,0,0,0-1.9-6L200,131.69v-1.49l-39.87,15.59a47.25,47.25,0,0,0-2.37-4.95L174,118.53l-10.44-11.32-24.21,14.58c-1.49-.88-3.12-1.76-4.68-2.51l38.65-86.46a11.1,11.1,0,0,0,2.58.68,11,11,0,0,0,1.49.07A11.44,11.44,0,1,0,166,20.69a11.23,11.23,0,0,0,2.31,8.48,10.56,10.56,0,0,0,3.8,3.12l-38.65,86.46a64,64,0,0,0-6-2.17l-4.27-27.26-15.39-.68-6.78,27.46A49.64,49.64,0,0,0,95,118L60.18,27.47a11.51,11.51,0,0,0,6.65-9A11.23,11.23,0,0,0,64.52,10,11.35,11.35,0,0,0,56.93,5.7,11.23,11.23,0,0,0,48.45,8a11.35,11.35,0,0,0-4.34,7.59,11.23,11.23,0,0,0,2.31,8.48A11.35,11.35,0,0,0,54,28.42a10.5,10.5,0,0,0,1.49.07A11.54,11.54,0,0,0,59,27.94l34.79,90.52c-1.7.75-3.39,1.56-5,2.44L66.42,104.63,55,115l14.58,24.28a43.71,43.71,0,0,0-2.58,5L25.4,125.86a11,11,0,0,0,.61-2.58,11.23,11.23,0,0,0-2.31-8.48,11.35,11.35,0,0,0-7.59-4.34,11.23,11.23,0,0,0-8.48,2.31,11.35,11.35,0,0,0-4.34,7.59,11.49,11.49,0,0,0,9.9,12.82,11,11,0,0,0,1.49.07,11.47,11.47,0,0,0,10.17-6.17l41.63,18.44a44.79,44.79,0,0,0-2,5.76L37.2,155.56l-.68,15.39L64,177.8a41.93,41.93,0,0,0,1.56,4.95L1,208v1.48L65.88,184.1a53.23,53.23,0,0,0,2.85,6L52.45,212.38l10.44,11.39,24.28-14.58a50.78,50.78,0,0,0,4.68,2.44L72.39,255a11.1,11.1,0,0,0-2.58-.68A11.49,11.49,0,0,0,57,264.25a11.23,11.23,0,0,0,2.31,8.48,11.35,11.35,0,0,0,7.59,4.34,11,11,0,0,0,1.49.07,11.39,11.39,0,0,0,11.32-10,11.55,11.55,0,0,0-6-11.6L93.14,212a59,59,0,0,0,6.1,2.17l4.27,27.26,15.39.68,6.78-27.46c1.49-.41,3-.81,4.48-1.36L162.1,296.6l1.29-.47-31.94-83.2a50,50,0,0,0,6.44-3l22.31,16.27,11.39-10.37L157,191.56a45.45,45.45,0,0,0,2.51-4.75L200,204.75v-1.47Zm9.43-157.18a10.09,10.09,0,0,1,7.93-16.27,8.21,8.21,0,0,1,1.29.07,10.09,10.09,0,0,1-2.64,20,7.84,7.84,0,0,1-2.17-.54,9.61,9.61,0,0,1-1.22-.54A10.15,10.15,0,0,1,169.35,28.35ZM58.49,26.65a9.14,9.14,0,0,1-4.27.41,10.15,10.15,0,0,1-8.75-11.32A9.94,9.94,0,0,1,49.33,9a10.13,10.13,0,0,1,6.17-2.1A8.21,8.21,0,0,1,56.79,7a10.11,10.11,0,0,1,3,19.19Zm-33.7,96.56a7.84,7.84,0,0,1-.54,2.17,9.61,9.61,0,0,1-.54,1.22,13.12,13.12,0,0,1-2.85,3.25,10.06,10.06,0,1,1-6.1-18,8.21,8.21,0,0,1,1.29.07,10.09,10.09,0,0,1,6.71,3.87A9.86,9.86,0,0,1,24.79,123.21ZM78.35,267a10.1,10.1,0,0,1-18,4.88,9.86,9.86,0,0,1-2-7.46,10.13,10.13,0,0,1,10-8.82,8.21,8.21,0,0,1,1.29.07,7.84,7.84,0,0,1,2.17.54,9.61,9.61,0,0,1,1.22.54A10.13,10.13,0,0,1,78.35,267ZM134,120.57a49.06,49.06,0,0,1,5,2.58l.34.2,24-14.44,8.88,9.7-16.07,22.11.2.41a51.55,51.55,0,0,1,2.51,5.15l-35.46,13.9a12.09,12.09,0,0,0-4.88-4.88Zm-10.85,46.18a12.8,12.8,0,0,1-.61,2.31,5.2,5.2,0,0,1-.47,1.15,10.06,10.06,0,0,1-5.29,4.61l-1.29.41a10.22,10.22,0,0,1-3.53.2,7.84,7.84,0,0,1-2.17-.54,9.61,9.61,0,0,1-1.22-.54,10.39,10.39,0,0,1-3.25-2.71,11.88,11.88,0,0,1-1.36-2.37,4.73,4.73,0,0,1-.41-1.29,8.94,8.94,0,0,1-.2-3.8,11,11,0,0,1,.47-2,9.6,9.6,0,0,1,.54-1.22,10.37,10.37,0,0,1,2.78-3.39,6.37,6.37,0,0,1,1.22-.81l1.22-.61a9.5,9.5,0,0,1,3.66-.68,8.2,8.2,0,0,1,1.29.07,7.84,7.84,0,0,1,2.17.54,9.6,9.6,0,0,1,1.22.54,10.13,10.13,0,0,1,4.14,4.14,10.18,10.18,0,0,1,1.08,6Zm-21.63-49.43.41-.07,6.71-27.19,13.15.61,4.27,27.06.41.14a49.64,49.64,0,0,1,6.31,2.24l-15.53,34.65a11.1,11.1,0,0,0-2.58-.68,11.26,11.26,0,0,0-5.63.68L95.44,119.21A48.83,48.83,0,0,1,101.54,117.31ZM71,139.69l.2-.34-14.44-24,9.7-8.88,22.11,16.07.41-.2a53.25,53.25,0,0,1,5.22-2.58l13.7,35.6a7.7,7.7,0,0,0-1.56,1A13,13,0,0,0,103,160.3L68.25,144.91A47.53,47.53,0,0,1,71,139.69Zm-5.83,37.43-.07-.41-27.19-6.78.61-13.15,27.06-4.27.14-.41a44.39,44.39,0,0,1,2.1-6l34.79,15.39A12.85,12.85,0,0,0,102,164a12.38,12.38,0,0,0,.27,4.48l-35.46,13.9A38.55,38.55,0,0,1,65.13,177.12Zm27.26,33.16a41.81,41.81,0,0,1-4.88-2.58l-.34-.2-24,14.44-9-9.76,16.14-22.11-.2-.41a57.26,57.26,0,0,1-3-6.17l35.46-13.83a10.84,10.84,0,0,0,1.56,2.71,10.56,10.56,0,0,0,3.8,3.12Zm32.55,3.25-.41.07-6.71,27.19-13.15-.61-4.27-27.06L100,213a49.64,49.64,0,0,1-6.31-2.24L109.21,176a11.1,11.1,0,0,0,2.58.68,10.5,10.5,0,0,0,1.49.07,11.88,11.88,0,0,0,2.71-.34l13.7,35.6A47.53,47.53,0,0,1,124.94,213.53Zm30.58-22.38-.2.34,14.44,24L160,224.38l-22.11-16.14-.41.2a53.56,53.56,0,0,1-6.65,3.12L117.28,176.1a11.12,11.12,0,0,0,6-5.36l34.79,15.39A43.71,43.71,0,0,1,155.52,191.16Zm3.19-6.24-34.79-15.39a11.66,11.66,0,0,0,.68-2.64,10.74,10.74,0,0,0-.68-5.49l35.46-13.83c.75,2,1.42,4.07,2,6.17l.07.41,27.19,6.71L188,174l-26.58,4.2-.41.07-.14.41A61.46,61.46,0,0,1,158.71,184.92Z" transform="translate(-1 -5.6)"/></svg>