<svg id="Ebene_1" data-name="Ebene 1" xmlns="http://www.w3.org/2000/svg" viewBox="0 0 193 291.62"><defs><style>.cls-1{fill:#717171;}</style></defs><title>FSTM</title><path class="cls-1" d="M196.5,83H109.05a82,82,0,0,0-6-27.29h16.31V54.46H102.5a82.67,82.67,0,0,0-76-50.27H3.5V185.44h.39V186c6.16,0,9.12,1.73,12.33,3.6a22.42,22.42,0,0,0,13,3.72c6.48,0,9.76-1.93,13-3.72A21,21,0,0,1,54.48,186c6.16,0,9.12,1.73,12.33,3.6a22.42,22.42,0,0,0,13,3.72A23.26,23.26,0,0,0,88,192a53.41,53.41,0,0,0-11,13.8c-4.37-.45-6.87-1.93-9.57-3.4a22.42,22.42,0,0,0-13-3.72c-6.48,0-9.76,1.93-13,3.72A21,21,0,0,1,29.18,206c-6.16,0-9.12-1.73-12.33-3.6a22.42,22.42,0,0,0-13-3.72V200c6.16,0,9.12,1.73,12.33,3.6a22.42,22.42,0,0,0,13,3.72c6.48,0,9.76-1.93,13-3.72A21,21,0,0,1,54.48,200c6.16,0,9.12,1.73,12.33,3.6a22.78,22.78,0,0,0,9.57,3.53,49.67,49.67,0,0,0-4.24,11.56,31.83,31.83,0,0,1-4.69-2.31,22.42,22.42,0,0,0-13-3.72c-6.48,0-9.76,1.93-13,3.72a21,21,0,0,1-12.33,3.6c-6.16,0-9.12-1.73-12.33-3.6a22.42,22.42,0,0,0-13-3.72v1.28c6.16,0,9.12,1.73,12.33,3.6a22.42,22.42,0,0,0,13,3.72c6.48,0,9.76-1.93,13-3.72a21,21,0,0,1,12.33-3.6c6.16,0,9.12,1.73,12.33,3.6a30.36,30.36,0,0,0,5,2.5,49.17,49.17,0,0,0-1,8.73,35,35,0,0,0-16.12-3.92A35.51,35.51,0,1,0,89,269.49a51.17,51.17,0,1,0,39.23-89.89V169.52h11.94v-9.82H103.66v9.82H115.6V179.6a51.17,51.17,0,0,0-22.21,8.28c-.45.26-1,.51-1.41.77a21,21,0,0,1-12.33,3.6c-6.16,0-9.12-1.73-12.33-3.6a22.42,22.42,0,0,0-13-3.72c-6.48,0-9.76,1.93-13,3.72a21,21,0,0,1-12.33,3.6c-6.16,0-9.12-1.73-12.33-3.6a22.86,22.86,0,0,0-12-3.72V172.21l26.84-6.16a42.53,42.53,0,0,0,63.82-14.7l13.16-3,.51-.13V97l20.29,8a14.14,14.14,0,0,0-.83,5A15.08,15.08,0,0,0,143,125.15V131h-3.85V143.9h9.05V131H144.3v-5.84a15.13,15.13,0,1,0-14.45-21.32l-20.74-8.22V87c0-.83,0-1.61-.06-2.44H196.5V83Zm-141.89,211a34,34,0,1,1,16.12-63.88h0a51,51,0,0,0,17,38A34.16,34.16,0,0,1,54.61,294.08ZM104.94,168v-7.26h33.9V168h-33.9Zm11.94,1.28h10v10c-1.67-.13-3.34-.26-5-.26a43.61,43.61,0,0,0-5,.26v-10Zm-.45,11.3a46.55,46.55,0,0,1,10.91,0,49.9,49.9,0,1,1-38.07,87.32c-.45-.39-.9-.77-1.28-1.16A49.83,49.83,0,0,1,72.07,230.9v-1.73a52.79,52.79,0,0,1,1-9.05c.06-.45.19-.83.26-1.22a50.12,50.12,0,0,1,4.37-11.81,7.56,7.56,0,0,1,.71-1.22,50.64,50.64,0,0,1,22.21-20.8A47.47,47.47,0,0,1,116.44,180.56Zm30.5-48.41v10.34h-6.48V132.15ZM143.66,96a13.84,13.84,0,0,1,.64,27.67c-.19,0-.45.06-.64.06a2.18,2.18,0,0,1-.64-.06,13.88,13.88,0,0,1-13.23-13.8,13,13,0,0,1,.77-4.49c.13-.39.32-.83.45-1.22A14,14,0,0,1,143.66,96ZM107.77,83h-29L90.31,55.75h11.36A80.54,80.54,0,0,1,107.77,83ZM4.85,170.67V81H30.34V79.76H4.85V68.52H30.34V67.24H4.85V56H51.78V54.72H4.85V43.42H30.34V42.14H4.85V30.9H30.34V29.62H4.85V5.47H26.61a81.32,81.32,0,0,1,74.54,49H63.34v1.28H89L73.42,92.54a42.56,42.56,0,0,0-43,72.29Zm52.65,2.63a40.94,40.94,0,0,1-24.14-7.83c-.45-.32-.9-.64-1.35-1a41.24,41.24,0,0,1,40.9-70.69l-13.55,32.1a6.08,6.08,0,0,0-1.93-.26,6.48,6.48,0,1,0,6.48,6.48,6.36,6.36,0,0,0-3.4-5.65l13.55-32.1a41.33,41.33,0,0,1,24.65,37.75,40.51,40.51,0,0,1-4.17,18c-.26.51-.51,1-.77,1.48A41.24,41.24,0,0,1,57.5,173.31Zm2.57-45.78a5.21,5.21,0,1,1-2.63-.71,5,5,0,0,1,1.41.19A7,7,0,0,1,60.06,127.53ZM107.83,147l-11.62,2.7A42.53,42.53,0,0,0,74.64,93.05l3.6-8.54L107.9,96.26V147Zm0-60.22v8.15L81.19,84.32h26.58C107.83,85.15,107.83,86,107.83,86.76Z" transform="translate(-3.5 -4.19)"/><path class="cls-1" d="M89.21,203.8c-.51.64-1,1.35-1.54,2.05a41.17,41.17,0,0,0-6.42,13.8c-.13.45-.19.9-.32,1.28a43.26,43.26,0,0,0-1,9.18,38.09,38.09,0,0,0,.39,5.39c.13.9.26,1.86.45,2.76a41.3,41.3,0,0,0,7.58,17c.58.77,1.16,1.48,1.73,2.18A42,42,0,1,0,122,188.2c-1.41,0-2.76.06-4.11.19-.71.06-1.41.13-2.12.26A41.65,41.65,0,0,0,89.21,203.8Zm28.25-14.13,2.31-.19c.71-.06,1.41-.06,2.12-.06a40.71,40.71,0,1,1-32.1,65.68c-.71-1-1.41-1.93-2.12-3a40.23,40.23,0,0,1-5.07-11.36,31.32,31.32,0,0,1-.77-3.53,43.26,43.26,0,0,1-.64-7.13,40.59,40.59,0,0,1,1.09-9.31c.13-.45.19-.9.32-1.35A40.83,40.83,0,0,1,90,204.77q1.16-1.44,2.5-2.89A40.93,40.93,0,0,1,117.46,189.68Z" transform="translate(-3.5 -4.19)"/><rect class="cls-1" x="117.43" y="190.62" width="1.28" height="6.93"/><rect class="cls-1" x="118.33" y="254.51" width="1.28" height="6.93"/><polygon class="cls-1" points="103.11 201.35 99.84 195.7 99.65 195.31 98.94 195.76 98.56 195.95 101.96 201.99 103.11 201.35"/><polygon class="cls-1" points="90.27 212.39 93.16 214.06 93.8 212.97 91.62 211.68 90.27 210.91 87.83 209.5 87.19 210.59 88.99 211.62 90.27 212.39"/><rect class="cls-1" x="145.79" y="213.64" width="6.93" height="1.28" transform="translate(-90.63 99.12) rotate(-29.99)"/><rect class="cls-1" x="135" y="202.2" width="6.93" height="1.28" transform="translate(-109.93 217.18) rotate(-60.01)"/><rect class="cls-1" x="138.86" y="253.1" width="1.28" height="6.93" transform="translate(-113.1 99.94) rotate(-30)"/><rect class="cls-1" x="148.59" y="240.87" width="1.28" height="6.93" transform="translate(-140.49 247.21) rotate(-60)"/><rect class="cls-1" x="91.13" y="245.41" width="6.93" height="1.28" transform="translate(-113.83 76.05) rotate(-29.99)"/><rect class="cls-1" x="102.45" y="256.84" width="6.93" height="1.28" transform="translate(-173.52 216.28) rotate(-60)"/><rect class="cls-1" x="83.59" y="225.81" width="6.93" height="1.28"/><rect class="cls-1" x="145.75" y="225.3" width="6.93" height="1.28"/><polygon class="cls-1" points="117.75 213.74 117.75 215.09 117.75 225.94 119.04 225.94 119.04 215.6 119.04 214.25 119.04 208.34 117.75 208.34 117.75 213.74"/><path class="cls-1" d="M48.12,280.4a21.74,21.74,0,0,1-13.16-15H55V264H34.64a20.76,20.76,0,0,1-.26-5.65H55.06v-1.48H34.58a20.33,20.33,0,0,1,1.28-4.69,21.87,21.87,0,0,1,28.31-12.33l.58-1.41a23.36,23.36,0,0,0-30.24,13.16,22.06,22.06,0,0,0-1.41,5.26H27.45v1.48h5.46a23.68,23.68,0,0,0,.26,5.65H27.38v1.48h6a23.46,23.46,0,0,0,14.13,16.37,23.16,23.16,0,0,0,8.54,1.61,23.48,23.48,0,0,0,12.2-3.4l-.77-1.28A22.39,22.39,0,0,1,48.12,280.4Z" transform="translate(-3.5 -4.19)"/></svg>