<svg id="Ebene_1" data-name="Ebene 1" xmlns="http://www.w3.org/2000/svg" viewBox="0 0 168 292.28"><defs><style>.cls-1{fill:#717171;}</style></defs><title>IntMng</title><path class="cls-1" d="M29.78,77.78V78H30a41.37,41.37,0,0,0,55,0h.19v-.19a41.35,41.35,0,0,0,0-61.64V16H85a41.37,41.37,0,0,0-55,0h-.19v.19a41.35,41.35,0,0,0,0,61.64Zm2.13.19h6.83A28.36,28.36,0,0,0,48.07,86,40.15,40.15,0,0,1,31.91,78Zm10-30.44h15v14H42.94A107.3,107.3,0,0,1,41.87,47.52Zm1.06-15.16H56.84v14h-15A107.3,107.3,0,0,1,42.94,32.36ZM73,46.27H58V32.36H71.94A88.88,88.88,0,0,1,73,46.27ZM72,61.49H58.09v-14h15A107.3,107.3,0,0,1,72,61.49ZM56.84,87.11c-3.51-.38-6.77-3.76-9.27-9.15h9.27ZM58.09,78h9.27c-2.57,5.45-5.76,8.77-9.27,9.15Zm0-1.25v-14H71.81a59.87,59.87,0,0,1-3.88,14Zm0-45.6v-14h9.83a65.62,65.62,0,0,1,3.88,14Zm0-15.22V6.74c3.51.38,6.77,3.76,9.27,9.15Zm-1.25,0H47.57c2.57-5.45,5.76-8.77,9.27-9.15Zm0,1.25v14H43.12a59.87,59.87,0,0,1,3.88-14Zm0,45.6v14H47a65.62,65.62,0,0,1-3.88-14Zm-4.7,23.62A24.75,24.75,0,0,1,40.24,78h6C47.88,81.72,49.89,84.6,52.14,86.36ZM68.74,78h6a24.75,24.75,0,0,1-11.9,8.39A22.59,22.59,0,0,0,68.74,78Zm.56-1.25a60.09,60.09,0,0,0,3.76-14h9.27a44.51,44.51,0,0,1-6.7,14Zm3.95-15.22a97.66,97.66,0,0,0,1-14H84.47a59.21,59.21,0,0,1-1.82,14Zm1-15.22a98.34,98.34,0,0,0-1-14h9.4a58.36,58.36,0,0,1,1.82,14ZM73.06,31.11a64.33,64.33,0,0,0-3.76-14H75.7a43.86,43.86,0,0,1,6.7,14ZM68.74,15.89a22,22,0,0,0-6-8.39,24.75,24.75,0,0,1,11.9,8.39Zm-22.55,0h-6a24.75,24.75,0,0,1,11.9-8.39C49.89,9.25,47.88,12.13,46.19,15.89Zm-.56,1.25a60.09,60.09,0,0,0-3.76,14H32.6a44.51,44.51,0,0,1,6.7-14Zm-4,15.22a97.66,97.66,0,0,0-1,14H30.41a59.21,59.21,0,0,1,1.82-14Zm-1,15.16a98.34,98.34,0,0,0,1,14h-9.4a58.36,58.36,0,0,1-1.82-14Zm1.25,15.22a64.33,64.33,0,0,0,3.76,14H39.24a43.86,43.86,0,0,1-6.7-14ZM66.93,86a29,29,0,0,0,9.33-8.08h6.83A39.76,39.76,0,0,1,66.93,86Zm17.54-9.27H77.14a46.36,46.36,0,0,0,6.51-14H94.43A41,41,0,0,1,84.47,76.71ZM94.93,61.49H84a58.36,58.36,0,0,0,1.82-14h11.9A41.06,41.06,0,0,1,94.93,61.49ZM85.78,46.27A59.21,59.21,0,0,0,84,32.3h11a41.07,41.07,0,0,1,2.76,14Zm8.64-15.16H83.65a45.58,45.58,0,0,0-6.51-14h7.33A41,41,0,0,1,94.43,31.11ZM83,15.89H76.2a28.36,28.36,0,0,0-9.33-8.08A40.55,40.55,0,0,1,83,15.89Zm-35-8A29,29,0,0,0,38.68,16H31.85A39.37,39.37,0,0,1,48,7.87Zm-17.6,9.27h7.33a46.36,46.36,0,0,0-6.51,14H20.45A41.9,41.9,0,0,1,30.41,17.14ZM20,32.36H31a58.36,58.36,0,0,0-1.82,14H17.25A39.62,39.62,0,0,1,20,32.36Zm9.15,15.16a59.21,59.21,0,0,0,1.82,14H20a41.07,41.07,0,0,1-2.76-14Zm2.13,15.22a45.58,45.58,0,0,0,6.51,14H30.47a40.44,40.44,0,0,1-10-14Z" transform="translate(-16 -3.86)"/><rect class="cls-1" x="90.84" y="99.78" width="1.25" height="66.96" transform="translate(-83.44 99.85) rotate(-45)"/><polygon class="cls-1" points="126.97 105.92 166.75 145.7 166.75 290.77 147.52 291.02 147.52 224.19 128.29 224.19 128.29 291.02 111.5 291.02 111.5 187.17 92.21 187.17 92.21 291.02 75.98 291.02 75.98 204.83 56.75 204.83 56.75 291.02 39.96 291.02 39.96 155.1 20.67 155.1 20.67 291.02 1.25 290.77 1.25 83.88 0 83.88 0 292.03 21.92 292.28 21.92 156.35 38.71 156.35 38.71 292.28 58 292.28 58 206.09 74.73 206.09 74.73 292.28 93.46 292.28 93.46 188.42 110.25 188.42 110.25 292.28 129.54 292.28 129.54 225.44 146.26 225.44 146.26 292.28 168 292.03 168 145.14 127.91 105.05 126.97 105.92"/><rect class="cls-1" x="117.09" y="75.21" width="1.25" height="56.5" transform="translate(-54.68 109.68) rotate(-45)"/><rect class="cls-1" x="110.36" y="117.37" width="1.25" height="17.66" transform="translate(-72.73 111.58) rotate(-45)"/><rect class="cls-1" x="143.36" y="37.88" width="1.25" height="85.82" transform="translate(-30.95 121.62) rotate(-45)"/><polygon class="cls-1" points="76.61 0 76.61 1.25 166.75 1.25 166.75 82.12 168 82.12 168 0 76.61 0"/></svg>