<svg id="Ebene_1" data-name="Ebene 1" xmlns="http://www.w3.org/2000/svg" viewBox="0 0 194.8 279.08"><defs><style>.cls-1{fill:#fff;}.cls-2{fill:#717171;}</style></defs><title>IntTrsmMng</title><path class="cls-1" d="M207,233.1a5.94,5.94,0,0,1-.4.8A5.94,5.94,0,0,0,207,233.1Z" transform="translate(-12.2 -2.53)"/><path class="cls-1" d="M206.6,233.9c0,.1-.1.1,0,0C206.5,234,206.6,234,206.6,233.9Z" transform="translate(-12.2 -2.53)"/><path class="cls-2" d="M144.17,281.61c-72.76,0-132-59.2-132-132s59.2-132,132-132v2a130.11,130.11,0,0,0-130,130c0,71.66,58.3,130,130,130Z" transform="translate(-12.2 -2.53)"/><path class="cls-2" d="M144.17,280.61" transform="translate(-12.2 -2.53)"/><path class="cls-2" d="M144.17,18.68" transform="translate(-12.2 -2.53)"/><path class="cls-2" d="M144.17,281.61c-49.52,0-89.82-59.2-89.82-132s40.29-132,89.82-132v2c-48.42,0-87.82,58.3-87.82,130s39.39,130,87.82,130Z" transform="translate(-12.2 -2.53)"/><path class="cls-2" d="M144.17,280.61" transform="translate(-12.2 -2.53)"/><path class="cls-2" d="M144.17,18.68" transform="translate(-12.2 -2.53)"/><rect class="cls-2" x="130.96" y="16.15" width="2" height="261.93"/><rect class="cls-2" x="1" y="146.12" width="182.46" height="2"/><rect class="cls-2" x="10.36" y="97.39" width="169.76" height="2"/><polygon class="cls-2" points="166.46 50.67 43.15 50.67 45.15 48.67 166.46 48.67 166.46 50.67"/><rect class="cls-2" x="43.15" y="243.57" width="122.65" height="2"/><rect class="cls-2" x="11.26" y="194.84" width="168.2" height="2"/><path class="cls-2" d="M144.17,281.61c-14.32,0-27.71-13.85-37.68-39-9.86-24.85-15.29-57.87-15.29-93s5.43-68.12,15.29-93c10-25.14,23.36-39,37.68-39s27.71,13.85,37.69,39c9.87,24.85,15.3,57.87,15.3,93s-5.43,68.13-15.3,93C171.87,267.76,158.49,281.61,144.17,281.61Zm0-261.93c-28.11,0-51,58.3-51,130s22.87,130,51,130,51-58.3,51-130S172.28,19.68,144.17,19.68Z" transform="translate(-12.2 -2.53)"/><path class="cls-2" d="M144.17,281.61H37.24c-13.81,0-25-12.2-25-27.19s11.23-27.19,25-27.19h83c12.7,0,23-11.3,23-25.19s-10.33-25.19-23-25.19h-83c-13.81,0-25-12.2-25-27.19s11.23-27.19,25-27.19h83c12.7,0,23-11.3,23-25.19s-10.33-25.19-23-25.19h-83c-13.81,0-25-12.2-25-27.19s11.23-27.19,25-27.19H48.48v2H37.24c-12.7,0-23,11.3-23,25.19s10.33,25.19,23,25.19h83c13.81,0,25,12.2,25,27.19s-11.23,27.19-25,27.19h-83c-12.7,0-23,11.3-23,25.19s10.33,25.19,23,25.19h83c13.81,0,25,12.2,25,27.19s-11.23,27.19-25,27.19h-83c-12.7,0-23,11.3-23,25.19s10.33,25.19,23,25.19H144.17Z" transform="translate(-12.2 -2.53)"/><path class="cls-2" d="M47,34.83V2.53L75,18.68ZM49,6V31.36L71,18.68Z" transform="translate(-12.2 -2.53)"/></svg>