<svg id="Ebene_1" data-name="Ebene 1" xmlns="http://www.w3.org/2000/svg" viewBox="0 0 153.22 287"><defs><style>.cls-1{fill:#717171;}</style></defs><title>KommunikationsInformatik</title><path class="cls-1" d="M37.42,54.66H49.87a47.63,47.63,0,0,0,47.55,47h0a47.63,47.63,0,0,0,47.55-46,29.22,29.22,0,0,1,21.56,28.18v.06a29.16,29.16,0,0,1-29.15,29.15H98v-6.8l-12.81,7.41L98,121.09v-6.8h39.35a30.38,30.38,0,0,0,30.36-30.36v-.06A30.38,30.38,0,0,0,145,54.48v-.36A47.69,47.69,0,0,0,97.36,6.5h0a47.59,47.59,0,0,0-47.55,47H37.42V47.67H24.67V60.43H37.42ZM96.87,119l-9.17-5.28,9.17-5.28Zm0-64.37v45.73c-13.72-.61-24.84-20.83-25-45.73Zm1.21,0h25c-.18,24.9-11.3,45.18-25,45.73V54.66Zm0-1.21V7.71c13.72.61,24.84,20.83,25,45.73Zm-1.21,0h-25c.18-24.9,11.3-45.18,25-45.73ZM51.08,54.66H70.64c.18,21.5,8.38,39.59,19.55,45.18A46.45,46.45,0,0,1,51.08,54.66ZM104.77,99.9c11.17-5.59,19.43-23.68,19.55-45.18h13.12a27.75,27.75,0,0,1,6.38.73A46.44,46.44,0,0,1,104.77,99.9Zm39-46.46H124.26c-.18-21.5-8.38-39.59-19.55-45.18A46.39,46.39,0,0,1,143.82,53.44ZM90.19,8.26C79,13.85,70.76,31.94,70.64,53.44H51.08A46.45,46.45,0,0,1,90.19,8.26Zm-54,51H25.88V48.89H36.21Z" transform="translate(-23.39 -6.5)"/><path class="cls-1" d="M98.33,240.06H87.1v23.62h23.62V240.06H98.33Zm11.17,1.21v21.19H88.31V241.27H109.5Z" transform="translate(-23.39 -6.5)"/><path class="cls-1" d="M110.72,212.12H159V199.68a6.26,6.26,0,1,0-1.21,0v11.23H109.5V230.4h-10V180.49c9.41-.3,17.73-2.85,23.2-6.62h12.87v6.8l12.81-7.41-12.81-7.41v6.8H124.32c3.28-2.73,5.22-6,5.22-9.47v-.36h0V143.32h0c-.36-9-14.57-16.34-32.06-16.34s-31.7,7.29-32.06,16.34h0v19.49h0v.36c0,3.52,1.94,6.74,5.22,9.47H53.94a29.15,29.15,0,0,1,0-58.3H66.81v5.77H79.57V107.37H66.81v5.77H53.94a30.36,30.36,0,1,0,0,60.73H72.28c5.89,4.07,15,6.68,25.26,6.68h.85V230.4h-10V210.91H40.09V199.68a6.26,6.26,0,1,0-1.21,0v12.45H87.16V230.4H77.5v42.93H98.39V293.5h1.21V273.34h20.83V230.4h-9.66V212.12Zm42.63-18.64a5,5,0,1,1,5.65,5c-.18,0-.43.06-.61.06a2.07,2.07,0,0,1-.61-.06A5,5,0,0,1,153.35,193.48ZM136.77,168l9.17,5.28-9.17,5.28V168ZM68,108.52H78.35v10.32H68Zm29.45,19.74c16.82,0,30.49,6.74,30.85,15.12v.36a3.73,3.73,0,0,1-.06.85c-.3,2.91-2.31,5.65-5.47,8a6,6,0,0,1-1,.67c-5.65,3.64-14.45,6-24.29,6s-18.64-2.31-24.29-6c-.36-.24-.73-.49-1-.67-3.16-2.31-5.16-5-5.47-8a4.3,4.3,0,0,1-.06-.85v-.36C67,135,80.66,128.26,97.48,128.26Zm0,51.07c-9.17,0-17.43-2.13-23.08-5.47a19.94,19.94,0,0,1-1.88-1.21c-3.7-2.67-5.89-6-5.89-9.47V148.24a15.22,15.22,0,0,0,4.55,5,9.27,9.27,0,0,0,1,.67c5.89,3.95,15.06,6.44,25.32,6.44s19.43-2.55,25.32-6.44c.36-.24.67-.49,1-.67a16.52,16.52,0,0,0,4.55-5v14.94c0,3.52-2.19,6.8-5.89,9.47a19.94,19.94,0,0,1-1.88,1.21C114.91,177.21,106.65,179.33,97.48,179.33Zm-63.1,14.15a5,5,0,1,1,5.65,5c-.18,0-.43.06-.61.06a2.07,2.07,0,0,1-.61-.06A5,5,0,0,1,34.38,193.48Zm84.78,38.14v40.51H78.65V231.62h40.51Z" transform="translate(-23.39 -6.5)"/><path class="cls-1" d="M29.65,245.59a6.25,6.25,0,1,0,0,12.51,6.31,6.31,0,0,0,6.25-5.65H77.08v-1.21H35.9A6.22,6.22,0,0,0,29.65,245.59Zm0,11.3a5,5,0,1,1,5-5.65c0,.18.06.43.06.61a2.07,2.07,0,0,1-.06.61A5,5,0,0,1,29.65,256.88Z" transform="translate(-23.39 -6.5)"/><path class="cls-1" d="M170.29,219.59a6.25,6.25,0,0,0-6.25,6.25,6,6,0,0,0,1.46,3.95L154,241.33v30.73h-33.1v1.21h34.31V241.82l11.23-11.23a6.22,6.22,0,1,0,3.89-11Zm0,11.3a5.06,5.06,0,0,1-3.1-1.09,5.63,5.63,0,0,1-.85-.85,5,5,0,1,1,3.95,1.94Z" transform="translate(-23.39 -6.5)"/></svg>