<svg id="Ebene_1" data-name="Ebene 1" xmlns="http://www.w3.org/2000/svg" viewBox="0 0 190.48 283.33"><defs><style>.cls-1{fill:#717171;}</style></defs><title>KulturMng</title><path class="cls-1" d="M195.24,202.37a89.39,89.39,0,0,0-39-73.78,29.18,29.18,0,0,0,7.88-9.18,27.72,27.72,0,0,0,1.72-21.73,24.1,24.1,0,0,0-13.32-14.74,21.93,21.93,0,0,0-8-1.66V44.81l20.13-13.56V19a10.66,10.66,0,0,0-21.32,0V44.16L117.79,61.33a42.71,42.71,0,0,0-17.65,39.73,42.53,42.53,0,0,0,3.14,11.9A91.62,91.62,0,0,0,87.6,114.8l-8.29-13.62,1.13-.71L72.67,87.74l-1.13.71-.06-.06a13.9,13.9,0,0,0-1.36-12.26c-.95-1.48-2.84-3.14-5.68-5l9-39.73-.59-.12A56.47,56.47,0,0,0,30.93,38l-4.56-7.4a7.45,7.45,0,0,0,2.72-4.14,7.13,7.13,0,1,0-8.53,5.39,7.35,7.35,0,0,0,1.6.18,7.74,7.74,0,0,0,3.26-.77L30,38.65A56.35,56.35,0,0,0,4.88,74.18l-.12.59,39.61,8.94c.53,3.49,1.24,6,2.25,7.58a14,14,0,0,0,9.83,6.28l-.06.06.06.12-1.13.71,7.76,12.73,1.13-.71,6,9.89a89.35,89.35,0,1,0,92.25,151l4.26,7,.3.53,15.16-9.24-6.87-11.25A88.9,88.9,0,0,0,195.24,202.37ZM144.44,19a9.47,9.47,0,0,1,18.95,0V30.6L144.44,43.33ZM24.71,30.3a5.89,5.89,0,0,1-3.91.47,5.93,5.93,0,0,1,1.3-11.72,9.68,9.68,0,0,1,1.3.12,6,6,0,0,1,4.5,7.11,5.58,5.58,0,0,1-2.19,3.38A3.67,3.67,0,0,1,24.71,30.3ZM144.44,82.41A20.31,20.31,0,0,1,152,83.95a23,23,0,0,1,12.67,14A26.41,26.41,0,0,1,163,118.77a28,28,0,0,1-7.88,9.06c-.36.24-.71.47-1,.71a32.14,32.14,0,0,1-6.16,3.26,34.6,34.6,0,0,1-3.49,1.18V82.41Zm-43.11,18.53a41.53,41.53,0,0,1,17.11-38.67l24.81-16.64V81.23a21.38,21.38,0,0,0-10.72,3.2,18.06,18.06,0,0,0-8.7,17.35,19.41,19.41,0,0,0,1.18,4.86l1.13-.41a16.6,16.6,0,0,1-1.13-4.56,17,17,0,0,1,8.17-16.22,21,21,0,0,1,10.13-3v50.86a33.08,33.08,0,0,1-17-.53,34,34,0,0,1-16.88-11.66,37.52,37.52,0,0,1-4.26-6.93c-.18-.41-.36-.77-.53-1.18A39.37,39.37,0,0,1,101.33,100.94Zm2.49,13.26a38.59,38.59,0,0,0,4.62,7.64,34.28,34.28,0,0,0,34.82,12.67V206L88.25,116A84.76,84.76,0,0,1,103.82,114.21ZM72,32.32,63.38,70.45c-1.84-1.13-4-2.37-6.51-3.61-5.92-3-14.21-10.3-15-11L31.52,39.13A55.21,55.21,0,0,1,72,32.32ZM44.67,72.82a95,95,0,0,0-1.89-13.32L59.06,85.84,45.38,82.77Q44.84,78.59,44.67,72.82Zm15.4,12.38L44,59.14A82.18,82.18,0,0,0,56.33,67.9c2.61,1.36,4.86,2.61,6.75,3.79ZM6.18,73.82a55.28,55.28,0,0,1,24.4-34.17l10.3,16.82c.24,1,2.49,10.72,2.61,16.4.12,3.73.3,6.93.65,9.59ZM47.57,90.64a18.32,18.32,0,0,1-2-6.63l15.16,3.43,3.43-15a17.34,17.34,0,0,1,5,4.44,12.59,12.59,0,0,1,1.72,9.65,15.25,15.25,0,0,1-1,2.9c-.06.12-.06.18-.12.3a11,11,0,0,1-1.24,2c-.12.12-.18.24-.3.36a12.52,12.52,0,0,1-6.93,4.2c-.18.06-.3.06-.47.12a15.27,15.27,0,0,1-2.31.24h-.3A12.89,12.89,0,0,1,47.57,90.64Zm16,18.83L57,98.75l1-.59.71-.47a13.89,13.89,0,0,0,7.16-2.19,14,14,0,0,0,4.68-5l.53-.36,1-.59,6.57,10.72-1,.59-13.15,8Zm42.28,181.07a88.18,88.18,0,0,1-35-169.11l72.42,118.66v4.44a7.25,7.25,0,0,1-7.22,7.22H94V215.93h6.75L93.4,203.2l-7.34,12.73h6.75v37H136a8.44,8.44,0,0,0,8.41-8.41V242l17.35,28.42A87.59,87.59,0,0,1,105.83,290.54ZM93.34,205.69h.18l.53.89,4.74,8.17H88.13l4.74-8.17Zm87.22,63.65-13.15,8-4.09-6.63-.65-1-18.24-30-1.18-2L71.9,121l-.65-1-6.16-10.07,13.15-8,8.17,13.2.65,1.07,56.19,92.13,1.18,2,29.43,48.2.65,1.07Zm-36.12-61.4V134.22a30.24,30.24,0,0,0,3.91-1.3,31.4,31.4,0,0,0,6.81-3.67,88.08,88.08,0,0,1,19.48,128.13Z" transform="translate(-4.76 -8.34)"/><path class="cls-1" d="M47.92,223.22A11.49,11.49,0,1,0,59.41,234.7,11.5,11.5,0,0,0,47.92,223.22Zm0,21.79a10.3,10.3,0,1,1,10.3-10.3A10.31,10.31,0,0,1,47.92,245Z" transform="translate(-4.76 -8.34)"/><path class="cls-1" d="M50.77,201.84a11.49,11.49,0,1,0-11.49,11.49A11.5,11.5,0,0,0,50.77,201.84Zm-21.79,0a10.3,10.3,0,1,1,10.3,10.36A10.31,10.31,0,0,1,29,201.84Z" transform="translate(-4.76 -8.34)"/><path class="cls-1" d="M47.27,179A11.49,11.49,0,1,0,35.78,167.5,11.5,11.5,0,0,0,47.27,179Zm0-21.79A10.3,10.3,0,1,1,37,167.5,10.31,10.31,0,0,1,47.27,157.19Z" transform="translate(-4.76 -8.34)"/><path class="cls-1" d="M93.4,186.33l-7.34,12.73H100.8Zm0,2.37,5.33,9.18H88.13Z" transform="translate(-4.76 -8.34)"/></svg>