<svg id="Ebene_1" data-name="Ebene 1" xmlns="http://www.w3.org/2000/svg" viewBox="0 0 191.25 284.9"><defs><style>.cls-1{fill:#717171;}</style></defs><title>MarketingScience</title><rect class="cls-1" x="27.42" y="241.83" width="56.29" height="1.21"/><rect class="cls-1" x="27.9" y="252.75" width="56.29" height="1.21"/><rect class="cls-1" x="27.9" y="263.73" width="56.29" height="1.21"/><path class="cls-1" d="M176.58,161.55a19.46,19.46,0,0,0-9.34,2.43l-7-29.78a27,27,0,0,0-10.92-51.8h-5.1a36.75,36.75,0,0,0,1.33-9.95,37.62,37.62,0,0,0-74.3-8.31L57.75,43.4a19.07,19.07,0,1,0-9.16,2.37,19.56,19.56,0,0,0,8-1.76L70.07,64.75a22.85,22.85,0,0,0-37,17.71H31.43a27,27,0,0,0-10.61,51.92V291.84a.57.57,0,0,0,.61.61H99a.36.36,0,0,0,.24-.06c.06,0,.12-.06.18-.12l43.49-43.49c.06-.06.06-.12.12-.18v-.06a.22.22,0,0,1,.06-.18V203.1l17.65-11.77a19.08,19.08,0,1,0,15.83-29.78ZM56.06,42.91a17.52,17.52,0,0,1-7.34,1.58,17.84,17.84,0,1,1,8.49-2.12A6.47,6.47,0,0,1,56.06,42.91ZM108,36.12a36.42,36.42,0,0,1,36.39,36.39,35.19,35.19,0,0,1-1.52,10.37l-.24.79h6.73A25.82,25.82,0,0,1,160,133l-4.31-18.38a9.82,9.82,0,1,0-2.85.42,14.87,14.87,0,0,0,1.64-.12l4.37,18.62a25.76,25.76,0,0,1-9.46,1.82H67l6.85-14,.61-1.21,9.77-20A9.7,9.7,0,0,0,88,101a9.83,9.83,0,0,0,0-19.65,10.15,10.15,0,0,0-4.85,1.27l-11-16.92A36.29,36.29,0,0,1,108,36.12Zm47.37,77.34a7.15,7.15,0,0,1-1.21.24,10,10,0,0,1-1.4.12,8.61,8.61,0,1,1,8.61-8.61A8.5,8.5,0,0,1,155.35,113.46ZM83.71,98.53a8.67,8.67,0,0,1-4.31-7.46,8.5,8.5,0,0,1,3.46-6.85,6,6,0,0,1,1-.67,8.77,8.77,0,0,1,4.19-1.09,8.61,8.61,0,0,1,0,17.23A8.54,8.54,0,0,1,84.81,99,2.89,2.89,0,0,1,83.71,98.53Zm-78,11A25.86,25.86,0,0,1,31.55,83.67h2.91v-1A21.66,21.66,0,0,1,71.1,67.05l.85.79.06-.42L82.26,83.25a9.81,9.81,0,0,0,1,16.44L73.16,120.13l-.61,1.21-6.85,14H31.55a25.4,25.4,0,0,1-9.4-1.76c-.42-.18-.79-.3-1.21-.49A26,26,0,0,1,5.71,109.51Zm94,180.87V249H141Zm42.28-42.64H99.06a.57.57,0,0,0-.61.61v42.88H22.15V232L66.06,189,93.3,204.44a.56.56,0,0,0,.73-.12l25.29-26.75,5,5.46,5-16.32-16.62,3.82,5.7,6.19L93.42,203.16,66.18,187.7a.56.56,0,0,0-.73.12L22.15,230.34V134.87a26.67,26.67,0,0,0,9.4,1.7H65.09l-9.28,18.86a9.7,9.7,0,0,0-3.76-.79,9.81,9.81,0,1,0,4.85,1.27l9.52-19.41h75.52v66l-28.51,19a9.83,9.83,0,1,0,2,5.94,9.61,9.61,0,0,0-1.33-4.91L141.94,204Zm-22.62-72-4.25-4.55,12.56-2.85-3.76,12.31-3.7-3.94Zm-63-18.68a8.61,8.61,0,1,1-4.31-1.15,8.54,8.54,0,0,1,3.28.67Zm56.71,66.17a8.41,8.41,0,1,1-.67-1A6,6,0,0,1,113.07,223.24Zm30.08-21.53V136.5h6.19a27.39,27.39,0,0,0,9.77-1.82l7,30a19.07,19.07,0,0,0-6,25.72Zm33.42-3.21a17.88,17.88,0,0,1-14.74-7.76c-.24-.3-.42-.67-.67-1a17.8,17.8,0,0,1,5.28-23.78,10.55,10.55,0,0,1,1.09-.67,17.73,17.73,0,0,1,9-2.49,17.86,17.86,0,1,1,0,35.73Z" transform="translate(-4.38 -7.55)"/></svg>