<svg id="Ebene_1" data-name="Ebene 1" xmlns="http://www.w3.org/2000/svg" viewBox="0 0 197 266.85"><defs><style>.cls-1{fill:#717171;}</style></defs><title>MaschProz</title><path class="cls-1" d="M70.6,92.22a3.53,3.53,0,0,0-3.55-3.55H42.11a3.58,3.58,0,0,0,0,7.15H67.05A3.66,3.66,0,0,0,70.6,92.22ZM42,89.75H67a2.45,2.45,0,0,1,0,4.9H42a2.45,2.45,0,0,1,0-4.9Z" transform="translate(-1.5 -16.58)"/><path class="cls-1" d="M47.85,175.57a7.26,7.26,0,1,0-7.26-7.26A7.28,7.28,0,0,0,47.85,175.57Zm0-13.35a6.14,6.14,0,1,1-6.14,6.14A6.15,6.15,0,0,1,47.85,162.23Z" transform="translate(-1.5 -16.58)"/><path class="cls-1" d="M66.15,181.94a4.39,4.39,0,1,0-4.39-4.39A4.4,4.4,0,0,0,66.15,181.94Zm3.32-4.39a3.27,3.27,0,1,1-3.27-3.27A3.27,3.27,0,0,1,69.48,177.55Z" transform="translate(-1.5 -16.58)"/><path class="cls-1" d="M59.45,105.85a4.39,4.39,0,1,0-4.39,4.39A4.4,4.4,0,0,0,59.45,105.85Zm-4.39,3.27a3.27,3.27,0,1,1,3.27-3.27A3.27,3.27,0,0,1,55.06,109.12Z" transform="translate(-1.5 -16.58)"/><polygon class="cls-1" points="53.16 112.76 53.16 128.02 53.73 128.02 54.29 128.02 54.29 112.76 53.73 112.76 53.16 112.76"/><polygon class="cls-1" points="54.29 102.45 53.73 102.45 53.16 102.45 53.16 107.81 53.73 107.81 54.29 107.81 54.29 102.45"/><path class="cls-1" d="M198.5,164.71l-.28-11.15c0-.45-.06-1.13-14.19-6l-2.48-5.63c6-13.85,5.52-14.3,5.18-14.64l-8.05-7.49c-.34-.28-.79-.73-14.47,5.86l-5.8-2.14c-5.46-13.8-6.14-13.8-6.59-13.8l-3.1.11V97.35c3.38,3.66,4.22,4.28,4.62,4.28a.34.34,0,0,0,.23-.06l5.35-2.14c.39-.17.73-.28.73-8l2.14-2.08c7.77.34,7.88.06,8.11-.34l2.31-5.24c.17-.39.28-.68-5.24-6.08l.06-2.93c5.86-5.18,5.74-5.46,5.58-5.91l-2.08-5.24c-.17-.39-.28-.68-8.17-.62l-2-2.08c.51-7.66.17-7.83-.23-8l-5.24-2.2c-.39-.17-.68-.28-6.25,5.24h-1.35V32.58H79.33a7.45,7.45,0,0,0-.45-1.86,6.08,6.08,0,0,0-11.15,4.84,5.54,5.54,0,0,0,1.52,2.08l-3.77,6.53-.68-.34a8.85,8.85,0,0,0-6.25-.06l-3.32-7.6a6.15,6.15,0,0,0,2.65-7.77,6.08,6.08,0,0,0-11.15,4.84c.06.11.11.17.11.28a6.19,6.19,0,0,0,5.46,3.38,7.5,7.5,0,0,0,1.91-.28l3.32,7.6a8.6,8.6,0,0,0-4.17,4.62,8.78,8.78,0,0,0,.11,6.76.06.06,0,0,0,.06.06l-9.29,4.9a8.93,8.93,0,0,0-4.34-3.66,8.78,8.78,0,0,0-6.76.11,8.69,8.69,0,0,0-3.72,3.1l-9.35-5.63a9,9,0,0,0,.28-7.6,8.86,8.86,0,0,0-4.9-4.67,8.49,8.49,0,0,0-3.32-.62l-.56-7.43a10.75,10.75,0,0,0,2.31-.62,8.92,8.92,0,0,0,4.56-11.66A8.85,8.85,0,1,0,7.13,33.65a9.34,9.34,0,0,0,3.27.62h.11l.56,7.43a8.36,8.36,0,0,0-2.31.68A8.91,8.91,0,0,0,4.2,54a9.34,9.34,0,0,0,2.31,3.15c.34.28.73.56,1.13.84a8.73,8.73,0,0,0,4.73,1.35,8.9,8.9,0,0,0,3.55-.73,8.76,8.76,0,0,0,3.72-3.1L29,61.19c-.11.28-.28.56-.39.84a8.78,8.78,0,0,0,.11,6.76,8.85,8.85,0,0,0,16.22-7.1.06.06,0,0,0-.06-.06l9.29-4.9a8.88,8.88,0,0,0,11.09,3.49,8.44,8.44,0,0,0,2.25-1.41l9.35,9.57a9.52,9.52,0,0,0-1.69,2.7,8.77,8.77,0,0,0,5,11.43,9.34,9.34,0,0,0,3.27.62,8.83,8.83,0,0,0,2.08-.28l3.1,9.86c-.06,0-.06,0-.11.06a6.17,6.17,0,0,0-3.21,3.32,5.87,5.87,0,0,0,.11,4.67A6,6,0,0,0,91,104.45a6.06,6.06,0,0,0,5.63-3.83,6.12,6.12,0,0,0-.11-4.67,5.87,5.87,0,0,0-3.21-3.15c-.06,0-.11-.06-.17-.06a5.71,5.71,0,0,0-3.49-.28l-3.1-9.86a.81.81,0,0,1,.39-.11,8.85,8.85,0,0,0,4.79-11.09l8.11-3.55a6.07,6.07,0,0,0,2.93,2.65c.06,0,.11.06.17.06a6.12,6.12,0,0,0,2.2.45,6,6,0,0,0,2.42-.51,6,6,0,0,0,3.1-8,6,6,0,0,0-3.32-3.21,5.87,5.87,0,0,0-4.67.11,6.17,6.17,0,0,0-3.21,3.32,6.07,6.07,0,0,0-.11,4.11l-8.11,3.55A8.84,8.84,0,0,0,80.4,66.09a2.35,2.35,0,0,0-.56.23,8.44,8.44,0,0,0-2.25,1.41l-9.35-9.57a8.86,8.86,0,0,0-1.69-13.29l3.72-6.42a1.69,1.69,0,0,0,.45.23c.17.06.34.17.51.23a6.12,6.12,0,0,0,2.2.45,5.94,5.94,0,0,0,5.24-3.1,6.14,6.14,0,0,0,.79-2.42h66.68V56.24h-.51c-5.12-5.69-5.46-5.58-5.91-5.41L134.35,53c-.39.17-.73.28-.73,8l-2.14,2.08c-3-.17-4.9-.17-6.08-.17-1.8.06-1.91.28-2,.51l-2.31,5.18c-.17.39-.34.68,5.24,6.14l-.06,2.93c-5.86,5.18-5.74,5.46-5.58,5.86l2.08,5.24c.17.39.28.68,8.17.62l2,2.08c-.51,7.66-.17,7.83.23,8l5.29,2.2c.39.17.68.28,6.25-5.24h2.93v13.69l-6.87.28c-.45,0-1.13.06-6.31,14.3l-5.69,2.65c-13.69-5.74-14.19-5.18-14.47-4.84l-7.66,8.22c-.28.34-.79.84,5.52,14.36l-2.25,5.86C96,156.65,96,157.33,96,157.78l.23,11.09c0,.45,0,1.13,14.19,6l2.53,5.63c-6,13.8-5.52,14.3-5.18,14.59l8.05,7.49c.34.28.84.79,14.47-5.86l5.8,2.14c5.24,13.29,6.08,13.8,6.53,13.8h.06l5.18-.23v2.7H115.49a6.23,6.23,0,0,0-8.17,0c-.17.17-.39.34-.56.51a6,6,0,0,0-.51.62,6.35,6.35,0,0,0-1.18,3.89,6.21,6.21,0,0,0,1.3,3.55l-11.6,11.6v22.92H70.6V251H63.39V236.85H81.92v-7.32a6.06,6.06,0,0,0,4.28-2,6.26,6.26,0,1,0-8.84.39h0a6.07,6.07,0,0,0,3.38,1.58h.06v6.25H62.32V251H55.06V229.36a6.19,6.19,0,0,0,4.05-2,6.29,6.29,0,0,0-.39-8.84,6.36,6.36,0,0,0-3.66-1.63v-28.1H86.43a5.26,5.26,0,0,0,4.51-2.48,5.35,5.35,0,0,0,.28-5.12L67.05,130.3V95.94H65.93v34.58l10.25,21.57H32.81l10.25-21.57V95.94H41.94V130.3L17.78,181.21a5.29,5.29,0,0,0,4.79,7.6H53.93v28.1a6.18,6.18,0,0,0-4.05,2,6.29,6.29,0,0,0,.39,8.84h0a6.06,6.06,0,0,0,3.66,1.63v21.57H46.67V235.27H26.34v-6.36a6.18,6.18,0,0,0,4.05-2A6.29,6.29,0,0,0,32,222.43a6.26,6.26,0,0,0-6.53-6,6.08,6.08,0,0,0-4.34,2,6.29,6.29,0,0,0,.39,8.84h0A6.36,6.36,0,0,0,25.21,229v7.55H45.54V251H38.33v32.38H70.72v-15.6h37.11a6.25,6.25,0,1,0,0-1.13H70.72v-7.26H95.95V246.2h43.2a6.19,6.19,0,0,0,2,4.05,6,6,0,0,0,4.22,1.63A6.25,6.25,0,0,0,149.56,241a6.28,6.28,0,0,0-10.48,4.05H95.89v-9.18l11.21-11.21a6.21,6.21,0,0,0,8.79-.39,6.37,6.37,0,0,0,.51-7.88h32.55v-3.89l4.84-.23c.45,0,1.13-.06,6.31-14.3l5.69-2.65c13.69,5.69,14.19,5.18,14.47,4.84l7.66-8.22c.28-.34.79-.84-5.52-14.36l2.25-5.86C198.5,165.83,198.5,165.16,198.5,164.71ZM144,95.27c-2.2,2.2-4.73,4.56-5.41,5.07l-4.79-2c-.11-.9.06-4.22.23-7.21v-.23l-2.76-2.76H131A63.78,63.78,0,0,1,123.6,88l-1.91-4.73c.56-.68,3-3,5.35-5l.17-.17.06-3.89-.17-.17c-2.2-2.14-4.51-4.56-5.07-5.24l2.08-4.73c.45-.06,1.63-.06,3.1-.06,1.3,0,2.82.06,4.28.17h.23l2.87-2.7v-.23c0-3,.11-6.42.23-7.32l4.9-2c.68.56,3,3,5,5.18l.17.17h3.94l.17-.17a72.53,72.53,0,0,1,5.46-5.07l4.79,2c.11.9-.06,4.22-.23,7.21v.23l2.76,2.76H162c3.1-.06,6.53,0,7.43.11l1.91,4.73a68.68,68.68,0,0,1-5.35,5l-.17.17-.06,3.89.17.17c2.2,2.14,4.51,4.56,5.07,5.24l-2.08,4.73a69.56,69.56,0,0,1-7.38-.11h-.23l-2.87,2.7v.23a67.93,67.93,0,0,1-.28,7.32l-4.9,2a64.36,64.36,0,0,1-4.62-4.73c-.11-.17-.28-.28-.39-.45L148.1,95h-3.94ZM78.21,33.71a4.28,4.28,0,0,1-.62,1.86,4.89,4.89,0,0,1-6.08,2.14,4.8,4.8,0,0,1-2.7-2.65,5,5,0,0,1,9.07-4,4.41,4.41,0,0,1,.39,1.41c0,.17.06.39.06.56A1.67,1.67,0,0,0,78.21,33.71ZM66.89,57.59l-.39.39a7.3,7.3,0,0,1-1.91,1.18,7.73,7.73,0,0,1-9.63-3c-.11-.17-.17-.34-.28-.51a2,2,0,0,1-.23-.51h0a7.72,7.72,0,0,1,3.49-9.91,2,2,0,0,1,.51-.23h0a2,2,0,0,0,.51-.23,8,8,0,0,1,2.53-.45,7.83,7.83,0,0,1,3.38.79,2.28,2.28,0,0,1,.51.28,3.14,3.14,0,0,1,.45.28,7.66,7.66,0,0,1,1.46,11.49A2.6,2.6,0,0,1,66.89,57.59ZM48.36,33.88a4.28,4.28,0,0,1-.68-1.07,5,5,0,0,1,9.07-4,4.91,4.91,0,0,1-2.08,6.25c-.17.11-.34.17-.51.28l-.51.17A4.79,4.79,0,0,1,48.36,33.88ZM39.68,72.23a7.81,7.81,0,0,1-10.19-4,7.91,7.91,0,0,1,.17-6.59,2.28,2.28,0,0,1,.28-.51,5.19,5.19,0,0,0,.28-.45A7.84,7.84,0,0,1,33.43,58a7.43,7.43,0,0,1,3.1-.62,7,7,0,0,1,2.82.56,7.46,7.46,0,0,1,3.72,3.1c.11.17.17.34.28.51a2,2,0,0,1,.23.51h0A7.59,7.59,0,0,1,39.68,72.23ZM18.4,54.89a7.84,7.84,0,0,1-3.21,2.65,7.69,7.69,0,0,1-7.77-1,10.12,10.12,0,0,1-1.13-1.07,6.49,6.49,0,0,1-1.24-2A7.75,7.75,0,0,1,9,43.34a7.91,7.91,0,0,1,2-.56c.17,0,.39-.06.56-.06s.39-.06.56-.06h0a7.8,7.8,0,0,1,7.1,4.62,7.91,7.91,0,0,1-.17,6.59,2.28,2.28,0,0,1-.28.51A5.45,5.45,0,0,1,18.4,54.89Zm-11-22.25a7.66,7.66,0,0,1-4.28-4.11,7.81,7.81,0,0,1,4-10.19,7.81,7.81,0,0,1,10.19,4,7.72,7.72,0,0,1-4,10.14,7.91,7.91,0,0,1-2,.56c-.17,0-.39.06-.56.06h-.56A6.88,6.88,0,0,1,7.41,32.64ZM90,70.71a2,2,0,0,1,.23.51h0a2,2,0,0,0,.23.51,7.7,7.7,0,0,1-4.17,9.63c-.11.06-.17.06-.28.11l-.51.17c-.17.06-.34.11-.56.17a7.74,7.74,0,0,1-7.55-12.67,2.6,2.6,0,0,1,.39-.39l.39-.39a7.3,7.3,0,0,1,1.91-1.18l.51-.17A7.76,7.76,0,0,1,90,70.71Zm.68,22.7a4.88,4.88,0,0,1,1.8.34c.06,0,.06.06.11.06a4.95,4.95,0,0,1,2.65,6.36,4.8,4.8,0,0,1-2.65,2.7,5,5,0,0,1-6.53-2.53,4.95,4.95,0,0,1,2.53-6.48h0l.51-.17a1.67,1.67,0,0,1,.56-.11A2.38,2.38,0,0,1,90.71,93.41ZM100.34,63a4.8,4.8,0,0,1,2.65-2.7,4.74,4.74,0,0,1,2-.39,4.88,4.88,0,0,1,1.8.34,4.8,4.8,0,0,1,2.7,2.65,4.87,4.87,0,0,1,.06,3.77,4.8,4.8,0,0,1-2.65,2.7,4.87,4.87,0,0,1-3.77.06c-.06,0-.06-.06-.11-.06a5,5,0,0,1-2.37-2.08c-.11-.17-.17-.34-.28-.51h0l-.17-.51A5.41,5.41,0,0,1,100.34,63Zm7.55,160.62a5,5,0,0,1-1.63-3.55,5.08,5.08,0,0,1,1.35-3.72l.17-.17a5.55,5.55,0,0,1,1.69-1.13,6.06,6.06,0,0,1,1.75-.39h.23a4.74,4.74,0,0,1,2,.39,5.34,5.34,0,0,1,1.52,1l.17.17a5.16,5.16,0,0,1,.17,7.1A5.25,5.25,0,0,1,107.88,223.61Zm-38.3,28.44v30.13H39.46V252.05Zm15.54-32.72a5.1,5.1,0,0,1,.28,7.26,5,5,0,0,1-3.55,1.63,5.08,5.08,0,0,1-3.72-1.35h0a5.15,5.15,0,0,1-.28-7.26A5,5,0,0,1,81.64,218,5.24,5.24,0,0,1,85.13,219.33Zm-34.07,7.6a5,5,0,0,1-1.63-3.55A5.15,5.15,0,0,1,54,218c.17,0,.39-.06.56-.06h0a1.92,1.92,0,0,1,.56.06,5.32,5.32,0,0,1,2.93,1.3,5.1,5.1,0,0,1,.28,7.26,5.24,5.24,0,0,1-7.26.34ZM18.79,181.66l13.52-28.38H76.74l13.52,28.38a4.32,4.32,0,0,1-.23,4.05,4.16,4.16,0,0,1-3.55,2H22.62a4.26,4.26,0,0,1-3.83-6ZM22,219.16a5,5,0,0,1,3.55-1.63,5.14,5.14,0,0,1,4,8.62,5.15,5.15,0,0,1-7.26.28h0A5.15,5.15,0,0,1,22,219.16Zm97.15,48a5.14,5.14,0,0,1-10.25.56H109v-1.13h0a5.13,5.13,0,0,1,5.12-4.56A5,5,0,0,1,119.15,267.15Zm26.24-26.81a5,5,0,0,1,3.49,1.35,5.14,5.14,0,0,1-7,7.55,5,5,0,0,1-1.63-3.55,5.08,5.08,0,0,1,1.35-3.72,5,5,0,0,1,3.55-1.63Zm38.35-69.61-2.59,6.76.11.23c2.31,4.9,5.52,12.16,5.69,13.46l-7.38,7.94c-1.24-.17-7.77-2.65-13.57-5.07l-.23-.11-6.59,3-.06.23c-2.2,6-4.84,12.73-5.58,13.8l-4.56.23-1.13.06-5,.23c-.79-1-3.49-7.38-5.8-13.29l-.11-.23-6.7-2.48-.23.11c-5.74,2.82-12.33,5.74-13.57,6l-7.72-7.21c.17-1.35,3.21-8.73,5.35-13.69l.11-.23L111.26,174l-.23-.06c-5.12-1.8-12.5-4.51-13.63-5.29l-.23-10.7c1.07-.84,8.34-4.05,13.4-6.14l.23-.11,2.59-6.76-.11-.23c-2.31-4.9-5.52-12.16-5.69-13.52l7.38-7.88c1.24.17,7.72,2.65,13.57,5.07l.23.11,6.53-3,.06-.23c2.2-6,4.84-12.78,5.58-13.8l6.65-.28,1.13-.06,2.93-.11c.84,1.07,3.83,8.28,5.8,13.29l.11.23,6.7,2.48.23-.11c5.74-2.82,12.33-5.8,13.57-6l7.72,7.21c-.17,1.35-3.21,8.73-5.35,13.74l-.11.23,2.93,6.53.23.06c6,2.08,12.56,4.56,13.63,5.29l.23,10.7c-1,.79-7.55,3.66-13.4,6.08Z" transform="translate(-1.5 -16.58)"/><path class="cls-1" d="M153,150.51a12.77,12.77,0,0,0-4.17-1.3c-.39-.06-.73-.06-1.13-.11a11.52,11.52,0,0,0-4.11.56,12.36,12.36,0,0,0,3.72,24.16h.45a7.63,7.63,0,0,0,1.13-.11,14.49,14.49,0,0,0,2.14-.45,12.33,12.33,0,0,0,2-22.75Zm-16.44,14.3a11.25,11.25,0,0,1,7.38-14.08,10.9,10.9,0,0,1,3.77-.51,7.63,7.63,0,0,1,1.13.11,11.3,11.3,0,0,1,9.18,7.77,11.29,11.29,0,0,1-.73,8.56,11.07,11.07,0,0,1-6.59,5.52,16.93,16.93,0,0,1-1.8.39,7.63,7.63,0,0,1-1.13.11A11.26,11.26,0,0,1,136.55,164.82Z" transform="translate(-1.5 -16.58)"/><path class="cls-1" d="M153.05,77.19a6.6,6.6,0,0,0-5.69-7.43h-.28c-.17,0-.39-.06-.56-.06H146A6.59,6.59,0,0,0,141.45,72a7.17,7.17,0,0,0-1.58,3.44,6.65,6.65,0,0,0,1.3,4.9,6.55,6.55,0,0,0,4.39,2.53,4.84,4.84,0,0,0,.9.06A6.53,6.53,0,0,0,153.05,77.19Zm-7.26,4.56a5.15,5.15,0,0,1-3.6-2.14,5.27,5.27,0,0,1-1.07-4.05,5.18,5.18,0,0,1,1.46-3,5.42,5.42,0,0,1,3.49-1.69h.56a1.92,1.92,0,0,1,.56.06h.11A5.44,5.44,0,0,1,152,77.13,5.55,5.55,0,0,1,145.79,81.75Z" transform="translate(-1.5 -16.58)"/><path class="cls-1" d="M63.45,258.19H45.54V276.1H63.45Zm-1.13,16.73H46.67V259.26H62.32Z" transform="translate(-1.5 -16.58)"/></svg>