<svg id="Ebene_1" data-name="Ebene 1" xmlns="http://www.w3.org/2000/svg" viewBox="0 0 193 265.3"><defs><style>.cls-1{fill:#717171;}</style></defs><title>MechSens</title><path class="cls-1" d="M57.4,240.1h-18v18h18Zm-1.2,16.8H40.5V241.2H56.2Z"/><path class="cls-1" d="M134,226.9s0,.09,0,.13l0-.13Z"/><path class="cls-1" d="M79.9,200.4a6.62,6.62,0,0,0-4.5-1.7,6.23,6.23,0,0,0-4.3,2,6.31,6.31,0,0,0,.4,8.9,6,6,0,0,0,3.3,1.58v6.22H69.7l-.4.6-.4.6h7.2v-7.3H76a6.23,6.23,0,0,0,4.3-2A6.31,6.31,0,0,0,79.9,200.4Zm-4.6,10.3-.08,0,0-.07h.13v.1Zm.6-.7a5,5,0,0,1-3.7-1.3,5.1,5.1,0,0,1-.39-7.2l.09-.1a5.33,5.33,0,0,1,3.6-1.7h.2a5.6,5.6,0,0,1,3.5,1.3,5.19,5.19,0,0,1,.3,7.3A5.33,5.33,0,0,1,75.9,210Zm5.53-5.21a5.76,5.76,0,0,1,0,.61A5.78,5.78,0,0,0,81.43,204.79Zm-.06,1.1c0,.17-.08.33-.13.49C81.28,206.21,81.34,206.05,81.36,205.89ZM81.09,207a5.71,5.71,0,0,1-.42.87A5.7,5.7,0,0,0,81.09,207Zm-.16-4.31c.08.17.12.35.18.53C81,203,81,202.82,80.93,202.65Zm.35,1c0,.18,0,.36.07.54C81.33,204.06,81.32,203.88,81.28,203.7ZM80,201.27a5.65,5.65,0,0,0-.41-.47h0A5.64,5.64,0,0,1,80,201.27Zm.65.92a5.59,5.59,0,0,0-.3-.52A5.6,5.6,0,0,1,80.66,202.19ZM76,199.3c-.16,0-.31,0-.47,0C75.65,199.27,75.8,199.3,76,199.3Zm3.18,1.15c-.15-.12-.3-.25-.46-.35C78.84,200.2,79,200.34,79.14,200.45Zm-1-.61c-.16-.07-.31-.17-.47-.23C77.82,199.67,78,199.77,78.13,199.84Zm-1-.37c-.17,0-.33-.1-.5-.13C76.76,199.37,76.92,199.43,77.09,199.47Zm-5.16,1.26a5.64,5.64,0,0,0-.43.38h0A5.61,5.61,0,0,1,71.93,200.73Zm3-1.37c-.16,0-.33,0-.49.07C74.56,199.38,74.73,199.38,74.89,199.36Zm-1,.24c-.17.06-.35.1-.52.18C73.52,199.7,73.7,199.66,73.87,199.6Zm-1,.46c-.16.09-.33.17-.48.27C72.52,200.23,72.69,200.15,72.85,200.06Zm-1.69,1.49a5.87,5.87,0,0,0-.36.47A5.85,5.85,0,0,1,71.16,201.56ZM70.31,203c.06-.15.14-.3.21-.45C70.46,202.75,70.37,202.89,70.31,203Zm-.31,1.7c0,.16,0,.31,0,.47C70,205.06,70,204.9,70,204.75Zm.14-1c0,.14-.08.27-.11.41C70.06,204,70.11,203.84,70.14,203.7Zm.33,3.65c0-.1-.06-.2-.1-.3C70.41,207.15,70.43,207.26,70.47,207.35Zm-.35-1c0-.14,0-.29-.06-.44C70.08,206,70.09,206.16,70.12,206.3Zm.7,1.66c.07.12.13.25.21.37C71,208.21,70.9,208.08,70.82,208ZM76,210.7a6.14,6.14,0,0,0,3.9-1.8,5.76,5.76,0,0,0,.7-.93,5.76,5.76,0,0,1-.7.93A5.13,5.13,0,0,1,76,210.7Z"/><path class="cls-1" d="M193,146.2l-.3-11.2c0-.4-.1-1.1-14.2-6.1l-2.5-5.7c6-13.9,5.5-14.3,5.2-14.7l-8.1-7.6c-.3-.3-.8-.8-14.5,5.9l-5.8-2.1c-5.5-13.9-6.2-13.8-6.6-13.8l-11.1.5c-.4,0-1.1.1-6.3,14.3l-5.7,2.7c-13.7-5.7-14.2-5.2-14.5-4.9l-7.7,8.2c-.3.3-.8.8,5.6,14.4l-2.3,5.9c-14,5.8-14,6.5-14,6.9l.2,11.2c0,.4,0,1.1,14.2,6.1l2.6,5.7c-6,13.8-5.5,14.3-5.2,14.7l8.1,7.6c.3.3.8.8,14.6-5.9l5.8,2.2c5.2,13.3,6.1,13.8,6.6,13.8h.1l11.2-.5c.4,0,1.1-.1,6.3-14.3l2.1-1,.2,85.66H64.7V249.7h37.2v0a6.27,6.27,0,1,0,6.19-7,6.14,6.14,0,0,0-6.2,5.7h.6a5.72,5.72,0,0,1,11.37.3,5.71,5.71,0,0,0-5.67-5.2,5.82,5.82,0,0,0-5.66,5H102c0,.2-.1.4-.1.6a1.27,1.27,0,0,1,.1-.6H64.1v-.1h.6v-7.2H90V227.9h43.4a6,6,0,0,0,2,4.1,6.17,6.17,0,0,0,8.72-.22l.08-.08a6.62,6.62,0,0,0,1.7-4.5,6.23,6.23,0,0,0-2-4.3,6.62,6.62,0,0,0-4.5-1.7,6.23,6.23,0,0,0-4.3,2,6.5,6.5,0,0,0-1.57,3.5H90v-9l11.3-11.3-.1-.1a1.38,1.38,0,0,0-.26-.34h0l.25.25.1.1.3-.5-.3-.3c-.1-.1-.2-.3-.3-.4h0l.19.22c0,.06.06.13.11.18l.3.3.1.1-.4.4a6.14,6.14,0,0,0,4.2,1.6,6.29,6.29,0,0,0,4.6-2,6.62,6.62,0,0,0,1.7-4.5,6.23,6.23,0,0,0-2-4.3,6.62,6.62,0,0,0-4.5-1.7,6.3,6.3,0,0,0-4.7,10.1L89,217.1h0V240H64.8l-.1.1h0v-7.3H57.4V218.5H68.8l.4-.5.5-.6H56.3v16h-.1v-.6H49V211.19a6,6,0,0,0,4-2,6.62,6.62,0,0,0,1.7-4.5,6.23,6.23,0,0,0-2-4.3,6.51,6.51,0,0,0-3.7-1.6V164.5c16.1-.2,29.2-7.3,29.2-16.1v-.3h0V130.4s0,.08,0,.12,0-.14,0-.22v-.2h-1v.4h.5s0,.07,0,.1H77.2a1.09,1.09,0,0,1-.1.5h0c-.2,2.7-2.1,5.4-5.1,7.5-.1.1-.3.2-.4.3.1.1.3.2.4.3-.1.1-.3.2-.4.3.1.1.3.2.4.3a1.38,1.38,0,0,0,.4-.3c.1-.1.3-.2.4-.3a13.49,13.49,0,0,0,4.4-4.9c.2-.4.3-.8.5-1.2a6.12,6.12,0,0,1-.5,1.2v14.1c0,8.2-12.6,14.9-28.2,15.1H47.9c-15.6-.2-28.3-6.9-28.3-15.1v-2.8h0v-1.3c-.2.4-.3.8-.5,1.2v.39a10.88,10.88,0,0,0-.4,2.21h-.1v.3c0,8.7,13.1,15.9,29.2,16.1v34.22a6,6,0,0,0-3.9,2,6.31,6.31,0,0,0,.4,8.9,6.5,6.5,0,0,0,3.5,1.57V232.9h.1v.5h-.2v-.6H40.5V217.1H20.2V211l-.1-.1v-.2h.1a6.4,6.4,0,0,0,4.1-2,6.16,6.16,0,0,0-.2-8.71l-.1-.09a6.62,6.62,0,0,0-4.5-1.7,5.84,5.84,0,0,0-4.3,2,6.31,6.31,0,0,0,.4,8.9,6.5,6.5,0,0,0,3.4,1.55v7.65h7.5l-.5-.6.5.5H39.4v14.6H32.2v16.4H1.1V57.5H0V250.3H32.2v15H158.1l-.1-87.5v-.65l2.1-1s13.6,5.7,14.1,5.1l7.7-8.2c.5-.6-5.8-14-5.8-14l2.4-6.3s13.8-5.7,13.8-6.5l-.3-11.2c0-.09-.22-.24-.6-.44.5.25.8.44.8.54l.3,11.2c0,.8-13.8,6.5-13.8,6.5l-2.4,6.3s6.3,13.5,5.8,14l-7.7,8.2c-.6.6-14.1-5.1-14.1-5.1l-2.2,1v.6l2.2-1c13.7,5.7,14.2,5.2,14.5,4.9l7.7-8.2c.3-.3.8-.8-5.6-14.4l2.3-5.9C193,147.4,193,146.7,193,146.2Zm-92.6,55.5a5,5,0,0,1,1.3-3.6,5.33,5.33,0,0,1,3.6-1.7,5,5,0,0,1,3.7,1.3,5.33,5.33,0,0,1,1.7,3.6,5,5,0,0,1-1.3,3.7,5.19,5.19,0,0,1-7.3.3A5.33,5.33,0,0,1,100.4,201.7Zm.9-4a5.71,5.71,0,0,1,9.29,6.46,5.69,5.69,0,0,0-9.29-6.36,5.61,5.61,0,0,0-1.5,3.59A5.73,5.73,0,0,1,101.3,197.7Zm8.9,7.13c.06-.09.14-.18.2-.28C110.34,204.65,110.27,204.74,110.2,204.83Zm-10.36-2.5s0-.1,0-.15S99.84,202.28,99.84,202.33ZM133.9,227.9h-.1l.1-.6Zm1.8,3.7A5.86,5.86,0,0,1,134,227l-.07.27v-.4H134a5.83,5.83,0,0,1,.82-2.56,5.73,5.73,0,0,0,1,7.16,5.61,5.61,0,0,0,6.84.73A5.72,5.72,0,0,1,135.7,231.6Zm3.8-9.4a5,5,0,0,1,3.7,1.3,5.33,5.33,0,0,1,1.7,3.6,5,5,0,0,1-1.3,3.7,5.19,5.19,0,0,1-7.3.3,5.33,5.33,0,0,1-1.7-3.6,4.2,4.2,0,0,1,1.3-3.6A5.33,5.33,0,0,1,139.5,222.2Zm3.62,9.7c-.07.06-.14.13-.22.19C143,232,143,232,143.12,231.9Zm-7.72-8.4.08-.07a5.75,5.75,0,0,0-.65.86A5.87,5.87,0,0,1,135.4,223.5Zm-36.11-16L89.5,217.3h0l9.79-9.79ZM23.5,200.2A5.72,5.72,0,0,1,18.62,210a5.79,5.79,0,0,0,5.08-1.74,5.72,5.72,0,0,0-4.35-9.62A5.71,5.71,0,0,1,23.5,200.2Zm-7.4,8a5.19,5.19,0,0,1-.3-7.3,5.33,5.33,0,0,1,3.6-1.7,5,5,0,0,1,3.7,1.3,5.33,5.33,0,0,1,1.7,3.6,5,5,0,0,1-1.3,3.7,5.15,5.15,0,0,1-7.26.52Zm40.8,25.2h0Zm-9-22.72v-.08h.5v.1a1.26,1.26,0,0,0,.5-.07v.07H48Zm1.2-11.27v.39a5.15,5.15,0,0,1,2.9,1.3,5.33,5.33,0,0,1,1.7,3.6,5,5,0,0,1-1.3,3.7,5.33,5.33,0,0,1-3.6,1.7,5,5,0,0,1-3.7-1.3,5.19,5.19,0,0,1-.3-7.3,4.94,4.94,0,0,1,3.2-1.6v-.12l.4-.08v.1a.64.64,0,0,1,.6,0v-.4Zm-1.1.33h0Zm29.63-68.66a7.38,7.38,0,0,1-.12.84C77.57,131.64,77.6,131.36,77.64,131.08Zm-.44,2a12.92,12.92,0,0,1-4.8,5.8,13.6,13.6,0,0,0,4.8-5.8Zm.66-.53c-.06.21-.09.42-.16.63v-.1C77.76,132.93,77.81,132.75,77.86,132.57Zm.21-.94c0,.2-.08.39-.12.59C78,132,78,131.83,78.08,131.63Zm.12,16.47a11.93,11.93,0,0,0-.5-2.6A10.89,10.89,0,0,1,78.2,148.1Zm-59.1.3v-.3h.1v.3c0,8.48,12.75,15.37,28.6,15.6h0C32,163.8,19.1,156.9,19.1,148.4ZM44.27,201l0,0a5.44,5.44,0,0,1,3.5-1.77v.1a5.65,5.65,0,0,0-3.5,1.76,5.78,5.78,0,0,0-1.22,5.61A5.69,5.69,0,0,1,44.27,201ZM39.5,233.4h0Zm24.1,30.8H33.3V233.9H63.6Zm50.29-15.09v0c0-.07,0-.15,0-.23S113.89,249,113.89,249.11Zm-5.69-5.21a5.23,5.23,0,0,1,5.2,5.2,5.16,5.16,0,0,1-5.12,5.2h-.08a5.11,5.11,0,0,1-5.1-4.6h-.5a1.27,1.27,0,0,1-.1-.6h0a1.26,1.26,0,0,0,.1.5h.47s0,.07,0,.1h.1v-1.2h-.07A5.12,5.12,0,0,1,108.2,243.9ZM102,249.6h0a.49.49,0,0,0,0-.1Zm50.3-144.27-.07,0s-4.82-12.23-6-13.57C147.14,92.29,151.88,104.32,152.27,105.33ZM104.5,132.6l.5-1.31-.5,1.41s-13.76,5.68-13.8,6.5v-.1C90.7,138.3,104.5,132.6,104.5,132.6Zm3.18,29.45,0,0s-5.27,12-5.44,14C102.22,174.58,107.31,162.89,107.68,162.05Zm46.52,17s-5.2,14.2-5.9,14.2l-11.2.5h0l11.11-.5c.7-.1,5.9-14.2,5.9-14.2l2.7-1.21v0ZM191.9,146c-1,.8-7.6,3.7-13.5,6.1l-.2.1-2.6,6.8.1.2c2.3,5,5.5,12.2,5.7,13.6l-7.5,8c-1.3-.2-8.7-3-13.7-5.1l-.2-.1-2.1,1v0l-1.1.46v.19l-3.3,1.41-.1.2c-2.2,6.1-4.8,12.8-5.6,13.8l-10.8.5c-.8-1.1-3.8-8.3-5.8-13.3l-.1-.2-6.7-2.5-.2.1c-5.8,2.8-12.4,5.8-13.7,6.1l-7.8-7.3c.2-1.3,2.8-7.9,5.4-13.8l.1-.2-2.9-6.6-.2-.1c-6-2.1-12.7-4.6-13.7-5.3l-.2-10.8c1.1-.8,8.4-4.1,13.5-6.1l.2-.1,2.6-6.8-.1-.2c-2.7-5.8-5.6-12.3-5.7-13.6l7.5-8c1.2.1,7.8,2.7,13.7,5.1l.2.1,6.6-3.1.1-.2c2.2-6.1,4.9-12.8,5.6-13.8l10.7-.5c.8,1.1,3.9,8.3,5.8,13.3l.1.2,6.7,2.4.2-.1c5.8-2.8,12.4-5.8,13.6-6.1l7.8,7.3c-.2,1.3-3.2,8.8-5.4,13.8l-.1.2,3,6.7.2.1c6,2.1,12.7,4.6,13.7,5.3Zm-14-16.5-2.7-6.1s6-13.7,5.4-14.3l-7.48-7.1,7.68,7.2c.6.5-5.4,14.3-5.4,14.3l2.68,6.06Z"/><path class="cls-1" d="M147.3,131.9a12.07,12.07,0,0,0-9.5-.8,12.61,12.61,0,0,0-7.3,6.1,12.07,12.07,0,0,0-.8,9.5,12.61,12.61,0,0,0,6.1,7.3,13,13,0,0,0,5.7,1.4,11.93,11.93,0,0,0,3.7-.6,12.61,12.61,0,0,0,7.3-6.1,12.07,12.07,0,0,0,.8-9.5A12.38,12.38,0,0,0,147.3,131.9Zm-5.7-.2a10.56,10.56,0,0,1,5.2,1.3,11.15,11.15,0,0,1,4.91,15l-.11.22a11.27,11.27,0,1,1-13.4-16A13.32,13.32,0,0,1,141.6,131.7Zm-11.4,14.9a11.85,11.85,0,0,1,10.18-15.4,11.87,11.87,0,0,0-2.3.48l-.08,0a11.86,11.86,0,0,0,3.61,23.16A11.86,11.86,0,0,1,130.2,146.6Z"/><path class="cls-1" d="M140.3,37.2h-.5c-5.2-5.7-5.5-5.6-5.9-5.4L128.6,34c-.4.2-.7.3-.7,8.1l-2.2,2.1c-7.8-.4-8-.1-8.1.3l-2.3,5.2c-.2.4-.3.7,5.2,6.1l-.1,2.9c-5.8,5.2-5.7,5.5-5.6,5.9l2.1,5.2c.2.4.3.7,8.2.6l2.1,2.1c-.5,7.7-.2,7.8.2,8l5.3,2.2c.4.2.7.3,6.3-5.3h3c4.3,4.8,5.3,5.5,5.7,5.5.1,0,.2,0,.2-.1l5.3-2.2c.4-.2.7-.3.7-8.1l2.2-2.1c7.8.4,8,.1,8.1-.3l2.3-5.2c.2-.4.3-.7-5.3-6.1l.1-2.9c5.9-5.2,5.7-5.5,5.6-5.9l-2.1-5.3c-.2-.4-.3-.7-8.2-.6L154.5,42c.5-7.7.2-7.8-.2-8L149,31.8c-.4-.2-.7-.3-6.3,5.3h-1.3v.1Zm2.9,1.2.2-.2a60.67,60.67,0,0,1,5.5-5.1l4.8,2c.1.9-.1,4.2-.2,7.3v.2l2.7,2.8h.2c3.1-.1,6.6,0,7.5.1l1.9,4.8c-.6.7-3.1,3-5.4,5.1l-.2.2-.1,3.9.2.2a67.43,67.43,0,0,1,5.1,5.3l-2.1,4.8a64.25,64.25,0,0,1-7.4-.1h-.2l-2.8,2.7v.2a57.19,57.19,0,0,1-.3,7.3l-4.9,1.9c-.7-.6-3-3-5.1-5.2l-.2-.2h-3.9l-.2.2a60.67,60.67,0,0,1-5.5,5.1l-4.8-2c-.1-.9.1-4.2.2-7.3v-.2l-2.7-2.8h-.2a49.91,49.91,0,0,1-7.5-.2l-1.9-4.8c.6-.7,3.1-3,5.4-5.1l.2-.2.1-3.9-.2-.2a67.45,67.45,0,0,1-5.1-5.3l2.1-4.8a64.22,64.22,0,0,1,7.4.1h.2l2.8-2.7v-.2a57.19,57.19,0,0,1,.3-7.3l4.9-1.9c.7.6,3,3,5.1,5.2l.2.2h2.1v.1Zm10.8,4s.24-3.59.25-5.87C154.24,38.81,154,42.4,154,42.4Zm1.9,27.8h0ZM136.43,34.49A12.4,12.4,0,0,0,134,32.3C134.18,32.21,135.27,33.27,136.43,34.49ZM125.8,44.7s-3.6-.19-5.91-.18C122.2,44.51,125.8,44.7,125.8,44.7Zm-10.1,5.2c-.2.3,5.3,5.7,5.3,5.7l-.1,3.4h0l.1-3.4S115.5,50.3,115.7,49.9Zm9.6,20.2s-7.7.1-7.9-.3l-2.1-5.3,2.1,5.3c.2.3,7.9.3,7.9.3l2.4,2.4s-.24,3.59-.25,5.87c0-2.28.25-5.87.25-5.87Zm2.3,10.1,5.3,2.2h0Zm14.6-3.1s5.1,5.6,5.5,5.5C147.3,82.8,142.2,77.1,142.2,77.1ZM166,65c.2-.3-5.3-5.7-5.3-5.7S166.2,64.6,166,65Zm-1.7-19.9c-.2-.3-7.9-.3-7.9-.3S164.1,44.7,164.3,45.1ZM148.46,32.67c.18-.13.3-.2.34-.17h0s-.16,0-.34.17-.42.33-.7.57C148,33,148.29,32.8,148.46,32.67Zm-2.15,1.9-1.05,1ZM143,37.8h-1.6v-.1Z"/><path class="cls-1" d="M141.4,50.8a2,2,0,0,0-1.1,0V51a6.41,6.41,0,0,0-6.1,5.6,6.72,6.72,0,0,0,5.7,7.5,2.77,2.77,0,0,0,.9.1,6.6,6.6,0,0,0,4-1.3,6.93,6.93,0,0,0,2.6-4.4,6.56,6.56,0,0,0-1.3-4.9,6.93,6.93,0,0,0-4.4-2.6h-.3Zm5.75,7.65a6.23,6.23,0,1,1-10.43-5.2A6,6,0,0,0,135,56.7a6.05,6.05,0,1,0,11.43-1.87A6.2,6.2,0,0,1,147.15,58.45ZM141.6,51.6h0V52a5.61,5.61,0,0,1,3.7,2.1,5.48,5.48,0,0,1,1.1,4.1,5.61,5.61,0,0,1-2.1,3.7,5.49,5.49,0,0,1-8.8-5.1,5.35,5.35,0,0,1,5-4.7V52h.9a2.05,2.05,0,0,0-.55-.08,2,2,0,0,1,.55.08v-.4Z"/><path class="cls-1" d="M141.6,52.1V52C141.5,52,141.4,52,141.6,52.1Z"/><path class="cls-1" d="M47.74,47.39h.06v5.3l.6-.6v.1l-.5.5L30.6,70V80.8H24.8V93.5H37.5V80.8H31.7V70.5L47.8,54.4v60.5h0c-16,.23-28.8,6.91-29.1,15.2h.5C19.4,122,32,115.53,47.8,115.4h0c-15.65.23-28.3,6.71-28.6,14.7h.5c.2-7.8,12.7-14.1,28.2-14.2v-.08a1.74,1.74,0,0,0,.5,0v.1c.2-.1.4,0,.6,0,15.4.1,27.9,6.4,28.2,14.2h1C77.9,121.8,65,115,49,114.9V71H71l.1,25.9h-.2a6.42,6.42,0,0,0-3.9,2,6.62,6.62,0,0,0-1.7,4.5,6.23,6.23,0,0,0,10.8,4,6.31,6.31,0,0,0-.4-8.9,6.5,6.5,0,0,0-3.5-1.57v-27H48.8v-.1H49V53.2l.2-.2-.2-.3V47.51a14.07,14.07,0,0,0,2,.09c.76,0,1.51-.05,2.26-.13,24.55-.6,44.14-11,44.14-23.67a14.38,14.38,0,0,0-3.6-9.1h-.6a13.78,13.78,0,0,1,3.7,9.1,14,14,0,0,0-3.7-9.1h-.7a13.9,13.9,0,0,1,3.8,9.1c0,11-16,20.2-37,22.2l-.29.1a20.09,20.09,0,0,0-2.11.1,22.55,22.55,0,0,1-5.76.8H51c-1.78,0-3.56-.08-5.34-.17-.18,0-.37-.08-.56-.13-22.6-1.4-40-11.1-40-22.9,0-9.36,11-17.34,26.77-21C16.16,6.46,5.2,14.44,5.2,23.8c0,11.8,17.4,21.5,39.9,22.9,1.15.06,2.34.11,3.56.15A22.53,22.53,0,0,0,51,47a22,22,0,0,0,5.8-.8c-1.8.1-3.8.2-5.8.2h0A22.6,22.6,0,0,1,50.77,1.2H51c1.82,0,3.55.09,5.28.18h0C54.54,1.29,52.73,1.2,51,1.2A22.49,22.49,0,0,1,71.1,13.5c.2.4.4.7.6,1.1h.6c-.2-.3-.3-.7-.6-1.1h.1c.2.4.3.7.5,1.1h.6c-.2-.4-.3-.7-.5-1.1h-.1A23.75,23.75,0,0,0,59.48,1.62C73.4,2.94,85,7.43,91.4,13.5h-.1a11.41,11.41,0,0,1,1.1,1.1h.7c-.3-.4-.7-.7-1-1.1h.1a5.24,5.24,0,0,0,1,1.1h47.1V37.1h1.1V13.5H92.9C85.4,5.5,69.5,0,51.1,0a23.49,23.49,0,0,1,6,.8A76,76,0,0,1,79.61,5.68,74.82,74.82,0,0,0,57,.9,22.89,22.89,0,0,0,51.05.1h-.12C25.41.15,4.7,10.73,4.7,23.8,4.7,36.26,23.67,46.52,47.74,47.39ZM36.4,92.4H25.9V81.9H36.4Zm38.7,6.9a5.11,5.11,0,0,1,.48,7.21l-.08.09a5.19,5.19,0,0,1-7.3.3,5.33,5.33,0,0,1-1.7-3.6,5,5,0,0,1,1.3-3.7A5.19,5.19,0,0,1,75.1,99.3Zm-4-1.9v-.1h.2l.1.1.2.2v.1l-.2-.3h-.3a5.66,5.66,0,0,0-3.7,1.8A5.45,5.45,0,0,1,71.1,97.4Zm-5.19,5.29a5.77,5.77,0,0,0,0,.62A5.78,5.78,0,0,1,65.91,102.69Zm.56-2.08a5.77,5.77,0,0,0-.25.53A5.78,5.78,0,0,1,66.47,100.61Zm-.35.89a5.75,5.75,0,0,0-.18.72A5.75,5.75,0,0,1,66.12,101.5Zm.25,4a5.66,5.66,0,0,1-.21-.63A5.66,5.66,0,0,0,66.37,105.45Zm-.35-1a5.73,5.73,0,0,1-.08-.62A5.74,5.74,0,0,0,66,104.4Zm1.26,2.42a5.65,5.65,0,0,0,.42.47h0A5.64,5.64,0,0,1,67.28,106.82Zm-.68-1a5.61,5.61,0,0,0,.33.58A5.59,5.59,0,0,1,66.6,105.85Zm2,2.15c-.16-.1-.31-.23-.46-.35C68.32,107.76,68.46,107.9,68.63,108Zm2.66.8c.18,0,.35,0,.53,0C71.64,108.83,71.46,108.8,71.28,108.79Zm-2.11-.53c.16.07.31.17.47.23C69.48,108.43,69.33,108.33,69.17,108.26Zm1.06.38c.16,0,.32.1.49.12C70.55,108.73,70.39,108.67,70.23,108.63Zm5.08-1.2a5.64,5.64,0,0,0,.49-.43h0A5.64,5.64,0,0,1,75.31,107.43Zm-3,1.32c.19,0,.38,0,.56-.08C72.72,108.72,72.53,108.73,72.34,108.75Zm1.09-.25c.17-.06.35-.1.52-.18C73.78,108.4,73.6,108.44,73.43,108.5Zm1-.44a5.59,5.59,0,0,0,.52-.3A5.58,5.58,0,0,1,74.41,108.06Zm2.58-3c-.06.17-.16.32-.23.48C76.83,105.38,76.93,105.22,77,105.06Zm-.49,1c-.09.16-.22.29-.33.44C76.28,106.37,76.4,106.23,76.5,106.07Zm.79-2.62c0-.19,0-.38,0-.57C77.33,103.08,77.3,103.27,77.29,103.46Zm-.18,1.1a5.77,5.77,0,0,0,.15-.57A5.79,5.79,0,0,1,77.12,104.55Zm-.29-3.8c.07.16.11.33.17.5C76.94,101.08,76.9,100.91,76.83,100.75Zm.35,1a5.74,5.74,0,0,1,.08.59A5.74,5.74,0,0,0,77.18,101.8Zm-.7-1.66c-.07-.12-.13-.25-.21-.37C76.35,99.89,76.4,100,76.48,100.14Zm-2.83-2.36A4.81,4.81,0,0,1,75.5,98.9,5.88,5.88,0,0,0,73.65,97.77ZM48,47.32a3.75,3.75,0,0,0,.5.08h-.1a1.88,1.88,0,0,1-.4-.07Zm5.9-.37c-.87,0-1.76.05-2.68.06C52.11,47,53,47,53.9,46.94Zm1.82-.08-.5,0Zm-7.92.24h.1v.09h-.1ZM51,46.4h0c-2,0-3.87-.1-5.75-.2.54.15,1.08.27,1.62.38-.55-.1-1.09-.22-1.62-.37C47.08,46.3,49.06,46.4,51,46.4ZM35.74,41.16q-.52-.46-1-.94Q35.22,40.71,35.74,41.16Zm7.81,4.53-.78-.29ZM42,45.09l-.92-.41Zm-1.45-.68c-.35-.18-.69-.36-1-.55C39.83,44.06,40.18,44.24,40.53,44.41Zm-1.07-.57a23,23,0,0,1-3.59-2.56A23.14,23.14,0,0,0,39.46,43.84ZM29.55,32.38a23,23,0,0,1-1-3.31c0,.19.08.38.13.57A23.15,23.15,0,0,0,29.55,32.38Zm5.05,7.71a23.12,23.12,0,0,1-3.54-4.61A23.15,23.15,0,0,0,34.6,40.09ZM31,35.3c-.22-.38-.42-.76-.61-1.15C30.54,34.54,30.74,34.92,31,35.3Zm-.77-1.47c-.18-.38-.36-.77-.52-1.16C29.83,33.06,30,33.45,30.19,33.83ZM28.29,28c0-.17-.07-.34-.09-.52C28.22,27.68,28.26,27.85,28.29,28Zm-.3-2.2v0ZM41.51,2.71l0,0ZM43.25,2l.21-.07ZM42.8,1.6a23.7,23.7,0,0,0,0,44.4C21.7,44.1,5.7,34.8,5.7,23.8s16-20.2,37-22.2L43,1.5a20.9,20.9,0,0,0,2.21-.1C44.4,1.5,43.6,1.5,42.8,1.6Zm14.69-.09a23.44,23.44,0,0,1,4,1.6A22.43,22.43,0,0,0,57.18,1.5Z"/><path class="cls-1" d="M71.6,14.6a6,6,0,0,0-.6-1.1Z"/><path class="cls-1" d="M74.7,23.8a25,25,0,0,0-1.8-9.1h-.6A23.06,23.06,0,0,1,56.9,46.2c.8-.1,1.6-.1,2.4-.2A23.8,23.8,0,0,0,74.7,23.8Z"/><path class="cls-1" d="M74.1,23.8a23.16,23.16,0,0,0-1.9-9.1h-.6a23.16,23.16,0,0,1,1.9,9.1A22.58,22.58,0,0,1,51.11,46.4c1.92,0,3.76-.1,5.59-.2A23.06,23.06,0,0,0,74.1,23.8Z"/><path class="cls-1" d="M42,23.7s0,.07,0,.1a9.05,9.05,0,1,0,0-.1Zm9,8.2a8,8,0,1,1,8-8A8,8,0,0,1,51,31.9Zm0-16.6h0a8.5,8.5,0,0,0-8.5,8.5A8.49,8.49,0,0,1,51,15.3Z"/><path class="cls-1" d="M19.6,134.4v-1.3a10.08,10.08,0,0,1-.5-2.5v-.4h-.5V148a11.93,11.93,0,0,1,.5-2.6v.1a6.12,6.12,0,0,1,.5-1.2Zm-.88-2.77a8.67,8.67,0,0,1-.11-1.11A9.17,9.17,0,0,0,18.72,131.63Zm.21.95c0-.12-.06-.23-.09-.35C18.87,132.34,18.91,132.46,18.94,132.57Z"/><path class="cls-1" d="M24.1,139.2c.1.1.3.2.4.3s.3.2.4.3c5.5,3.7,14,6,23.5,6s18.1-2.3,23.5-6c-.1-.1-.3-.2-.4-.3a1.38,1.38,0,0,0,.4-.3c-.1-.1-.3-.2-.4-.3,0,.1-.2.2-.4.3-5.2,3.4-13.4,5.6-22.7,5.6s-17.5-2.2-22.7-5.6a1.38,1.38,0,0,0-.4.3c.1-.1.3-.2.4-.3a1.38,1.38,0,0,1-.4-.3c-.1-.1-.3-.2-.4-.3-3-2.2-4.9-4.7-5.2-7.6h-.1v-.4h-.4a7.4,7.4,0,0,0,.4,2.16V133l.1.22v1.08A14.33,14.33,0,0,0,24.1,139.2Zm.8,0,.1.08-.1-.08a1.38,1.38,0,0,1-.4-.3C24.6,139,24.8,139.1,24.9,139.2Z"/><path class="cls-1" d="M19.2,130.1v.4h.5a.35.35,0,0,1-.1-.2v-.2Z"/></svg>