<svg id="Ebene_1" data-name="Ebene 1" xmlns="http://www.w3.org/2000/svg" viewBox="0 0 185.22 288"><defs><style>.cls-1{fill:#717171;}</style></defs><title>MngExPflege</title><path class="cls-1" d="M29.6,174.51a6.65,6.65,0,0,0-6.3.48,6.58,6.58,0,0,0-3,5.57,6.69,6.69,0,0,0,3.81,6l34.32,15.92H162.83a6.6,6.6,0,1,0,0-13.2H62.41Zm138.61,21.31a5.4,5.4,0,0,1-5.39,5.39H58.72l-34.08-15.8a5.49,5.49,0,0,1-3.15-4.9A5.4,5.4,0,0,1,24,176a5.21,5.21,0,0,1,5.15-.36l33.11,14.77h100.6A5.49,5.49,0,0,1,168.22,195.82Z" transform="translate(-7.39 -6)"/><path class="cls-1" d="M148.12,189.16V183a6.77,6.77,0,0,0-6.78-6.78H91.83A6.77,6.77,0,0,0,85,183v6.17h1.21V183a5.55,5.55,0,0,1,5.57-5.57h49.51a5.55,5.55,0,0,1,5.57,5.57v6.17Z" transform="translate(-7.39 -6)"/><path class="cls-1" d="M129.9,6c-30.08,0-56.41,14.59-71,36.32V14.11H36V42.74H7.39V65.62H36V94.25H58.84V65.62H87.47V42.74H60.05C74.46,21.44,100.36,7.21,129.84,7.21H191.4V17.56h-.12v128h-13.2V58.9H162.47v86.62h-13.2V75.67H133.65v69.85H120.88V95.7H105.27v49.82H90.92v-6.23l-11.86,6.84L90.92,153v-6.23H106.6V96.92h13.2v49.82H135V76.88h13.2v69.85H163.8V60.11h13.07v86.62H191.4V292H148.61v1.21h44V6ZM86.26,64.35H57.63V93H37.17V64.35H8.6V44H37.23V15.32h20.4V44H86.26v20.4Zm3.45,86.56-8.23-4.72,8.23-4.72Z" transform="translate(-7.39 -6)"/><path class="cls-1" d="M96.85,242.19l26.75-19h45.76V208.9H15.62V111.68H47.34v11.62h.12L36.75,146.67h22.7l-10.9-23.91V111.68H66.1v-1.21H14.41V223.18H68.22l26.51,19L67.92,261.25h-11v11.2h76v-11.2h-9.32ZM57.63,145.46H38.68l9.5-20.7Zm74,117v8.78H58.05v-8.78H131.6ZM168.16,222H123.42l-.06-.12-.12.12H68.65l-.12-.12-.06.12H15.68V210.11H168.22V222Zm-97.88,1.21h51.21L95.82,241.4Zm25.54,19.73,25.6,18.34H70Z" transform="translate(-7.39 -6)"/><path class="cls-1" d="M70,274.39a9.81,9.81,0,1,0,9.81,9.81A9.84,9.84,0,0,0,70,274.39Zm0,18.4a8.6,8.6,0,1,1,8.6-8.6A8.63,8.63,0,0,1,70,292.79Z" transform="translate(-7.39 -6)"/><path class="cls-1" d="M70,279.84a4.36,4.36,0,1,0,4.36,4.36A4.38,4.38,0,0,0,70,279.84Zm0,7.45a3.16,3.16,0,0,1-3.15-3.15,3.15,3.15,0,1,1,6.3,0A3.16,3.16,0,0,1,70,287.28Z" transform="translate(-7.39 -6)"/><path class="cls-1" d="M119.43,274.39a9.81,9.81,0,1,0,9.81,9.81A9.84,9.84,0,0,0,119.43,274.39Zm0,18.4a8.6,8.6,0,1,1,8.6-8.6A8.63,8.63,0,0,1,119.43,292.79Z" transform="translate(-7.39 -6)"/><path class="cls-1" d="M119.43,279.84a4.36,4.36,0,1,0,4.36,4.36A4.38,4.38,0,0,0,119.43,279.84Zm0,7.45a3.16,3.16,0,0,1-3.15-3.15,3.15,3.15,0,1,1,3.15,3.15Z" transform="translate(-7.39 -6)"/></svg>