<svg id="Ebene_1" data-name="Ebene 1" xmlns="http://www.w3.org/2000/svg" viewBox="0 0 157.9 287"><defs><style>.cls-1{fill:#717171;}</style></defs><title>NeuralEngineering</title><path class="cls-1" d="M111.55,40.89a7.68,7.68,0,1,0-7.68,7.68A7.7,7.7,0,0,0,111.55,40.89Zm-14.1,0a6.48,6.48,0,1,1,6.48,6.48A6.49,6.49,0,0,1,97.45,40.89Z" transform="translate(-21.05 -6.5)"/><path class="cls-1" d="M103.93,6.5a75.27,75.27,0,0,0-72.5,55.34h-.12v.42a73.69,73.69,0,0,0-2.52,19.39q0,3.69.36,7.38L21,116.75l15.42,7.62,4.62,41.47H74v57.8H75.3V164.58H42.17l-4.56-41.05-15.12-7.44,7.74-26.41h.18c0-.18-.06-.36-.06-.48-.12-1.2-.24-2.4-.3-3.6s-.12-2.58-.12-3.9a72.81,72.81,0,0,1,1.26-13.62q.54-2.88,1.26-5.58a73.89,73.89,0,1,1,106.41,84.26l.18.36h-.18V256.53h1.26V147.48a75.17,75.17,0,0,0-36.19-141Z" transform="translate(-21.05 -6.5)"/><path class="cls-1" d="M126,38.85a6.53,6.53,0,1,0-5.1,2.46,6.37,6.37,0,0,0,4.26-1.62l11,11L109.81,77V293.5H111V77.5l26.77-26.77Zm-5.16,1.44a5.52,5.52,0,1,1,4.38-2.16l-.84.9A5.42,5.42,0,0,1,120.8,40.29Z" transform="translate(-21.05 -6.5)"/><polygon class="cls-1" points="42.97 57.92 72.5 87.44 73.34 86.6 44.65 57.92 73.88 28.69 73.04 27.85 42.97 57.92"/><path class="cls-1" d="M76,98.15a6.49,6.49,0,1,0-2.34,5l21.07,21.07V219h1.2V123.77L74.52,102.35A6.42,6.42,0,0,0,76,98.15ZM73,102.47a5.4,5.4,0,0,1-3.42,1.2,5.55,5.55,0,1,1,4.32-2.1A6.37,6.37,0,0,1,73,102.47Z" transform="translate(-21.05 -6.5)"/><path class="cls-1" d="M151.4,87.88a6.54,6.54,0,1,0-6.54-6.54,6.21,6.21,0,0,0,1.8,4.44l-22,22-.18.18-.18,142.84h1.2l.18-142.36,21.85-21.85A6.2,6.2,0,0,0,151.4,87.88Zm-4-2.82a5.48,5.48,0,1,1,4,1.8,5.64,5.64,0,0,1-3.12-1A6.17,6.17,0,0,1,147.38,85.06Z" transform="translate(-21.05 -6.5)"/><polygon class="cls-1" points="73.46 58.22 73.82 58.58 88.83 43.57 88.47 43.21 88.11 42.85 73.1 57.86 73.46 58.22"/><polygon class="cls-1" points="136.3 45.67 135.94 45.31 123.94 57.32 124.66 58.04 136.66 46.03 136.3 45.67"/></svg>