<svg id="Ebene_1" data-name="Ebene 1" xmlns="http://www.w3.org/2000/svg" viewBox="0 0 171.99 292.33"><defs><style>.cls-1{fill:#717171;}</style></defs><title>PflegeBsc</title><path class="cls-1" d="M62,105A28.95,28.95,0,1,0,91,134,28.94,28.94,0,0,0,62,105ZM42.89,154l13.34-13.34a9.13,9.13,0,0,0,5.12,2.15v18.9A28.26,28.26,0,0,1,42.89,154Zm26.67-20h0a2.15,2.15,0,0,1-.06.63,7.67,7.67,0,0,1-1.64,4.11,1.48,1.48,0,0,1-.44.44l-.44.44a7.56,7.56,0,0,1-4.36,1.83c-.19,0-.44.06-.63.06h0a2.15,2.15,0,0,1-.63-.06,7.3,7.3,0,0,1-4.23-1.77,1.48,1.48,0,0,1-.44-.44l-.44-.44a7.3,7.3,0,0,1-1.77-4.23c0-.19-.06-.44-.06-.63h0a2.15,2.15,0,0,1,.06-.63,7.67,7.67,0,0,1,1.64-4.11,1.48,1.48,0,0,1,.44-.44l.44-.44a7.56,7.56,0,0,1,4.36-1.83c.19,0,.44-.06.63-.06h0a2.15,2.15,0,0,1,.63.06,7.3,7.3,0,0,1,4.23,1.77,1.48,1.48,0,0,1,.44.44l.44.44a7.3,7.3,0,0,1,1.77,4.23A2.15,2.15,0,0,1,69.57,134Zm11.57-20L67.8,127.34a9.13,9.13,0,0,0-5.12-2.15v-18.9A27.69,27.69,0,0,1,81.13,114ZM61.41,125.19a8.59,8.59,0,0,0-5.25,2.21L42.58,114.32a27.79,27.79,0,0,1,18.84-8Zm-19.72-9.92,13.59,13.08a8.79,8.79,0,0,0-2,5H34.36A27.24,27.24,0,0,1,41.69,115.27Zm11.57,19.34a8.33,8.33,0,0,0,2.15,5.12L42.07,153.07a27.33,27.33,0,0,1-7.65-18.46H53.26Zm9.42,8.15a8.59,8.59,0,0,0,5.25-2.21l13.59,13.08a27.79,27.79,0,0,1-18.84,8Zm19.72,9.92L68.81,139.6a8.79,8.79,0,0,0,2-5h18.9A27.56,27.56,0,0,1,82.4,152.69ZM70.83,133.34a8.33,8.33,0,0,0-2.15-5.12L82,114.89a27.33,27.33,0,0,1,7.65,18.46H70.83Z" transform="translate(-14.01 -3.83)"/><path class="cls-1" d="M35,103.7h.13A40.55,40.55,0,1,0,102.62,134a42.05,42.05,0,0,0-2.21-13.27h7.65l17.26,40.14a7.1,7.1,0,0,0-4.87,6.76,7.18,7.18,0,0,0,7.14,7.14,7.26,7.26,0,0,0,4.68-1.77H143v-8.79h-9.1a7.26,7.26,0,0,0-6.32-3.79c-.32,0-.7.06-1,.06l-17.13-39.82h3.73v-8.79H96.11a40.81,40.81,0,0,0-5.06-6.38v-30H36.32v-21H14v8.79h21V103.7Zm76.86,9.54v6.26H92v-6.26h19.85ZM90.8,112v8.79H99A38.54,38.54,0,0,1,101.3,134,39.3,39.3,0,1,1,94.53,112Zm41.53,52.27c.13.19.25.44.38.63s.19.44.32.63a5.91,5.91,0,0,1,.38,2.15,5.78,5.78,0,0,1-1.71,4.11,6.69,6.69,0,0,1-.76.63,6,6,0,0,1-1.07.63,5.75,5.75,0,0,1-2.34.51,5.89,5.89,0,0,1-1.77-11.5,1.87,1.87,0,0,1,.63-.13,2.15,2.15,0,0,1,.63-.06h.51A5.5,5.5,0,0,1,132.33,164.25Zm9.35,1.26v6.26H133.4a7.08,7.08,0,0,0,1.33-4.11,8,8,0,0,0-.32-2.15Zm-52-88.62v27.5a40.48,40.48,0,0,0-53.47-1.64V77H89.73ZM15.14,55.79H34.93V62H15.14Z" transform="translate(-14.01 -3.83)"/><path class="cls-1" d="M161.85,173.54a8.34,8.34,0,0,0-8.34,8.34v31.73a5.49,5.49,0,0,1-1.71,4l-17.07,17.07-4.42-4.42,12.77-12.77a9.74,9.74,0,0,0-13.78-13.78L102.69,230.3A22.76,22.76,0,0,0,96,246.49V296.1h38.56V278.78l28.95-28.95a22.76,22.76,0,0,0,6.7-16.18V181.82A8.36,8.36,0,0,0,161.85,173.54Zm7.08,60.11a21.73,21.73,0,0,1-6.32,15.3l-29.26,29.26v16.62h-36V246.49a21.73,21.73,0,0,1,6.32-15.3l26.61-26.61a8.49,8.49,0,1,1,12,12L128.47,230.3l6.19,6.19,18-18a6.93,6.93,0,0,0,2-4.93V181.89a7.08,7.08,0,0,1,14.16,0v51.77Z" transform="translate(-14.01 -3.83)"/><path class="cls-1" d="M57.81,203.76A9.74,9.74,0,0,0,44,217.54L56.8,230.3l-4.42,4.42L35.31,217.66a5.75,5.75,0,0,1-1.71-4V181.89a8.34,8.34,0,1,0-16.69,0v51.83a22.76,22.76,0,0,0,6.7,16.18l28.95,28.95v17.32H91.12V246.55a22.76,22.76,0,0,0-6.7-16.18Zm32,91.08h-36V278.22L24.56,249a21.47,21.47,0,0,1-6.32-15.3V181.82a7.08,7.08,0,1,1,14.16,0v31.73a7.09,7.09,0,0,0,2,4.93l18,18,6.19-6.19L44.92,216.59a8.49,8.49,0,0,1,12-12l26.61,26.61a21.47,21.47,0,0,1,6.32,15.3v48.35Z" transform="translate(-14.01 -3.83)"/><path class="cls-1" d="M166.9,56.11V45.74L186,35.44l-60-31.6L71.21,30.06l21.93,12.7V64.89l35,22,30.72-17.82V50.16l6.89-3.73v9.67a4.39,4.39,0,0,0-2.84,7.08V74.5a3.48,3.48,0,0,0,7,0V63.12a4.34,4.34,0,0,0-2.91-7Zm-9.42,12.33L128.1,85.5,94.41,64.32V43.59l36.53,21.24.32.19L157.49,50.8ZM131.26,63.5,73.86,30.19l52.08-24.9L183.34,35.5l-17,9.17L142,30.38l-.63,1.07L165,45.36Zm35-6.19a3.13,3.13,0,0,1,3.16,3.16,3.25,3.25,0,0,1-.63,1.9,3.08,3.08,0,0,1-2.47,1.26h-.06a3.08,3.08,0,0,1-2.47-1.26,3.25,3.25,0,0,1-.63-1.9A3.08,3.08,0,0,1,166.27,57.31Zm2.21,17.26a2.21,2.21,0,0,1-4.42,0V64.32a4.59,4.59,0,0,0,4.42,0Z" transform="translate(-14.01 -3.83)"/><rect class="cls-1" x="151.63" y="77.93" width="1.26" height="12.33"/><rect class="cls-1" x="151.63" y="141.46" width="1.26" height="12.33"/><rect class="cls-1" x="151.63" y="96.58" width="1.26" height="38.87"/><polygon class="cls-1" points="22.25 27.75 40.01 27.75 40.01 26.48 20.98 26.48 20.98 39.95 22.25 39.95 22.25 27.75"/><path class="cls-1" d="M100.92,216.08a7.14,7.14,0,1,0-7.14,7.14A7.18,7.18,0,0,0,100.92,216.08ZM93.77,222a5.88,5.88,0,1,1,5.88-5.88A5.91,5.91,0,0,1,93.77,222Z" transform="translate(-14.01 -3.83)"/><path class="cls-1" d="M86.63,191.87a7.14,7.14,0,1,0,7.14-7.14A7.1,7.1,0,0,0,86.63,191.87Zm7.14,5.88a5.88,5.88,0,1,1,5.88-5.88A5.91,5.91,0,0,1,93.77,197.75Z" transform="translate(-14.01 -3.83)"/></svg>