<svg id="Ebene_1" data-name="Ebene 1" xmlns="http://www.w3.org/2000/svg" viewBox="0 0 159.74 291"><defs><style>.cls-1{fill:#717171;}</style></defs><title>PraktischeInformatik</title><path class="cls-1" d="M51.84,103.82H38.36v13.47H51.84Zm-1.22,12.25h-11V105h11Z" transform="translate(-20.13 -4.5)"/><path class="cls-1" d="M38.36,137.23H51.84V123.75H38.36ZM39.58,125h11v11h-11Z" transform="translate(-20.13 -4.5)"/><path class="cls-1" d="M38.36,157.16H51.84V143.69H38.36Zm1.22-12.25h11v11h-11Z" transform="translate(-20.13 -4.5)"/><path class="cls-1" d="M38.36,177.1H51.84V163.63H38.36Zm1.22-12.25h11v11h-11Z" transform="translate(-20.13 -4.5)"/><path class="cls-1" d="M51.84,56.44H38.36V69.92H51.84ZM50.62,68.7h-11v-11h11Z" transform="translate(-20.13 -4.5)"/><path class="cls-1" d="M98.78,40a6.58,6.58,0,1,0,6.58,6.58A6.6,6.6,0,0,0,98.78,40Zm0,12a5.37,5.37,0,1,1,5.37-5.37A5.37,5.37,0,0,1,98.78,52.05Z" transform="translate(-20.13 -4.5)"/><path class="cls-1" d="M51.84,74.37H38.36V87.84H51.84ZM50.62,86.62h-11v-11h11Z" transform="translate(-20.13 -4.5)"/><path class="cls-1" d="M158.65,103.76H145.18v13.47h13.47ZM157.43,116h-11V105h11Z" transform="translate(-20.13 -4.5)"/><path class="cls-1" d="M158.65,123.69H145.18v13.47h13.47Zm-1.22,12.25h-11v-11h11Z" transform="translate(-20.13 -4.5)"/><path class="cls-1" d="M145.18,157.16h13.47V143.69H145.18Zm1.22-12.25h11v11h-11Z" transform="translate(-20.13 -4.5)"/><path class="cls-1" d="M158.65,74.31H145.18V87.78h13.47Zm-1.22,12.25h-11v-11h11Z" transform="translate(-20.13 -4.5)"/><path class="cls-1" d="M173.16,267.33a6.62,6.62,0,0,0-6.58,6h-14V177.1h6.1V163.63H145.18V177.1h6.1v96.27H126v-2.13l.06-2.62c.06-5.79.18-12.32,0-15.85a5.26,5.26,0,0,0-1.65-3.66,4.75,4.75,0,0,0-3.11-1.65h-.06c-.12,0-.3-.06-.43-.06h-.55a1,1,0,0,0-.43.06h-.06c-.12,0-.24.06-.43.06h-.12c-.12.06-.24.06-.37.12l-.12.06-.43.18h-.06a7.94,7.94,0,0,0-.91.61l-.06.06a1.93,1.93,0,0,1-.37.3l-.12.12a1.33,1.33,0,0,0-.24.3l-.12.12a1.33,1.33,0,0,0-.18.3l-.12.18c-.06.12-.12.18-.18.3l-.06.18c-.06.12-.06.24-.12.37l-.06.24a3.89,3.89,0,0,0-.12.43.22.22,0,0,1-.06.18c0,.12-.06.3-.06.43v14.75c0,.12-.37.24-.67.24s-.61-.06-.67-.12c.12-5.61.18-37.92.18-38.23a4.69,4.69,0,0,0-9.33-.73l-.06.3v24.87a1.24,1.24,0,0,1-.85.37.66.66,0,0,1-.43-.18c-.06-.06-.12-.12-.12-.18V222.46a4.64,4.64,0,0,0-3.41-4.45,2.17,2.17,0,0,0-.61-.12v-8.47h0a2.07,2.07,0,0,0,.61-.06,6.6,6.6,0,0,0-.61-13.17h-.24V189c18.41-.18,33.29-8.35,33.29-18.35v-.37h0V149.79h0c-.3-9.51-15.06-17.13-33.29-17.31V125h6V96.26H151a24.45,24.45,0,1,0,0-48.9h-4.51A34,34,0,1,0,80.31,31.94,20.67,20.67,0,0,0,46.17,47.36H44.7a24.45,24.45,0,1,0,0,48.9H92V125h6v7.44c-18.29.12-33.11,7.86-33.41,17.38h0v20.55h0v.37c0,10,14.94,18.23,33.47,18.35v7.32A6.69,6.69,0,0,0,93,202.28H33.3a6.69,6.69,0,1,0-1.89,5.18,6.34,6.34,0,0,0,1.83-4H92.93A6.68,6.68,0,0,0,98,209.29v8.66a4.7,4.7,0,0,0-3.78,4.57v30.3a.29.29,0,0,1-.3.3H93a.29.29,0,0,1-.3-.3v-25.3a4.39,4.39,0,1,0-8.78,0v25a.29.29,0,0,1-.3.3h-.67a.29.29,0,0,1-.3-.3V233a4.75,4.75,0,0,0-4.69-4.76h0A4.76,4.76,0,0,0,73.17,233v.12a2.1,2.1,0,0,0-.06.55c0,5.12,0,10,.06,14.51,0,1.28.06,2.56.06,3.78.12,9.69.43,16.89.79,21.52H33.48a6.58,6.58,0,1,0,0,1.22H74.15a40.41,40.41,0,0,0,.55,4,21,21,0,0,0,2.74,6.71,24.5,24.5,0,0,0,6.58,6.4c4.51,3.17,12.38,3.66,16.64,3.66,10.06,0,14.75-3.11,15.55-3.78.3-.24.61-.49,1-.73l.18-.12a1.33,1.33,0,0,0,.3-.24,9.37,9.37,0,0,0,.79-.73l.12-.12c.12-.12.3-.24.43-.37a5.75,5.75,0,0,0,.61-.61l.06-.06.55-.55c.12-.18.3-.3.43-.49s.43-.55.67-.79c.06-.06.12-.18.24-.24l.06-.06c.24-.3.49-.61.73-1l.12-.18.73-1.1.06-.06c.24-.43.49-.79.73-1.16a7,7,0,0,0,.61-1.16l.06-.12c.12-.3.3-.61.43-.85s.12-.3.18-.43l.06-.18c.06-.06.06-.18.12-.24a8.64,8.64,0,0,0,.67-2.87c.06-.61.06-1.46.06-2.5H166.7a6.6,6.6,0,0,0,13.17-.61A6.91,6.91,0,0,0,173.16,267.33ZM167.8,274a5.37,5.37,0,1,1,5.37,5.37A5.37,5.37,0,0,1,167.8,274ZM146.4,164.85h11v11h-11ZM124.87,274.59c0,1-.06,1.83-.06,2.44a10.41,10.41,0,0,1-.61,2.5c0,.06-.06.18-.06.24l-.06.18a3,3,0,0,0-.18.43c-.12.24-.24.55-.37.85l-.06.12c-.18.37-.37.67-.55,1.1a10.6,10.6,0,0,1-.67,1.1v.06a10.78,10.78,0,0,1-.73,1l-.12.18c-.24.3-.43.61-.67.91l-.06.06c-.06.06-.12.18-.18.24-.18.24-.43.49-.67.79-.12.12-.24.3-.37.43a3.94,3.94,0,0,0-.49.55l-.06.06a5.75,5.75,0,0,1-.61.61l-.37.37-.12.12a9.12,9.12,0,0,1-.79.67c-.12.06-.18.18-.3.24l-.18.18-.91.73c-.49.37-4.94,3.54-14.82,3.54-4.15,0-11.77-.43-16-3.41a25,25,0,0,1-6.28-6.1,18.71,18.71,0,0,1-2.62-6.34,34.17,34.17,0,0,1-.55-3.72c0-.18-.06-.43-.06-.61s-.06-.43-.06-.61c-.37-4.63-.61-11.89-.79-21.52V232.89a1.19,1.19,0,0,1,.06-.49v-.18h0a2.69,2.69,0,0,1,.37-1h0a.84.84,0,0,1,.18-.24h0a.84.84,0,0,1,.18-.24l.06-.06.18-.18.06-.06.18-.18c.06-.06.06-.06.12-.06s.12-.06.18-.12.06-.06.12-.06.12-.06.12-.12.12-.06.18-.06a.21.21,0,0,0,.12-.06c.06,0,.12-.06.18-.06a.21.21,0,0,0,.12-.06c.06,0,.12-.06.18-.06s.06,0,.12-.06a.22.22,0,0,0,.18-.06h.49A3.49,3.49,0,0,1,81.34,233v19.51A1.51,1.51,0,0,0,82.87,254h.85a1.51,1.51,0,0,0,1.52-1.52v-25a3.17,3.17,0,1,1,6.34,0v25.3a1.51,1.51,0,0,0,1.52,1.52h1a1.51,1.51,0,0,0,1.52-1.52V222.46a3.4,3.4,0,0,1,2.56-3.29c.18-.06.43-.06.61-.12h.61a.37.37,0,0,1,.24.06l.61.18a3.38,3.38,0,0,1,2.19,3.17v30.61a1.5,1.5,0,0,0,.49,1,1.69,1.69,0,0,0,1.34.49c.79-.06,2-.61,2-1.59V228.25l.06-.24a3.47,3.47,0,0,1,6.89.55c0,.3-.06,33-.18,38.35V267c.06.37.37,1.1,1.89,1.1s1.83-1,1.83-1.4V252.09a.77.77,0,0,1,.06-.37v-.18c0-.12.06-.18.06-.24l.06-.18c0-.06.06-.18.06-.24l.06-.18c.06-.06.06-.18.12-.24l.06-.18c.06-.06.06-.12.12-.18l.06-.12.18-.18.06-.06c.06-.06.18-.12.24-.24h.06a3.7,3.7,0,0,1,.61-.43h.06c.12-.06.18-.12.3-.12H119a.55.55,0,0,1,.3-.06h.12c.12,0,.18-.06.3-.06h.06a.55.55,0,0,0,.3-.06h.43a.77.77,0,0,1,.37.06h0a4,4,0,0,1,2.38,1.28l.06.06a4.06,4.06,0,0,1,1.28,2.87c.18,3.54.06,10,0,15.79l-.06,2.62v2.74C124.87,274.16,124.87,274.41,124.87,274.59ZM94.27,202.83h0a2.07,2.07,0,0,1,.06-.61,5.43,5.43,0,0,1,3.9-4.57,2.17,2.17,0,0,1,.61-.12,2.07,2.07,0,0,1,.61-.06h.24a5.38,5.38,0,0,1,.61,10.73c-.18,0-.43.06-.61.06h-.61a.37.37,0,0,1-.24-.06c-.18-.06-.43-.06-.61-.12a5.43,5.43,0,0,1-3.9-4.57A3,3,0,0,1,94.27,202.83Zm-28.9-32.5H66V154.79a17,17,0,0,0,4.94,5.43c.18.12.3.24.49.37a3.38,3.38,0,0,1,.49.37c6.1,4.08,15.61,6.77,26.34,6.83h1.22c10.67-.12,20.12-2.74,26.22-6.83a3.38,3.38,0,0,0,.49-.37c.18-.12.3-.24.49-.37a17,17,0,0,0,4.94-5.43v15.55h0v.37c0,9.33-14.33,16.95-32.07,17.13H98.29C80.49,187.65,66,180,66,170.7v-.37ZM66,150.09v-.3c.37-8.84,14.63-16,32.19-16.16h1.22c17.56.18,31.76,7.32,32.07,16.1v.61a2.07,2.07,0,0,1-.06.61c-.37,3.17-2.44,6.1-5.85,8.54-.18.12-.3.24-.49.37l-.55.37c-5.85,3.78-14.94,6.22-25.18,6.34H98.11c-10.24-.06-19.39-2.56-25.3-6.34l-.55-.37c-.18-.12-.3-.24-.49-.37-3.41-2.44-5.49-5.37-5.85-8.54a2.07,2.07,0,0,0-.06-.61C66,150.27,66,150.21,66,150.09ZM44.82,48.52h2.68v-1A19.46,19.46,0,0,1,67,28.09a19.27,19.27,0,0,1,13.41,5.37l.85.79.18-1.16a32.74,32.74,0,0,1,65.05,5.24,34.15,34.15,0,0,1-1.34,9.33l-.24.79H151a23.23,23.23,0,1,1,0,46.46H105.37V76.14a22,22,0,1,0-13.29,0V95H44.76a23.23,23.23,0,1,1,.06-46.46Zm59.38,26.7a19.77,19.77,0,0,1-5.43.73,20.09,20.09,0,0,1-5.43-.73L92.74,75l-.61-.18a20.79,20.79,0,1,1,13.29,0l-.61.18C104.57,75.1,104.39,75.16,104.21,75.22Zm-10.85,21V76.5a24.79,24.79,0,0,0,4.82.67h1.22a21.33,21.33,0,0,0,4.82-.67v47.25H99.39V111.13H98.17v12.62H93.35ZM32.2,203.44a5.2,5.2,0,0,1-1.52,3.17,5.44,5.44,0,0,1-3.84,1.65,5.37,5.37,0,1,1,5.37-6c0,.18.06.43.06.61h0A1.35,1.35,0,0,0,32.2,203.44Zm0,71.15a5.37,5.37,0,1,1,0-1.22c0,.18.06.43.06.61h0A2.07,2.07,0,0,0,32.2,274.59Z" transform="translate(-20.13 -4.5)"/></svg>