<svg id="Ebene_1" data-name="Ebene 1" xmlns="http://www.w3.org/2000/svg" viewBox="0 0 194.8 288.91"><defs><style>.cls-1{fill:none;}.cls-2{fill:#717171;}</style></defs><title>Rechnungsprüfung</title><path class="cls-1" d="M138.83,118.93V29.58A89.84,89.84,0,0,0,76.46,55.18Z" transform="translate(-4.2 -7.45)"/><path class="cls-1" d="M106.32,287.85H122.1V227.95A99.44,99.44,0,0,1,106.32,220Z" transform="translate(-4.2 -7.45)"/><polygon class="cls-1" points="12.47 286.75 12.47 275.18 2.4 280.94 12.47 286.75"/><polygon class="cls-1" points="152.49 2.4 146.68 12.47 158.25 12.47 152.49 2.4"/><path class="cls-1" d="M57,26.1a10,10,0,1,0,6.6,17.57l.42-.42a2.77,2.77,0,0,0,.42-.42A10.27,10.27,0,0,0,67,36.12,10,10,0,0,0,57,26.1Z" transform="translate(-4.2 -7.45)"/><path class="cls-1" d="M48.94,119.41h88.63L75.56,56A90.23,90.23,0,0,0,48.94,119.41Z" transform="translate(-4.2 -7.45)"/><path class="cls-1" d="M157.3,136.62v1.86H155l-93.49-.12a94.52,94.52,0,0,0,28,66.74l.24.24h16.55v13.19a95.24,95.24,0,0,0,15.77,8c.18.06.42.18.6.24a2.51,2.51,0,0,0,.6.24,94.65,94.65,0,0,0,15.77,4.44c.18.06.42.06.6.12s.42.06.6.12A91.82,91.82,0,0,0,156,233.16h1.2a94.34,94.34,0,0,0,41.76-10V52.84a94.2,94.2,0,0,0-41.7-10Z" transform="translate(-4.2 -7.45)"/><path class="cls-1" d="M140.26,287.85H156V234.36A91.8,91.8,0,0,1,140.26,233Z" transform="translate(-4.2 -7.45)"/><path class="cls-2" d="M157.24,233.16H156a91.82,91.82,0,0,1-15.77-1.44c-.18-.06-.42-.06-.6-.12s-.42-.06-.6-.12A94.65,94.65,0,0,1,123.29,227a2.51,2.51,0,0,1-.6-.24c-.18-.06-.42-.18-.6-.24a95.24,95.24,0,0,1-15.77-8V205.34H89.77l-.24-.24a94.52,94.52,0,0,1-28-66.74l93.49.12h2.28V42.83a94.2,94.2,0,0,1,41.7,10V51.51a95.5,95.5,0,0,0-41.76-9.88V21.12h7.26L156.64,7.45l-7.86,13.67H156V136.56L140,120.13V28.38h-.6a91.41,91.41,0,0,0-63.8,25.91L65.25,43.73a10.92,10.92,0,0,0,2.94-7.56,11.31,11.31,0,1,0-3.84,8.4L74.66,55.12a91.36,91.36,0,0,0-27,64.88v.6h91l16.43,16.79-94.93-.12v.78A95.61,95.61,0,0,0,88,205.52v82.39H72.74V229.14H54.57v58.77H17.88v-7.26L4.2,288.51l13.67,7.86v-7.26h38V230.34H71.66v58.77H89.35V206.6h15.77V289h18.17V228.36a94.48,94.48,0,0,0,15.77,4.38V289h18.17V234.36A95.41,95.41,0,0,0,199,224.48v-1.32A94.34,94.34,0,0,1,157.24,233.16ZM150.88,19.92,156.7,9.85l5.76,10.07ZM64,43.25l-.42.42A10,10,0,1,1,67,36.12a10.27,10.27,0,0,1-2.58,6.72A2.77,2.77,0,0,1,64,43.25ZM48.94,119.41A90.23,90.23,0,0,1,75.56,56l62,63.44Zm89.89-.48L76.46,55.18a89.84,89.84,0,0,1,62.36-25.61ZM16.68,294.21,6.6,288.39l10.07-5.76Zm105.42-6.36H106.32V220a99.44,99.44,0,0,0,15.77,7.92Zm33.94,0H140.26V233A91.8,91.8,0,0,0,156,234.36Z" transform="translate(-4.2 -7.45)"/><rect class="cls-2" x="193.48" y="44.55" width="1.3" height="172.33"/></svg>