<svg id="Ebene_1" data-name="Ebene 1" xmlns="http://www.w3.org/2000/svg" viewBox="0 0 191.8 285.5"><defs><style>.cls-1{fill:#717171;}</style></defs><title>SozialeArbeit</title><path class="cls-1" d="M66.7,87.9a1.27,1.27,0,0,1-.6-.1c.2,0,.4.1.6.1h.6V86.7h-.6a2.17,2.17,0,0,1-.4-.08v0A16.5,16.5,0,0,1,51,70.1a16.24,16.24,0,0,1,4.4-11.2l0-.05.35-.35-.4-.4-.4-.4L34.6,37.6l20.3,20,.4.4.4-.4-.4-.4L35,37.2l-.4-.4c-.1.1-.3.2-.4.4l-.4-.4-.4.4-.1-.1a14.46,14.46,0,0,1-4.3,3l.2.5a15.7,15.7,0,0,0,4.5-3.1l.1.1a15.7,15.7,0,0,1-4.5,3.1l.2.5A17,17,0,0,0,34.2,38L54.5,58.1A17.81,17.81,0,0,0,66.1,87.9l-.7,15.3a1.27,1.27,0,0,1,.6.1ZM50.4,70.1a17.14,17.14,0,0,1,4.5-11.6l.05.05A17.16,17.16,0,0,0,66.1,87.17v0c.2,0,.4.1.6.1a1.27,1.27,0,0,1-.6-.1v.1A17.29,17.29,0,0,1,50.4,70.1Z" transform="translate(-4.1 -7.2)"/><path class="cls-1" d="M145.6,127.2l-20.3,20.1a3,3,0,0,1,.8.8L146.4,128A6,6,0,0,1,145.6,127.2Z" transform="translate(-4.1 -7.2)"/><path class="cls-1" d="M112.4,42.8v-.6h-.1V41.6A16.56,16.56,0,0,1,113,8.5a16.75,16.75,0,0,1,16.6,16.6,16.55,16.55,0,0,1-16,16.5v.1h-.5v-.1h-.6v.6h.6v.1h-.6V97.9h1.2V42.8a17.75,17.75,0,1,0-1.3,0Zm-1.77-.74c.31,0,.62.05.93.08C111.25,42.12,110.93,42.1,110.63,42.06ZM106,40.74c.28.12.56.22.84.33C106.52,41,106.23,40.86,106,40.74Zm1.46.57a16.91,16.91,0,0,0,3.06.72A16.49,16.49,0,0,1,107.42,41.31ZM130.3,25.1a17.12,17.12,0,0,1-16.6,17.1h0a17.15,17.15,0,0,0-.65-34.29h0A17.2,17.2,0,0,1,130.3,25.1Z" transform="translate(-4.1 -7.2)"/><path class="cls-1" d="M158,42.8V97.3a17.85,17.85,0,0,0-17.1,17.1h.6A17.2,17.2,0,0,1,158,97.9h1.2V42.3H158v-.1h1.2v-.6H158a16.65,16.65,0,1,1,1.3,0v.6h0v.6a17.75,17.75,0,1,0-1.3,0Z" transform="translate(-4.1 -7.2)"/><path class="cls-1" d="M55.85,57.55l.35.35a17.53,17.53,0,0,1,11.4-4.4,16.55,16.55,0,1,1,0,33.1h-.2v.6h.2A17.2,17.2,0,0,0,84.8,70s0,0,0,0A17.2,17.2,0,0,1,67.6,87.3h-.2v.6h.2A17.8,17.8,0,1,0,55.4,57.2l.4.4Z" transform="translate(-4.1 -7.2)"/><path class="cls-1" d="M55.4,58.1l.4.4c.1-.1.2-.3.4-.4l-.4-.4Z" transform="translate(-4.1 -7.2)"/><path class="cls-1" d="M21.9,132.9a17.85,17.85,0,0,0,17.8-17.2H53.5a11.93,11.93,0,0,0,21,7.1,8.65,8.65,0,0,0,.7-1l-.4-.4c-.3.4-.5.7-.7,1a11.39,11.39,0,0,1-8.7,4,11.32,11.32,0,0,0,8.7-4.1l-.06-.06.62-.88,0,0a11.07,11.07,0,0,0,1.9-6.2A11.27,11.27,0,0,0,66.5,104v0l.1,0v-.1a11.38,11.38,0,0,1,10.1,11.3,10.83,10.83,0,0,1-1.9,6.2l.4.4a11.83,11.83,0,0,0-8.6-18.5L67.3,88h-.6L66,103.3a1.27,1.27,0,0,1,.6.1,6148.79,6148.79,0,0,0-1.2-.2,11.84,11.84,0,0,0-6.2,1.8l.2.5a12.75,12.75,0,0,1,2.32-1.06,13,13,0,0,0-2.33,1.11l-.18-.45a11.47,11.47,0,0,0-5.7,9.4h.1a2.36,2.36,0,0,1-.06.42,2.51,2.51,0,0,1,0-.42H39.1A17.12,17.12,0,0,0,22,97.9a17,17,0,0,1,17.1,16.5h.6a17.81,17.81,0,1,0-17.8,18.5Zm32.2-17.7a2,2,0,0,1,.1-.7C54.2,114.7,54.1,114.9,54.1,115.2Zm11.3-11.4v.6h.5a1.49,1.49,0,0,0,.6.1v.1a10.57,10.57,0,0,1,9.6,10.6,10.71,10.71,0,0,1-1.76,5.74l0,0a3.59,3.59,0,0,1-.7,1l.05.05a10.94,10.94,0,0,1-8.25,3.85,10.74,10.74,0,0,1-10.7-10.1v-.5a2,2,0,0,1,.1-.7h-.1a11,11,0,0,1,4.9-8.4l0,0a11.79,11.79,0,0,1,5.72-1.66v-.6Zm-6.08,1.85h0a11.64,11.64,0,0,0-5.22,8.84A11,11,0,0,1,59.32,105.65ZM22,132.3a17.12,17.12,0,0,0,17.1-16.6A17.06,17.06,0,0,1,22,132.3Zm16.5-17.8h.1v1.2h-.1a16.5,16.5,0,1,1,0-1.2Z" transform="translate(-4.1 -7.2)"/><path class="cls-1" d="M22,217.2a1.27,1.27,0,0,0,.6-.1,11.92,11.92,0,0,0,0-23.8,1.27,1.27,0,0,1-.6-.1v.1h-.5v1.2H22l0-.1a1.24,1.24,0,0,1,.58.1,10.72,10.72,0,0,1,0,21.4,1.3,1.3,0,0,0-.58.1l0-.1h-.5v.6h-.1v-.6a10.72,10.72,0,0,1,0-21.4v-1.2a11.92,11.92,0,0,0,0,23.8H22Zm.6-23.3a1.3,1.3,0,0,1-.58-.1h0A1.24,1.24,0,0,1,22.6,193.9Zm0,0a11.24,11.24,0,0,1,10.7,11.3A11.37,11.37,0,0,0,22.6,193.9Z" transform="translate(-4.1 -7.2)"/><path class="cls-1" d="M113.1,133a17.77,17.77,0,0,0,17.8-17.1h-.6a17.17,17.17,0,0,1-15.48,16.32A17,17,0,0,0,130.2,115.8h.1v-.1h10.6v.1a17.29,17.29,0,0,0,4.7,11.4,6,6,0,0,0,.8.8l.4-.4a6,6,0,0,1-.8-.8l0,0a3,3,0,0,0,.75.75l.4-.4-.8-.8,0,0a17,17,0,0,1-4.26-10.54v-1.2h-1.2v-.1h-10a17.86,17.86,0,0,0-17.1-17.2v.6a17.29,17.29,0,0,1,16.5,16.6v.1h-.6v1.2h-.1a16.56,16.56,0,1,1-17.2-17.2V97.4a17.81,17.81,0,0,0,.7,35.6ZM108,131.53a17.2,17.2,0,0,0,5.12.77h0a17.13,17.13,0,0,1-10.94-3.93A17.16,17.16,0,0,0,108,131.53Zm-7-28.61-.28.27Zm-5,10.47a17,17,0,0,1,2.68-7.61A17,17,0,0,0,96,113.39Zm2.71-7.67c.22-.34.46-.65.7-1C99.16,105.07,98.92,105.39,98.7,105.72Zm1-1.32c.17-.21.35-.4.53-.61C100,104,99.82,104.2,99.65,104.41Zm1.29,22.85a17.28,17.28,0,0,1-2.1-2.55A17.28,17.28,0,0,0,100.94,127.26Z" transform="translate(-4.1 -7.2)"/><path class="cls-1" d="M113.1,98h-.6v.6h1.2v-.1a16.5,16.5,0,0,1,15.9,16h.6a17.15,17.15,0,0,0-16.5-16.6V98Z" transform="translate(-4.1 -7.2)"/><path class="cls-1" d="M158.63,132.4a17.15,17.15,0,0,1-11.73-4.7l-.4.4a17.78,17.78,0,1,0,12.8-30.7V98a17.21,17.21,0,0,1-.59,34.4,17.33,17.33,0,0,0,17.19-17.2,17.12,17.12,0,0,0-16.6-17.1v.6a16.55,16.55,0,0,1-.6,33.1,17.11,17.11,0,0,1-11.4-4.5l-.4.4A17.34,17.34,0,0,0,158.63,132.4Z" transform="translate(-4.1 -7.2)"/><path class="cls-1" d="M159.2,98.6V98H158a17.2,17.2,0,0,0-16.5,16.5h.6A16.56,16.56,0,0,1,158,98.6h1.2Z" transform="translate(-4.1 -7.2)"/><polygon class="cls-1" points="18.5 153.6 18.5 153 18 153 17.9 153 18.5 153.6"/><path class="cls-1" d="M34.6,171.8l-.4-.4-.4.4.4.4.4.4,20.3,20.1.4.4.4-.4-.4-.4L35,172.2Z" transform="translate(-4.1 -7.2)"/><path class="cls-1" d="M22,143h0a17.2,17.2,0,0,1,17.2,17.2,17.43,17.43,0,0,1-4.5,11.6l.4.4a17.82,17.82,0,1,0-13.7,5.7h1.2a18.43,18.43,0,0,0,11.6-4.8l.4-.4-.4-.4c-.1.1-.3.2-.4.4a17.06,17.06,0,0,1-11.2,4.7v-.7H21.5v.6h-.2v-.59a16.56,16.56,0,1,1,17.3-16.5,16.24,16.24,0,0,1-4.4,11.2l.4.4A17.2,17.2,0,0,0,22,143Z" transform="translate(-4.1 -7.2)"/><path class="cls-1" d="M33.75,172.55l.35-.35-.4-.4c-.1.1-.2.3-.4.4l0,0A16.3,16.3,0,0,1,22.7,176.7l-.1.6a17.5,17.5,0,0,0,11.2-4.7Z" transform="translate(-4.1 -7.2)"/><path class="cls-1" d="M125.3,147.2a17.9,17.9,0,0,0-24.4,0l.4.4a17.07,17.07,0,0,1,11.8-4.6,17.73,17.73,0,0,1,11.8,4.6Z" transform="translate(-4.1 -7.2)"/><path class="cls-1" d="M101.3,147.7l-.4-.4L75.2,121.9a8.66,8.66,0,0,1-.7,1l25.6,25.2.4.4A6,6,0,0,1,101.3,147.7Z" transform="translate(-4.1 -7.2)"/><path class="cls-1" d="M125.3,147.3l-.4.4-.4.4.8.8,0,0a16.64,16.64,0,1,1-24.45,0l-.4-.4A17.33,17.33,0,0,0,96,160.1a17.15,17.15,0,1,0,34.3,0s0,0,0,.05a17.2,17.2,0,0,1-34.4,0,17.43,17.43,0,0,1,4.5-11.6l-.4-.4a17.44,17.44,0,0,0-4.7,12.1,17.8,17.8,0,0,0,35.6,0,17.52,17.52,0,0,0-4.8-12.1l-.31.31,0-.05.35-.35A6,6,0,0,0,125.3,147.3Zm.36,1.14h0l-.35-.38A2.85,2.85,0,0,1,125.66,148.44Z" transform="translate(-4.1 -7.2)"/><path class="cls-1" d="M124.4,148.1l.4-.4a17.54,17.54,0,0,0-11.8-4.6,17.15,17.15,0,0,0-11.8,4.7l0,0a3.83,3.83,0,0,0-.64.66l.4.4.8-.8,0,0a16.68,16.68,0,0,1,11.34-4.46A16.39,16.39,0,0,1,124.4,148.1Z" transform="translate(-4.1 -7.2)"/><path class="cls-1" d="M146.1,172.6l.4-.4-.4-.4-.1.1-.3.3Z" transform="translate(-4.1 -7.2)"/><path class="cls-1" d="M146.5,172.2l.4-.4-.4-.4-.4.4Z" transform="translate(-4.1 -7.2)"/><path class="cls-1" d="M67.5,187.4a17.86,17.86,0,0,0-12.2,4.9l.4.4A17.4,17.4,0,0,1,67.6,188a17,17,0,0,1,17.1,16.5v.1h-.6v1.1a16.48,16.48,0,0,1-16.5,16,17.11,17.11,0,0,1-11.4-4.5.78.78,0,0,1-.4-.4l-.4.4.4.4a17.12,17.12,0,0,0,28.89-11.8h0v-.1H95.3v.1A17.88,17.88,0,0,0,112.5,223v-.6h0v-.6a16.74,16.74,0,0,1-16-16v-1.2H95.3v-.1h-10A17.77,17.77,0,0,0,67.5,187.4Z" transform="translate(-4.1 -7.2)"/><path class="cls-1" d="M85.4,205.8h-.6a17.2,17.2,0,0,1-29,11.9l-.4.4a17.76,17.76,0,0,0,30-12.3Z" transform="translate(-4.1 -7.2)"/><path class="cls-1" d="M49.8,205.3a18.25,18.25,0,0,0,4.57,11.93L34.2,237.3l-.05.05A17.68,17.68,0,0,0,22.6,232.6v-.1h-.52l0-.1h-.6v1.2H22v.1h.6a16.52,16.52,0,0,1,10.7,4.5l.1-.1.4.4.4-.4a2.18,2.18,0,0,1-.35-.35h0l.35.35.4.4.1-.1a17.84,17.84,0,0,1,4.5,11.8,17,17,0,0,1-16.5,17.1,17.17,17.17,0,0,0,16.5-17.1,17.43,17.43,0,0,0-4.5-11.6l-.4.4a16.92,16.92,0,0,1,4.3,11.2,16.53,16.53,0,0,1-15.9,16.5v.1H21.5v25.9h1.2V267.9a17.84,17.84,0,0,0,12.49-29.79l20.21-20-.05,0,.35-.35a.78.78,0,0,0-.4-.4l-.4.4L34.7,237.8l.1.1-.2-.2,20.2-20.1.4-.4-.4-.4,0,0A17.14,17.14,0,0,1,50.4,205.4s0-.07,0-.1a17.14,17.14,0,0,0,4.5,11.5l.4.4.4-.4c-.1-.1-.2-.3-.4-.4h0a16.52,16.52,0,0,1-4.4-11.2A17.21,17.21,0,0,1,55.3,194l.4-.4-.4-.4-.4-.4L34.7,172.7a2.18,2.18,0,0,0-.5.4l20.3,20.1A17.9,17.9,0,0,0,49.8,205.3ZM22.6,233.11h0a17.49,17.49,0,0,1,11.15,4.65l0,0A17.05,17.05,0,0,0,22.6,233.11Z" transform="translate(-4.1 -7.2)"/><path class="cls-1" d="M67.6,188a17.15,17.15,0,0,0-11.8,4.7l-.4.4.4.4.4-.4a16.56,16.56,0,0,1,27.9,11.4h.6A17.11,17.11,0,0,0,67.6,188Z" transform="translate(-4.1 -7.2)"/><path class="cls-1" d="M95.3,204.5h.6a17.19,17.19,0,0,1,2.77-8.61A17,17,0,0,0,96,204.5h.6a16.56,16.56,0,0,1,27.9-11.4l.4-.4c.2.1.3.3.4.4l.4-.4-.4-.4a17.76,17.76,0,0,0-30,12.2Z" transform="translate(-4.1 -7.2)"/><path class="cls-1" d="M112.6,221.7v.6h.6l-.1-.6Z" transform="translate(-4.1 -7.2)"/><path class="cls-1" d="M125.3,194l.4-.4-.4-.4-.4-.4-.4.4c.1.1.3.2.4.4Z" transform="translate(-4.1 -7.2)"/><path class="cls-1" d="M113.2,221.7v.6h.6v-.6Z" transform="translate(-4.1 -7.2)"/><path class="cls-1" d="M195.9,250.7v-1.2H176.5v.1h-.6v-.1h.5a17.84,17.84,0,0,0-17.8-17.1h-.1l0,.1a17.81,17.81,0,0,0-17.63,17.1h-10a17.77,17.77,0,0,0-17.1-17.1v-9.6a17.84,17.84,0,0,0,17.1-17.8,18.07,18.07,0,0,0-4.61-12l20.21-20a17.77,17.77,0,0,0,12.1,4.8v.1h.1a17.73,17.73,0,1,0-13.15-5.75L125.3,192.3a1.76,1.76,0,0,1,.5.4L146,172.6l-.35-.35.35-.35a19.16,19.16,0,0,1-1.88-2.55A16.44,16.44,0,0,0,146,171.8l.4-.4a17.12,17.12,0,0,1-4.3-11.2,16.6,16.6,0,1,1,16.6,16.6v-.1a16.64,16.64,0,0,1-11.4-4.5l0,0-.35-.35-.4.4.4.4.05-.05a17.15,17.15,0,0,0,11.65,4.65h0a16.88,16.88,0,0,1-11.7-4.6l-.4-.4-.4.4-20.25,20.05-.05-.05-.4.4.4.4,0,0a18,18,0,0,1,4.46,11.74,17.14,17.14,0,0,0-4.5-11.6l-.4.4a16.71,16.71,0,0,1,4.4,11.2,16.53,16.53,0,0,1-15.9,16.5v.59h-.1v.1h-1.2v11.2h.5l.1-.6h-.1l.1-.6v1.3a.64.64,0,0,1,.6,0,16.63,16.63,0,0,1,15.9,15.9v1.1h-.1a16.43,16.43,0,0,1-16.5,16.1,16.55,16.55,0,0,1-.6-33.1v-1.2a17.81,17.81,0,1,0,18.4,18.4h-.6a17.21,17.21,0,0,1-34.4-.7s0,0,0-.05a17.15,17.15,0,0,0,34.3.55h.1v.1h10.6v-.1h1.2v-1.1h-.6a17.33,17.33,0,0,1,1.57-6.5,17,17,0,0,0-1.47,6.4h.6a16.51,16.51,0,0,1,33,0h.1v1.2h.6v.1h.1a17.37,17.37,0,0,1-17.3,16.6,17.12,17.12,0,0,1-17.1-16.6H141a17.81,17.81,0,0,0,35.6,0h-.1v-.1ZM158.7,233h-.1v-.3l.1.3a17,17,0,0,1,17.1,16.5A17.17,17.17,0,0,0,158.7,233Z" transform="translate(-4.1 -7.2)"/><path class="cls-1" d="M21.9,42.8a18.66,18.66,0,0,0,7.5-1.6l-.2-.5A17.25,17.25,0,0,1,22,42.3h-.05a18.09,18.09,0,0,0,7.25-1.6l-.2-.5a17.85,17.85,0,0,1-7,1.4A16.6,16.6,0,1,1,38.6,25.1a16.24,16.24,0,0,1-4.4,11.2l-.4.4.4.4.4-.4.4.4A18.09,18.09,0,0,0,39.7,25,17.8,17.8,0,1,0,21.9,42.8Zm.1-35A17.2,17.2,0,0,1,39.1,25.1,17.2,17.2,0,0,0,12.33,10.81,17,17,0,0,1,22,7.8ZM39,26.91c0-.05,0-.1,0-.15S39,26.86,39,26.91Z" transform="translate(-4.1 -7.2)"/><polygon class="cls-1" points="17.5 242.5 17.9 243 17.9 242.1 17.5 242.5"/><polygon class="cls-1" points="18.3 243.4 18.5 243.2 18.5 243 18.5 242.4 17.9 243 18 243 18.3 243.4"/><path class="cls-1" d="M4.2,250.3a17.85,17.85,0,0,0,17.2,17.8v-.6A17.37,17.37,0,0,1,4.8,250.2a17.12,17.12,0,0,1,16.6-17.1v-.6A17.79,17.79,0,0,0,4.2,250.3Z" transform="translate(-4.1 -7.2)"/><path class="cls-1" d="M4.8,250.2a17.19,17.19,0,0,0,16.6,17.1v-.6a16.51,16.51,0,0,1,0-33v-.6A17.19,17.19,0,0,0,4.8,250.2Z" transform="translate(-4.1 -7.2)"/><path class="cls-1" d="M34.2,239l.4-.4-.4-.4-.4.4C33.9,238.7,34.1,238.8,34.2,239Z" transform="translate(-4.1 -7.2)"/><path class="cls-1" d="M158.7,267.4a17.19,17.19,0,0,0,17.1-16.6h-.6a16.51,16.51,0,0,1-33,0h-.6A17.19,17.19,0,0,0,158.7,267.4Z" transform="translate(-4.1 -7.2)"/></svg>