<svg id="Ebene_1" data-name="Ebene 1" xmlns="http://www.w3.org/2000/svg" viewBox="0 0 188 266.27"><defs><style>.cls-1{fill:none;}.cls-2{fill:#717171;}</style></defs><title>SuplyChainManagement</title><path class="cls-1" d="M115.39,36.43A15.25,15.25,0,0,0,122.12,49a18.93,18.93,0,0,0,2.11,1.17,15.05,15.05,0,0,0,5.79,1.4h1.17a15.16,15.16,0,0,0,0-30.3H130a14.07,14.07,0,0,0-5.79,1.4,12.19,12.19,0,0,0-2.11,1.17A15.25,15.25,0,0,0,115.39,36.43Zm14.51-6.67H130a2,2,0,0,1,.58-.06h.58a6.75,6.75,0,0,1,0,13.45h-.58c-.18,0-.41-.06-.58-.06h-.12a6.67,6.67,0,0,1-6.08-6.61A6.78,6.78,0,0,1,129.9,29.76Z" transform="translate(-7 -10.92)"/><path class="cls-1" d="M129.9,41.81H130a2,2,0,0,0,.58.06h.58a5.58,5.58,0,0,0,0-11.11h-.58c-.18,0-.41.06-.58.06h-.12A5.51,5.51,0,0,0,125,36.25,5.62,5.62,0,0,0,129.9,41.81Z" transform="translate(-7 -10.92)"/><path class="cls-1" d="M146.92,36.37a16.33,16.33,0,0,1-15.73,16.32v66.16h25.15V12.09H131.18v8A16.37,16.37,0,0,1,146.92,36.37Z" transform="translate(-7 -10.92)"/><path class="cls-1" d="M64.44,88.31h23.4a87.61,87.61,0,0,0-9.13-16.55Z" transform="translate(-7 -10.92)"/><path class="cls-1" d="M107.32,36.37a16.27,16.27,0,0,1-5.91,12.58h18.84a16.34,16.34,0,0,1,0-25.15H101.41A16.27,16.27,0,0,1,107.32,36.37Z" transform="translate(-7 -10.92)"/><path class="cls-1" d="M91.06,51.52a15.27,15.27,0,0,0,4-.53,14.42,14.42,0,0,0,2.22-.82l.06-.06h.06a12.19,12.19,0,0,0,2.11-1.17,15.41,15.41,0,0,0,6.14-8.42,15.79,15.79,0,0,0,.47-2.28c.06-.58.12-1.23.12-1.87a15.25,15.25,0,0,0-6.73-12.58,18.93,18.93,0,0,0-2.11-1.17,15.41,15.41,0,0,0-6.38-1.4A15.73,15.73,0,0,0,87,21.8c-.76.23-1.46.53-2.16.82A15,15,0,0,0,76,34.56a17.71,17.71,0,0,0-.12,1.81A15.15,15.15,0,0,0,91.06,51.52Zm0-21.94a7.93,7.93,0,0,1,1.17.12,6.78,6.78,0,0,1,0,13.34,7.2,7.2,0,0,1-1.17.12,6.79,6.79,0,0,1,0-13.57Z" transform="translate(-7 -10.92)"/><path class="cls-1" d="M47.42,55.85c.29.41.58.76.88,1.17,1.05,1.4,2,2.92,3,4.45L55.2,57l1-1.17,3.33-3.92A85.8,85.8,0,0,0,20.86,35.67C30.92,39,40,46.08,47.42,55.85Z" transform="translate(-7 -10.92)"/><path class="cls-1" d="M56.6,57l-4.74,5.5-.76.94-7.72,9A19.78,19.78,0,0,1,62.51,88.31h.35L63,88.2,78,70.82l.76-.94,15-17.43a14.15,14.15,0,0,1-2.75.23A16.33,16.33,0,0,1,74.74,36.37V36L61.11,51.75l-.76.88L57.6,55.79Zm10.24-1.17v.64c-.23-.23-.47-.41-.7-.64Z" transform="translate(-7 -10.92)"/><path class="cls-1" d="M63.39,89.54a125.24,125.24,0,0,1,4,31.29h27a86,86,0,0,0-6.08-31.35H63.45Z" transform="translate(-7 -10.92)"/><path class="cls-1" d="M91.06,42a7.2,7.2,0,0,0,1.17-.12,5.64,5.64,0,0,0,0-11,7.2,7.2,0,0,0-1.17-.12,5.62,5.62,0,0,0,0,11.23Z" transform="translate(-7 -10.92)"/><rect class="cls-1" x="132.31" y="154.72" width="8.89" height="8.89"/><path class="cls-1" d="M62.16,153.36A125.33,125.33,0,0,0,66.25,122H42.86a214.42,214.42,0,0,1-2.4,31.35Z" transform="translate(-7 -10.92)"/><path class="cls-1" d="M43.15,111.83h-.53c.18,3,.23,6,.23,9v-.06H66.2a126.37,126.37,0,0,0-3.33-28.31A19.73,19.73,0,0,1,43.15,111.83Z" transform="translate(-7 -10.92)"/><path class="cls-1" d="M61.52,89.54c-.06-.41-.12-.76-.18-1.17a18.63,18.63,0,0,0-18.19-14.8,2.76,2.76,0,0,0-.88.12,15.41,15.41,0,0,0-1.64.12,19.81,19.81,0,0,0-3.33.76c-.41.12-.76.29-1.11.41A18.54,18.54,0,0,0,24.84,88.43c-.06.41-.12.76-.18,1.17a19.9,19.9,0,0,0-.18,2.63,18.61,18.61,0,0,0,16.85,18.48c.41,0,.76.06,1.17.06h.58a18.61,18.61,0,0,0,18.6-18.6v-.64a15.42,15.42,0,0,0-.12-1.64A.74.74,0,0,1,61.52,89.54Zm-11.58,7a5.59,5.59,0,0,1-.7.94,8.05,8.05,0,0,1-6.08,2.75,10.44,10.44,0,0,1-1.35-.12,9.35,9.35,0,0,1-1.23-.29A8.16,8.16,0,0,1,35,92.06a7.78,7.78,0,0,1,.47-2.63c.18-.41.35-.82.53-1.17a9.76,9.76,0,0,1,.94-1.4,5.42,5.42,0,0,1,.82-.82,4.42,4.42,0,0,1,.82-.64c.35-.23.7-.41,1-.64a7.94,7.94,0,0,1,3.51-.82,8.14,8.14,0,0,1,7.19,4.33,4.22,4.22,0,0,1,.53,1.17,7.78,7.78,0,0,1,.47,2.63A8.29,8.29,0,0,1,49.93,96.5Z" transform="translate(-7 -10.92)"/><path class="cls-1" d="M49,88.31a7.1,7.1,0,0,0-5.85-3.16,7.24,7.24,0,0,0-3.22.76,5.49,5.49,0,0,0-1.05.7c0,.12.06.23.06.35l-.23-.18a5.42,5.42,0,0,0-.82.82,6.13,6.13,0,0,0-.47.64,4.57,4.57,0,0,0-.64,1.17,6.61,6.61,0,0,0-.53,2.63,6.93,6.93,0,0,0,4.27,6.43,10.08,10.08,0,0,0,1.23.41,5.89,5.89,0,0,0,1.46.18,6.91,6.91,0,0,0,5.21-2.34c.23-.29.47-.58.7-.94a7.13,7.13,0,0,0,1.05-3.69,6.61,6.61,0,0,0-.53-2.63A7.49,7.49,0,0,0,49,88.31Zm-8.72,0V88.2l.12.12Z" transform="translate(-7 -10.92)"/><path class="cls-1" d="M31.1,55.73c.18.41.35.76.53,1.17.35.82.64,1.64,1,2.46a121.48,121.48,0,0,1,4.5,13.92,21.19,21.19,0,0,1,4.74-.88l8.66-10.06c-1.17-1.87-2.4-3.69-3.69-5.38-.29-.35-.58-.76-.94-1.23-8.54-11-19.3-18.37-31.12-20.53C20.86,38.3,26.48,45.32,31.1,55.73Z" transform="translate(-7 -10.92)"/><path class="cls-1" d="M63.33,153.36h25A87.2,87.2,0,0,0,94.39,122h-27A125.32,125.32,0,0,1,63.33,153.36Z" transform="translate(-7 -10.92)"/><path class="cls-1" d="M48.3,185.88H65.67a87.74,87.74,0,0,0,22.17-31.35H63A96.57,96.57,0,0,1,48.3,185.88Z" transform="translate(-7 -10.92)"/><path class="cls-1" d="M20.86,207.23a86.56,86.56,0,0,0,43.52-20.18h-17C40,196.82,30.92,203.9,20.86,207.23Z" transform="translate(-7 -10.92)"/><path class="cls-1" d="M14.84,207.58C26.65,205.42,37.36,198,46,187.05H31.1C26.48,197.46,20.86,204.48,14.84,207.58Z" transform="translate(-7 -10.92)"/><path class="cls-1" d="M32.62,183.42c-.29.88-.64,1.64-1,2.46H46.83a95.74,95.74,0,0,0,15-31.35H40.28A142.23,142.23,0,0,1,32.62,183.42Z" transform="translate(-7 -10.92)"/><rect class="cls-1" x="132.31" y="138.34" width="8.89" height="8.89"/><rect class="cls-1" x="132.31" y="187.42" width="8.89" height="8.89"/><rect class="cls-1" x="82.94" y="212.68" width="8.89" height="8.89"/><polygon class="cls-1" points="141.21 175.95 141.21 174.78 141.21 171.04 132.31 171.04 132.31 174.78 132.31 175.95 132.31 179.93 141.21 179.93 141.21 175.95"/><path class="cls-1" d="M36.07,73.69A114,114,0,0,0,30.4,57c-.18-.35-.35-.76-.53-1.17C24,42.92,16.48,35,8.17,34.61v53.7H23.79A19.8,19.8,0,0,1,36.07,73.69Z" transform="translate(-7 -10.92)"/><path class="cls-1" d="M160.37,186.87H149.43V192H138.2v-5.15H104.69l-35.15,27H191.84Zm-11,21.47H138.14V197.11h11.23Z" transform="translate(-7 -10.92)"/><rect class="cls-1" x="99.26" y="212.68" width="8.89" height="8.89"/><rect class="cls-1" x="132.02" y="212.68" width="8.89" height="8.89"/><rect class="cls-1" x="115.64" y="212.68" width="8.89" height="8.89"/><path class="cls-1" d="M41.69,122H8.17v31.35H39.29A203.7,203.7,0,0,0,41.69,122Z" transform="translate(-7 -10.92)"/><path class="cls-1" d="M68.42,276H192.84V215H68.42Zm69.43-53.46h11.23v11.23H137.85Zm-16.38,0H132.7v11.23H121.47Zm-16.38,0h11.23v11.23H105.09Zm-16.32,0H100v11.23H88.77Z" transform="translate(-7 -10.92)"/><path class="cls-1" d="M29.87,187.05H8.17v21.17C16.42,207.87,24,199.92,29.87,187.05Z" transform="translate(-7 -10.92)"/><path class="cls-1" d="M39.11,154.53H8.17v31.35H30.4A134.89,134.89,0,0,0,39.11,154.53Z" transform="translate(-7 -10.92)"/><path class="cls-1" d="M41.45,111.83A19.79,19.79,0,0,1,23.61,89.48H8.17v31.41H41.69C41.63,117.79,41.57,114.81,41.45,111.83Z" transform="translate(-7 -10.92)"/><path class="cls-2" d="M66.84,55.79h-.7c.23.23.47.41.7.64Z" transform="translate(-7 -10.92)"/><path class="cls-2" d="M66.14,187h.7v-.58A87.88,87.88,0,0,0,79.53,70.82L95.74,52a14.47,14.47,0,0,0,4.09-1.87h22.05a16.5,16.5,0,0,0,8.19,2.57V120h27.49V10.92H130.07V20a16.5,16.5,0,0,0-8.19,2.57H99.83A16.08,16.08,0,0,0,91.06,20,16.33,16.33,0,0,0,74.91,34L60.29,51A87.31,87.31,0,0,0,7.58,33.39H7V209.33h.57A87.81,87.81,0,0,0,66.14,187ZM61.69,92.17a18.61,18.61,0,0,1-18.6,18.6h-.58c-.41,0-.76-.06-1.17-.06A18.61,18.61,0,0,1,24.49,92.23a19.9,19.9,0,0,1,.18-2.63c.06-.41.12-.76.18-1.17A18.54,18.54,0,0,1,36.19,75c.35-.12.7-.29,1.11-.41a19.81,19.81,0,0,1,3.33-.76,15.41,15.41,0,0,1,1.64-.12,2.76,2.76,0,0,1,.88-.12,18.63,18.63,0,0,1,18.19,14.8c.06.41.12.76.18,1.17a.74.74,0,0,0,.06.35,15.42,15.42,0,0,1,.12,1.64Zm1.17.29a126.37,126.37,0,0,1,3.33,28.31H42.86v.06c0-3-.06-6-.23-9h.53A19.73,19.73,0,0,0,62.86,92.47ZM42.86,122h23.4a125.33,125.33,0,0,1-4.09,31.35H40.46A214.42,214.42,0,0,0,42.86,122Zm19,32.52a95.74,95.74,0,0,1-15,31.35H31.63c.35-.82.7-1.58,1-2.46a142.23,142.23,0,0,0,7.66-28.9ZM46,187.05c-8.6,11-19.3,18.37-31.12,20.53,6-3.1,11.64-10.12,16.26-20.53ZM20.86,207.23C30.92,203.9,40,196.82,47.42,187.05h17A86.56,86.56,0,0,1,20.86,207.23Zm44.81-21.35H48.3A96.57,96.57,0,0,0,63,154.53h24.8A87.74,87.74,0,0,1,65.67,185.88Zm22.64-32.52h-25A125.32,125.32,0,0,0,67.42,122h27A87.2,87.2,0,0,1,88.31,153.36Zm6.08-32.52h-27a125.24,125.24,0,0,0-4-31.29l.06-.06H88.31A86,86,0,0,1,94.39,120.83ZM87.84,88.31H64.44L78.71,71.76A87.61,87.61,0,0,1,87.84,88.31Zm43.34-76.22h25.15V118.85H131.18V52.69a16.33,16.33,0,0,0,0-32.64Zm-9.07,11.76a12.19,12.19,0,0,1,2.11-1.17,14.07,14.07,0,0,1,5.79-1.4h1.17a15.16,15.16,0,0,1,0,30.3H130a15.05,15.05,0,0,1-5.79-1.4A18.93,18.93,0,0,1,122.12,49a15.12,15.12,0,0,1,0-25.15Zm-1.87-.06a16.34,16.34,0,0,0,0,25.15H101.41a16.34,16.34,0,0,0,0-25.15ZM76,34.56A15,15,0,0,1,84.8,22.62c.7-.29,1.4-.58,2.16-.82a15.73,15.73,0,0,1,4.09-.58,15.41,15.41,0,0,1,6.38,1.4,18.93,18.93,0,0,1,2.11,1.17,15.25,15.25,0,0,1,6.73,12.58c0,.64-.06,1.29-.12,1.87a15.79,15.79,0,0,1-.47,2.28,15.41,15.41,0,0,1-6.14,8.42,12.19,12.19,0,0,1-2.11,1.17h-.06l-.06.06a14.42,14.42,0,0,1-2.22.82A15.22,15.22,0,0,1,75.91,36.37,17.71,17.71,0,0,1,76,34.56ZM60.35,52.63l.76-.88L74.74,36v.35A16.33,16.33,0,0,0,91.06,52.69a14.15,14.15,0,0,0,2.75-.23l-15,17.43-.76.94L63,88.2l-.12.12h-.35A19.78,19.78,0,0,0,43.38,72.4l7.72-9,.76-.94L56.6,57l1-1.17Zm-.82-.7-3.33,3.92L55.2,57l-3.86,4.45c-1-1.52-2-3-3-4.45-.29-.41-.58-.76-.88-1.17C40,46.08,30.92,39,20.86,35.67A85.8,85.8,0,0,1,59.53,51.93ZM45.9,55.73c.35.47.64.88.94,1.23,1.29,1.7,2.52,3.51,3.69,5.38L41.86,72.4a21.19,21.19,0,0,0-4.74.88,121.48,121.48,0,0,0-4.5-13.92c-.35-.82-.64-1.64-1-2.46-.18-.41-.35-.76-.53-1.17C26.48,45.32,20.86,38.3,14.78,35.2,26.6,37.36,37.36,44.73,45.9,55.73ZM8.17,57V34.61C16.48,35,24,42.92,29.87,55.79c.18.41.35.82.53,1.17a114,114,0,0,1,5.67,16.73A19.8,19.8,0,0,0,23.79,88.31H8.17Zm0,32.52H23.61a19.79,19.79,0,0,0,17.84,22.34c.12,3,.18,6,.23,9.07H8.17Zm0,32.52H41.69a203.7,203.7,0,0,1-2.4,31.35H8.17Zm0,32.52H39.11a134.89,134.89,0,0,1-8.72,31.35H8.17Zm0,32.52h21.7C24,199.92,16.42,207.87,8.17,208.22Z" transform="translate(-7 -10.92)"/><path class="cls-2" d="M40.28,88.31h.12l-.12-.12Z" transform="translate(-7 -10.92)"/><path class="cls-2" d="M50.29,88.25a8.14,8.14,0,0,0-7.19-4.33,7.94,7.94,0,0,0-3.51.82c-.29.23-.64.41-1,.64a4.42,4.42,0,0,0-.82.64,5.42,5.42,0,0,0-.82.82,9.76,9.76,0,0,0-.94,1.4c-.18.35-.35.76-.53,1.17A7.78,7.78,0,0,0,35,92.06a8.16,8.16,0,0,0,5.56,7.72,9.35,9.35,0,0,0,1.23.29,10.44,10.44,0,0,0,1.35.12,8.05,8.05,0,0,0,6.08-2.75,5.59,5.59,0,0,0,.7-.94,8.29,8.29,0,0,0,1.35-4.45,7.78,7.78,0,0,0-.47-2.63A4.22,4.22,0,0,0,50.29,88.25ZM49.12,95.8c-.23.35-.47.64-.7.94a6.91,6.91,0,0,1-5.21,2.34,5.89,5.89,0,0,1-1.46-.18,10.08,10.08,0,0,1-1.23-.41,6.93,6.93,0,0,1-4.27-6.43,6.61,6.61,0,0,1,.53-2.63,4.57,4.57,0,0,1,.64-1.17,6.13,6.13,0,0,1,.47-.64,5.42,5.42,0,0,1,.82-.82l.23.18c0-.12-.06-.23-.06-.35a5.49,5.49,0,0,1,1.05-.7,7.24,7.24,0,0,1,3.22-.76A7.1,7.1,0,0,1,49,88.31a7.49,7.49,0,0,1,.64,1.17,6.61,6.61,0,0,1,.53,2.63A7.13,7.13,0,0,1,49.12,95.8Z" transform="translate(-7 -10.92)"/><path class="cls-2" d="M91.06,43.15A7.2,7.2,0,0,0,92.23,43a6.78,6.78,0,0,0,0-13.34,7.93,7.93,0,0,0-1.17-.12,6.79,6.79,0,0,0,0,13.57Zm0-12.4a7.2,7.2,0,0,1,1.17.12,5.64,5.64,0,0,1,0,11,7.2,7.2,0,0,1-1.17.12,5.62,5.62,0,0,1,0-11.23Z" transform="translate(-7 -10.92)"/><path class="cls-2" d="M129.9,43.1H130c.18,0,.41.06.58.06h.58a6.75,6.75,0,0,0,0-13.45h-.58a2,2,0,0,0-.58.06h-.12a6.78,6.78,0,0,0-6.08,6.73A6.67,6.67,0,0,0,129.9,43.1Zm0-12.28H130c.18,0,.41-.06.58-.06h.58a5.58,5.58,0,0,1,0,11.11h-.58a2,2,0,0,1-.58-.06h-.12A5.62,5.62,0,0,1,125,36.25,5.51,5.51,0,0,1,129.9,30.81Z" transform="translate(-7 -10.92)"/><path class="cls-2" d="M153,169.85V171h6.43V145.64a15.68,15.68,0,1,0-31.35,0V171h7.19v-1.17h-6V145.64a14.51,14.51,0,1,1,29,0v24.22Z" transform="translate(-7 -10.92)"/><path class="cls-2" d="M194,214.13v-.29h-.35l-32.7-28-.18-.12H149.37v-4.91H138.14v4.91H104.22L67.54,213.9h-.41v.29l-1.11.88h1.11v62.12H194V215h1Zm-54.69-27.26V182h8.89v8.89h-8.89Zm-34.63,0H138.2V192h11.23v-5.15h10.94l31.47,27H69.53ZM192.84,276H68.42V215H192.84Z" transform="translate(-7 -10.92)"/><path class="cls-2" d="M149.37,148.09H138.14v11.23h11.23Zm-1.17,10.06h-8.89v-8.89h8.89Z" transform="translate(-7 -10.92)"/><path class="cls-2" d="M138.14,175.64h11.23V164.41H138.14Zm1.17-10h8.89v8.89h-8.89Z" transform="translate(-7 -10.92)"/><path class="cls-2" d="M138.14,208.34h11.23V197.11H138.14Zm1.17-10h8.89v8.89h-8.89Z" transform="translate(-7 -10.92)"/><path class="cls-2" d="M100,222.5H88.77v11.23H100Zm-1.17,10H89.94v-8.89h8.89Z" transform="translate(-7 -10.92)"/><path class="cls-2" d="M116.33,222.5H105.09v11.23h11.23Zm-1.17,10h-8.89v-8.89h8.89Z" transform="translate(-7 -10.92)"/><path class="cls-2" d="M149.08,222.5H137.85v11.23h11.23Zm-1.17,10H139v-8.89h8.89Z" transform="translate(-7 -10.92)"/><path class="cls-2" d="M132.7,222.5H121.47v11.23H132.7Zm-1.17,10h-8.89v-8.89h8.89Z" transform="translate(-7 -10.92)"/><path class="cls-2" d="M7,209.33" transform="translate(-7 -10.92)"/><path class="cls-2" d="M7,292.07" transform="translate(-7 -10.92)"/><path class="cls-2" d="M7,33.39" transform="translate(-7 -10.92)"/><line class="cls-2" y1="174.96" y2="143.6"/><line class="cls-2" y1="142.43" y2="111.08"/><path class="cls-2" d="M7,208.22V187.05" transform="translate(-7 -10.92)"/><line class="cls-2" y1="109.91" y2="78.56"/><path class="cls-2" d="M7,55.79V34.61" transform="translate(-7 -10.92)"/><line class="cls-2" y1="77.39" y2="46.03"/><path class="cls-2" d="M7,209.33V33.39M7,187.05v21.17m0-53.7v31.35M7,122v31.35M7,89.48v31.35M7,57V88.31m0-53.7V55.79" transform="translate(-7 -10.92)"/></svg>