<svg id="Ebene_1" data-name="Ebene 1" xmlns="http://www.w3.org/2000/svg" viewBox="0 0 258.72 327.08"><defs><style>.cls-1{fill:none;}.cls-2{fill:#717171;}</style></defs><title>Wirtschaftswissenschaften</title><path class="cls-1" d="M130.06,242a14.41,14.41,0,0,1-6.5-1.58L98.71,284l5,2.81c1.41-.59,8.73-6.33,15.06-11.6l.23-.18,9.2,1.11.18.23c5,6.56,10.72,13.77,12,14.65l13.54-3.69c.59-1.41,1.7-10.49,2.4-18.57v-.29l7.38-5.63.29.06c8.26,1.17,17.58,2.17,19.1,2l3.4-5.74L142.3,235.11A14.48,14.48,0,0,1,130.06,242Z" transform="translate(-3.38 -9.52)"/><path class="cls-1" d="M144.3,227.67a14.29,14.29,0,0,1-1.46,6.27L187,258l3-5.1c-.64-1.41-6.39-8.5-11.66-14.65l-.18-.23,1.23-9,.23-.18c6.74-4.92,14.12-10.66,15.06-11.89l-3.57-13.24c-1.46-.59-10.66-1.52-18.87-2.17H172l-2.4-3-27.77,21.09A14.22,14.22,0,0,1,144.3,227.67Z" transform="translate(-3.38 -9.52)"/><path class="cls-1" d="M115.76,227.67a14.08,14.08,0,0,1,3.75-9.61l-26-26c-7.5-1-15.06-1.76-16.41-1.58l-7,12c.64,1.41,6.39,8.5,11.66,14.65l.18.23-1.23,9-.23.18c-6.74,4.92-14.12,10.61-15.06,11.89l3.57,13.24c1.46.59,10.66,1.52,18.93,2.17h.29L93.79,261l-.06.29c-1.23,8.09-2.4,17.23-2.17,18.75l6,3.34,24.84-43.71A14,14,0,0,1,115.76,227.67Z" transform="translate(-3.38 -9.52)"/><path class="cls-1" d="M130.06,213.43a14.35,14.35,0,0,1,11,5.1l27.72-21.09-2.4-3.11.06-.29c1.23-8.09,2.4-17.23,2.17-18.75l-12.13-6.74c-1.41.59-8.73,6.33-15.06,11.6l-.23.18-9.2-1.11-.18-.23c-5-6.56-10.72-13.77-12-14.65L106.27,168c-.59,1.41-1.7,10.49-2.4,18.57v.29l-7.32,5.57-.29-.06c-.18,0-.41-.06-.59-.06l24.79,24.79A14.31,14.31,0,0,1,130.06,213.43Z" transform="translate(-3.38 -9.52)"/><path class="cls-2" d="M196,216.83l-3.69-13.65c-.12-.53-.35-1.41-19.69-2.87L167.68,194c2.93-19,2.17-19.45,1.7-19.75l-12.48-7c-.41-.23-1.23-.7-16.11,11.66l-8.09-.94c-11.6-15.35-12.48-15.12-12.95-14.94l-13.95,3.81c-.47.12-1.41.35-3.11,19.4l-6.45,4.92c-.7-.12-1.35-.18-2.05-.29l1.52,1.52c.18,0,.41.06.59.06l.29.06,7.32-5.57v-.29c.76-8.09,1.82-17.17,2.4-18.57l13.54-3.69c1.23.88,7,8.09,12,14.65l.18.23,9.2,1.11.23-.18c6.39-5.27,13.65-11,15.06-11.6l12.13,6.74c.23,1.52-.94,10.66-2.17,18.75l-.06.29,2.4,3.11.53-.41.76,1.05-.53.41,2.4,3h.29c8.2.64,17.4,1.58,18.87,2.17L194.69,217c-.94,1.23-8.32,7-15.06,11.89l-.23.18-1.23,9,.18.23c5.27,6.15,11,13.24,11.66,14.65l-3,5.1.53.29-.64,1.11-.59-.29-3.4,5.74c-1.52.23-10.84-.82-19.1-2l-.29-.06-7.38,5.63v.29c-.76,8.09-1.82,17.17-2.4,18.57L140.19,291c-1.23-.88-7-8.09-12-14.65l-.18-.23-9.2-1.11-.23.18c-6.39,5.27-13.65,11-15.06,11.6l-5-2.81-.35.59-1.11-.64.29-.59-6-3.34c-.23-1.52.94-10.66,2.17-18.75l.06-.29L88,253.8h-.29c-8.26-.64-17.46-1.58-18.93-2.17l-3.57-13.24c.94-1.23,8.32-7,15.06-11.89l.23-.18,1.23-9-.18-.23c-5.27-6.15-11-13.24-11.66-14.65l7-12c1.35-.23,8.91.59,16.41,1.58l-1.52-1.52c-15.23-2-15.64-1.29-15.94-.88L68.65,202c-.29.47-.76,1.23,11.72,15.76l-1.05,7.91C63.55,237.22,63.79,238,63.9,238.57l3.69,13.65c.12.53.35,1.41,19.75,2.87l4.92,6.27c-2.93,19-2.17,19.45-1.7,19.69L103,288c.47.23,1.23.7,16.11-11.66l8.09,1c10.43,13.77,12.19,15,12.77,15h.18l13.95-3.81c.53-.12,1.41-.35,3.11-19.4l6.5-4.92c19.34,2.7,19.75,1.93,20,1.46l7.27-12.36c.29-.47.76-1.23-11.72-15.76l1.05-7.91C196.33,218.18,196.09,217.3,196,216.83ZM168.73,175.4ZM191,203.47ZM77.2,190.29Zm-7.27,12.36Z" transform="translate(-3.38 -9.52)"/><path class="cls-2" d="M142.25,235.05l44.12,24.08L187,258l-44.18-24.08A6.68,6.68,0,0,1,142.25,235.05Z" transform="translate(-3.38 -9.52)"/><polygon class="cls-2" points="257.62 327.08 258.72 325.08 257.72 324.58 256.62 326.48 257.62 327.08"/><path class="cls-2" d="M141.78,219.58l27.77-21.09-.82-1L141,218.59C141.25,218.88,141.54,219.23,141.78,219.58Z" transform="translate(-3.38 -9.52)"/><polygon class="cls-2" points="166.64 188.56 165.88 187.5 165.35 187.91 166.11 188.91 166.64 188.56"/><path class="cls-2" d="M122.44,239.74,97.6,283.45l1.11.64,24.84-43.65C123.14,240.21,122.79,240,122.44,239.74Z" transform="translate(-3.38 -9.52)"/><polygon class="cls-2" points="93.86 274.46 94.98 275.11 95.33 274.52 94.16 273.93 93.86 274.46"/><path class="cls-2" d="M57.22,154c-.29.29-.59.64-.94.94L92,190.58c.7.12,1.41.18,2.11.29Z" transform="translate(-3.38 -9.52)"/><path class="cls-2" d="M119.51,218.06c.29-.29.59-.64.94-.94L95.6,192.34c-.7-.12-1.41-.18-2.11-.29Z" transform="translate(-3.38 -9.52)"/><path class="cls-2" d="M95.6,192.34l-1.52-1.52c-.76-.12-1.46-.18-2.11-.29L93.49,192C94.2,192.16,94.9,192.28,95.6,192.34Z" transform="translate(-3.38 -9.52)"/><path class="cls-1" d="M130.06,88.51l.35-.53,25.08,15.59a29.19,29.19,0,0,0,4.16-15.06A29.54,29.54,0,0,0,105,73l25.43,14.94Z" transform="translate(-3.38 -9.52)"/><path class="cls-2" d="M130.06,58.33a30.19,30.19,0,0,1,26,45.59h0l-.12.18c-.06.06-.06.12-.12.18l-.47.7h0a29.76,29.76,0,0,1-13.95,11.48h0l-1.23.47h0a30.05,30.05,0,0,1-35.27-11.84l-.53.35a30.79,30.79,0,1,0-.53-33.11l.53.35A30,30,0,0,1,130.06,58.33Z" transform="translate(-3.38 -9.52)"/><path class="cls-2" d="M99.82,88.51a30.35,30.35,0,0,1,3.81-14.71l-.53-.35a30.87,30.87,0,0,0,.47,30.94l.53-.35A30.41,30.41,0,0,1,99.82,88.51Z" transform="translate(-3.38 -9.52)"/><path class="cls-2" d="M130.06,59a29.49,29.49,0,0,1,25.37,44.59l.59.35a30.19,30.19,0,0,0-26-45.59,30.25,30.25,0,0,0-25.72,14.36l.59.35A29.41,29.41,0,0,1,130.06,59Z" transform="translate(-3.38 -9.52)"/><path class="cls-2" d="M130.06,118.68a30.36,30.36,0,0,0,10.08-1.76l-.23-.59a29,29,0,0,1-9.84,1.7,29.53,29.53,0,0,1-24.67-13.3l-.59.35A30.25,30.25,0,0,0,130.06,118.68Z" transform="translate(-3.38 -9.52)"/><path class="cls-2" d="M155.9,104.09l-.12.18C155.78,104.21,155.84,104.15,155.9,104.09Z" transform="translate(-3.38 -9.52)"/><path class="cls-2" d="M100.53,88.51a29.35,29.35,0,0,1,3.75-14.41l-.59-.35a29.72,29.72,0,0,0-3.81,14.71A30.41,30.41,0,0,0,104.16,104l.59-.35A28.9,28.9,0,0,1,100.53,88.51Z" transform="translate(-3.38 -9.52)"/><path class="cls-2" d="M141.13,115.87l.23.59A30.47,30.47,0,0,0,155.31,105l-.59-.35A29.38,29.38,0,0,1,141.13,115.87Z" transform="translate(-3.38 -9.52)"/><path class="cls-2" d="M131.35,90l-1.29-.82-.35.23,10.2,26.9a10.56,10.56,0,0,0,1.23-.47Z" transform="translate(-3.38 -9.52)"/><path class="cls-2" d="M140.14,116.93l1.23-.47h0a10.56,10.56,0,0,1-1.23.47Z" transform="translate(-3.38 -9.52)"/><path class="cls-2" d="M139.9,116.34l.23.59a10.56,10.56,0,0,0,1.23-.47l-.23-.59C140.72,116,140.31,116.16,139.9,116.34Z" transform="translate(-3.38 -9.52)"/><path class="cls-2" d="M122.44,239.74l.35-.59A13.54,13.54,0,0,1,120,218.53l-.47-.47a14.26,14.26,0,0,0,2.87,21.68Z" transform="translate(-3.38 -9.52)"/><path class="cls-2" d="M130.06,214.08a13.61,13.61,0,0,1,10.43,4.86l.53-.41a14.35,14.35,0,0,0-11-5.1,14.08,14.08,0,0,0-9.61,3.75l.47.47A13.41,13.41,0,0,1,130.06,214.08Z" transform="translate(-3.38 -9.52)"/><path class="cls-2" d="M143.65,227.67a14.15,14.15,0,0,1-1.35,5.92l.59.29a13.91,13.91,0,0,0,1.46-6.27,14.22,14.22,0,0,0-2.52-8.09l-.53.41A14,14,0,0,1,143.65,227.67Z" transform="translate(-3.38 -9.52)"/><path class="cls-2" d="M130.06,241.32a13.42,13.42,0,0,1-6.15-1.46l-.35.59a14.23,14.23,0,0,0,18.69-5.27l-.59-.29A13.75,13.75,0,0,1,130.06,241.32Z" transform="translate(-3.38 -9.52)"/><path class="cls-2" d="M141.66,234.76l.59.29c.23-.35.41-.76.64-1.11l-.59-.29C142.07,234,141.89,234.41,141.66,234.76Z" transform="translate(-3.38 -9.52)"/><path class="cls-2" d="M141.25,220l.53-.41c-.23-.35-.53-.7-.76-1.05l-.53.41C140.72,219.29,141,219.64,141.25,220Z" transform="translate(-3.38 -9.52)"/><path class="cls-2" d="M122.73,239.16l-.35.59a10.89,10.89,0,0,0,1.11.64l.35-.59C123.49,239.62,123.14,239.39,122.73,239.16Z" transform="translate(-3.38 -9.52)"/><path class="cls-2" d="M120.92,217.65l-.47-.47c-.29.29-.64.59-.94.94l.47.47A7.09,7.09,0,0,1,120.92,217.65Z" transform="translate(-3.38 -9.52)"/><path class="cls-2" d="M130.06,240.68a13.09,13.09,0,0,1-5.86-1.41l-.35.59a13.57,13.57,0,0,0,17.75-5.1l-.59-.29A12.85,12.85,0,0,1,130.06,240.68Z" transform="translate(-3.38 -9.52)"/><path class="cls-2" d="M143,227.67a13,13,0,0,1-1.29,5.63l.59.29a13.66,13.66,0,0,0-1.05-13.65l-.53.41A12.77,12.77,0,0,1,143,227.67Z" transform="translate(-3.38 -9.52)"/><path class="cls-2" d="M117,227.67a13,13,0,0,1,3.34-8.67l-.47-.47a13.54,13.54,0,0,0,2.75,20.63l.35-.59A12.88,12.88,0,0,1,117,227.67Z" transform="translate(-3.38 -9.52)"/><path class="cls-2" d="M130.06,214.72a13,13,0,0,1,9.9,4.63l.53-.41a13.55,13.55,0,0,0-19.57-1.29l.47.47A12.75,12.75,0,0,1,130.06,214.72Z" transform="translate(-3.38 -9.52)"/><path class="cls-2" d="M141.07,234.47l.59.29c.23-.35.41-.76.64-1.11l-.59-.29C141.48,233.71,141.31,234.06,141.07,234.47Z" transform="translate(-3.38 -9.52)"/><path class="cls-2" d="M140.72,220.35l.53-.41c-.23-.35-.53-.7-.76-1.05l-.53.41C140.19,219.64,140.49,220,140.72,220.35Z" transform="translate(-3.38 -9.52)"/><path class="cls-2" d="M124.2,239.27a6.9,6.9,0,0,1-1.11-.64l-.35.59a10.89,10.89,0,0,0,1.11.64Z" transform="translate(-3.38 -9.52)"/><path class="cls-2" d="M121.39,218.06l-.47-.47c-.29.29-.64.59-.94.94l.47.47C120.74,218.71,121,218.35,121.39,218.06Z" transform="translate(-3.38 -9.52)"/><path class="cls-2" d="M72.63,58.1l5.27,11.43-5.16,3.75L63.67,65a22.75,22.75,0,0,1-5.92,1.64L53.36,78.43l-6.33-1L46.5,65.13a21.73,21.73,0,0,1-5.33-3L29.74,67.35,26,62.2l8.32-9.08a22.75,22.75,0,0,1-1.64-5.92L20.84,42.8l1-6.33,12.31-.53a21.73,21.73,0,0,1,3-5.33L31.91,19.19l5-3.81L46,23.7a22.75,22.75,0,0,1,5.92-1.64l4.39-11.84,6.33,1,.53,12.31a21.73,21.73,0,0,1,5.33,3L80,21.3l3.75,5.16-8.32,9.08A22.75,22.75,0,0,1,77,41.45l11.84,4.39-1,6.33-12.31.53a18.2,18.2,0,0,1-1.17,2.4l.59.35L76,53.35l12.42-.59,1.17-7.38L77.67,41a24.87,24.87,0,0,0-1.46-5.33l8.44-9.14-4.39-6-11.6,5.33a22.77,22.77,0,0,0-4.8-2.75l-.53-12.36L55.93,9.52l-4.39,12a24,24,0,0,0-5.33,1.46L37,14.56,31,19l5.33,11.6a22.77,22.77,0,0,0-2.75,4.8l-12.42.59L20,43.33l12,4.39a21.89,21.89,0,0,0,1.46,5.33L25,62.26l4.39,6L41,63a24.33,24.33,0,0,0,4.8,2.75l.59,12.42,7.38,1.17,4.39-12a24.87,24.87,0,0,0,5.33-1.46l9.2,8.38,6-4.39L73.4,58.15l1.05-1.58-.59-.35A12.91,12.91,0,0,1,72.63,58.1Z" transform="translate(-3.38 -9.52)"/><path class="cls-2" d="M88,52.18l1-6.33L77.15,41.45a22.75,22.75,0,0,0-1.64-5.92l8.32-9.08L80.08,21.3,68.65,26.57a22.86,22.86,0,0,0-5.33-3l-.53-12.31-6.33-1L52.07,22.06a22.75,22.75,0,0,0-5.92,1.64l-9.2-8.32-5.16,3.75,5.27,11.43a21.73,21.73,0,0,0-3,5.33l-12.31.53-1,6.33,11.84,4.39a20.67,20.67,0,0,0,1.64,5.92l-8.32,9.08,3.75,5.16L41.05,62a22.86,22.86,0,0,0,5.33,3l.53,12.31,6.33,1,4.39-11.84a22.75,22.75,0,0,0,5.92-1.64l9.08,8.32,5.16-3.75L72.52,58a12.38,12.38,0,0,0,1.23-1.82l-.59-.35c-.35.59-.76,1.17-1.17,1.76l-.23.29L77,69.23l-4.34,3.16-9-8.2-.41.18a20.48,20.48,0,0,1-5.74,1.58L57,66,52.71,77.72l-5.27-.82-.53-12.19-.41-.18a21.9,21.9,0,0,1-5.21-3L41,61.32,29.68,66.53,26.52,62.2l8.2-9-.18-.41A20.48,20.48,0,0,1,33,47l-.06-.41L21.19,42.27,22,37l12.19-.53.18-.41a21.9,21.9,0,0,1,3-5.21l.23-.29L32.38,19.25l4.34-3.16,9,8.2.41-.18a23.81,23.81,0,0,1,5.74-1.58l.41-.06,4.34-11.72,5.27.82.53,12.19.41.18a23.89,23.89,0,0,1,5.21,2.93l.29.23,11.31-5.21,3.16,4.34-8.2,9,.18.41a20.48,20.48,0,0,1,1.58,5.74l.06.41,11.72,4.34-.82,5.27-12.19.53-.18.41c-.35.82-.7,1.58-1.11,2.34l.59.35c.41-.76.82-1.58,1.17-2.4Z" transform="translate(-3.38 -9.52)"/><path class="cls-2" d="M104.28,105.44c-.23-.35-.47-.7-.7-1.11L58.81,132.45c.23.35.47.7.7,1.11Z" transform="translate(-3.38 -9.52)"/><path class="cls-2" d="M129.53,88.92l-.7-.41-24.08,15.12c.23.35.47.76.7,1.11l24.32-15.29Z" transform="translate(-3.38 -9.52)"/><path class="cls-2" d="M104.86,105.09c-.23-.35-.47-.7-.7-1.11l-.53.35c.23.35.47.76.7,1.11Z" transform="translate(-3.38 -9.52)"/><path class="cls-2" d="M104.69,103.62l-.59.35c.23.35.47.76.7,1.11l.59-.35C105.15,104.39,104.92,104,104.69,103.62Z" transform="translate(-3.38 -9.52)"/><polygon class="cls-2" points="126.15 79.4 126.33 79.92 126.68 79.75 126.33 79.51 126.15 79.4"/><path class="cls-2" d="M61.21,142.24a16.57,16.57,0,0,1-4.45,11.31l.47.47a17.24,17.24,0,0,0,4.63-11.78,17.46,17.46,0,0,0-2.34-8.67l-.53.35A16.08,16.08,0,0,1,61.21,142.24Z" transform="translate(-3.38 -9.52)"/><path class="cls-2" d="M44.57,158.88A16.67,16.67,0,1,1,58.34,132.8l.53-.35a17.31,17.31,0,1,0-2.52,22.44l-.47-.47A16.41,16.41,0,0,1,44.57,158.88Z" transform="translate(-3.38 -9.52)"/><path class="cls-2" d="M57.22,154l-.47-.47c-.29.29-.59.64-.94.94l.47.47Z" transform="translate(-3.38 -9.52)"/><path class="cls-2" d="M59,133.92l.53-.35c-.23-.35-.47-.76-.7-1.11l-.53.35A4.46,4.46,0,0,1,59,133.92Z" transform="translate(-3.38 -9.52)"/><path class="cls-2" d="M59,133.92l-.53.35a16,16,0,0,1-2.17,18.81l.47.47a16.68,16.68,0,0,0,4.45-11.31A16.08,16.08,0,0,0,59,133.92Z" transform="translate(-3.38 -9.52)"/><path class="cls-2" d="M44.57,158.24A16.06,16.06,0,1,1,57.75,133.1l.53-.35a16.72,16.72,0,1,0-2.46,21.68l-.47-.47A15.5,15.5,0,0,1,44.57,158.24Z" transform="translate(-3.38 -9.52)"/><path class="cls-2" d="M55.41,154l.47.47c.29-.29.64-.59.94-.94l-.47-.47C56.05,153.37,55.76,153.72,55.41,154Z" transform="translate(-3.38 -9.52)"/><path class="cls-2" d="M58.45,134.27l.53-.35c-.23-.35-.47-.76-.7-1.11l-.53.35C58,133.51,58.22,133.86,58.45,134.27Z" transform="translate(-3.38 -9.52)"/><path class="cls-2" d="M31.33,177.06a28,28,0,1,0,28,28A28,28,0,0,0,31.33,177.06Zm0,55.31a27.31,27.31,0,1,1,27.31-27.31A27.3,27.3,0,0,1,31.33,232.37Z" transform="translate(-3.38 -9.52)"/><path class="cls-2" d="M31.33,177.7A27.31,27.31,0,1,0,58.63,205,27.3,27.3,0,0,0,31.33,177.7Zm0,54A26.66,26.66,0,1,1,58,205.07,26.68,26.68,0,0,1,31.33,231.73Z" transform="translate(-3.38 -9.52)"/><path class="cls-2" d="M130.06,88.51l.59-.23.7,1.82,23.44,14.59c.23-.35.47-.7.7-1.11L130.41,88Z" transform="translate(-3.38 -9.52)"/><path class="cls-2" d="M155.31,105l.47-.7c-.18.23-.29.47-.47.7Z" transform="translate(-3.38 -9.52)"/><path class="cls-2" d="M156,103.86h0c-.06.06-.06.12-.12.18Z" transform="translate(-3.38 -9.52)"/><path class="cls-2" d="M154.73,104.62l.59.35c.18-.23.29-.47.47-.7l.12-.18c.06-.06.06-.12.12-.23l-.59-.35A7.17,7.17,0,0,1,154.73,104.62Z" transform="translate(-3.38 -9.52)"/><polygon class="cls-2" points="126.68 78.99 127.03 79.51 126.68 79.75 127.97 80.51 127.27 78.75 126.68 78.99"/><polygon class="cls-2" points="126.68 78.99 126.33 79.51 126.33 79.51 126.68 79.75 127.03 79.51 126.68 78.99"/><path class="cls-2" d="M75.1,55.46c-.23.41-.41.76-.64,1.11L103.1,73.39c.23-.35.41-.76.64-1.11Z" transform="translate(-3.38 -9.52)"/><path class="cls-2" d="M129.71,87.92l.35.53.35-.59L104.92,73a10.89,10.89,0,0,0-.64,1.11l24.55,14.41Z" transform="translate(-3.38 -9.52)"/><path class="cls-2" d="M104.33,72.63l-.53-.35a10.89,10.89,0,0,0-.64,1.11l.53.35C103.92,73.39,104.1,73,104.33,72.63Z" transform="translate(-3.38 -9.52)"/><path class="cls-2" d="M104.92,73l-.59-.35a10.89,10.89,0,0,0-.64,1.11l.59.35A10.89,10.89,0,0,1,104.92,73Z" transform="translate(-3.38 -9.52)"/><path class="cls-2" d="M59.86,46.55a.06.06,0,0,1-.06.06,10.19,10.19,0,0,1-.64,1.05L73.28,56a10.89,10.89,0,0,0,.64-1.11Z" transform="translate(-3.38 -9.52)"/><path class="cls-2" d="M74.57,55.17c-.23.41-.41.76-.64,1.11l.59.35a10.89,10.89,0,0,0,.64-1.11Z" transform="translate(-3.38 -9.52)"/><path class="cls-2" d="M73.34,55.93l.59.35a10.89,10.89,0,0,0,.64-1.11L74,54.81A6.9,6.9,0,0,1,73.34,55.93Z" transform="translate(-3.38 -9.52)"/><polygon class="cls-2" points="126.68 78.99 126.33 78.4 125.39 78.99 126.15 79.4 126.03 79.22 126.68 78.99"/><polygon class="cls-2" points="126.33 79.51 126.68 78.99 126.03 79.22 126.15 79.4 126.33 79.51"/><polygon class="cls-2" points="126.33 79.51 126.33 79.51 126.68 78.99 126.33 79.51"/><path class="cls-2" d="M60,42.45a5.45,5.45,0,1,0-7.32,6.91,5,5,0,0,0,2.29.47,5.63,5.63,0,0,0,1.93-.35,5,5,0,0,0,2.4-1.82l-.59-.35a4.69,4.69,0,0,1-2.11,1.52,4.82,4.82,0,1,1,2.81-6.21,4.56,4.56,0,0,1-.06,3.52l.59.35A5.37,5.37,0,0,0,60,42.45Z" transform="translate(-3.38 -9.52)"/><path class="cls-2" d="M58.63,47.31l.59.35a4.6,4.6,0,0,0,.64-1.05.06.06,0,0,1,.06-.06l-.59-.35A4.46,4.46,0,0,1,58.63,47.31Z" transform="translate(-3.38 -9.52)"/><path class="cls-2" d="M56.34,48.25a4,4,0,0,1-3.16-.12A4.26,4.26,0,0,1,51,45.79a4,4,0,0,1,.12-3.16,4.26,4.26,0,0,1,2.34-2.17,4.35,4.35,0,0,1,1.46-.29,4.2,4.2,0,0,1,1.7.35,4.26,4.26,0,0,1,2.17,2.34,4.36,4.36,0,0,1,0,3l.59.35a4.57,4.57,0,0,0,.06-3.52,4.82,4.82,0,1,0-2.81,6.21,4.69,4.69,0,0,0,2.11-1.52L58.16,47A5.54,5.54,0,0,1,56.34,48.25Z" transform="translate(-3.38 -9.52)"/><path class="cls-2" d="M58.75,45.85c0,.06-.06.12-.06.18a5.06,5.06,0,0,1-.59.94l.59.35a4.24,4.24,0,0,0,.64-1.11Z" transform="translate(-3.38 -9.52)"/></svg>